<?xml version="1.0" standalone="no"?>
<!DOCTYPE svg PUBLIC "-//W3C//DTD SVG 1.1//EN" "http://www.w3.org/Graphics/SVG/1.1/DTD/svg11.dtd" >
<svg xmlns="http://www.w3.org/2000/svg" xmlns:xlink="http://www.w3.org/1999/xlink" version="1.1">
<metadata>
Created by FontForge 20170731 at Fri Jan 14 18:46:31 2005
 By Aleksey,,,
Copyright (c) 1991 Adobe Systems Incorporated. Digitised data (c) 1994 The Monotype Corporation. All rights reserved.
</metadata>
<defs>
<font id="SabonMTStd-Regular" horiz-adv-x="531" >
  <font-face 
    font-family="Sabon MT Std"
    font-weight="400"
    font-stretch="normal"
    units-per-em="1000"
    panose-1="2 2 5 3 5 4 5 2 3 4"
    ascent="730"
    descent="-270"
    x-height="409"
    cap-height="650"
    bbox="-149 -248 1006 932"
    underline-thickness="50"
    underline-position="-200"
    unicode-range="U+0020-FB02"
  />
<missing-glyph horiz-adv-x="500" 
d="M12 0v665h475v-665h-475zM88 618l162 -243l161 243h-323zM60 575v-484l40 61l80 120l41 61zM440 575l-162 -242l162 -243v485zM411 48l-161 242l-162 -242h323z" />
    <glyph glyph-name="fi" unicode="fi" 
d="M187 407h152q47 0 86 12l10 5q10 4 12 4q5 0 5 -15l-1 -363q0 -21 9 -25t53 -5v-22q-28 2 -99 2q-76 0 -100 -2v22q41 0 52.5 4.5t11.5 23.5v287q0 11 -8 19.5t-17 8.5h-166v-295q0 -36 9.5 -42t62.5 -6v-22q-24 2 -105 2q-80 0 -106 -2v22q44 0 55 7.5t11 34.5v301h-62
v15q47 25 62 45q4 72 18 122.5t55 93.5q32 33 81.5 57.5t104.5 24.5q50 0 73 -21.5t23 -45.5q0 -19 -13.5 -32.5t-33.5 -13.5q-14 0 -18.5 5.5t-14.5 33.5q-7 18 -25.5 29t-40.5 11q-61 0 -99 -58q-23 -36 -30 -86.5t-7 -135.5z" />
    <glyph glyph-name="fl" unicode="fl" 
d="M399 706l30 15h16v-673q0 -17 12.5 -22.5t44.5 -5.5v-22q-38 2 -92 2q-50 0 -102 -2v22q44 0 54 5t10 32v563q0 22 -22.5 44t-57.5 22q-50 0 -82 -43q-14 -20 -26 -58q-10 -33 -10 -178h147v-44h-147v-308q0 -24 12 -29t64 -6v-22q-18 0 -55 1t-55 1t-55 -1t-55 -1v22
q49 0 60 4t11 24v315h-62v16q41 20 62 46q1 31 3 49.5t10 54t26.5 67.5t48.5 61q65 64 146 64q23 0 64 -15z" />
    <glyph glyph-name=".notdef" horiz-adv-x="500" 
d="M12 0v665h475v-665h-475zM88 618l162 -243l161 243h-323zM60 575v-484l40 61l80 120l41 61zM440 575l-162 -242l162 -243v485zM411 48l-161 242l-162 -242h323z" />
    <glyph glyph-name=".null" horiz-adv-x="0" 
 />
    <glyph glyph-name="nonmarkingreturn" horiz-adv-x="333" 
 />
    <glyph glyph-name="space" unicode=" " horiz-adv-x="240" 
 />
    <glyph glyph-name="exclam" unicode="!" horiz-adv-x="271" 
d="M144 178h-19q-45 303 -45 373q0 35 16 55t39 20q24 0 40.5 -21t16.5 -53q0 -81 -48 -374zM137 97q25 0 40.5 -16.5t15.5 -39.5q0 -22 -16 -38t-39 -16t-39 16t-16 39t16.5 39t37.5 16z" />
    <glyph glyph-name="quotedbl" unicode="&#x22;" horiz-adv-x="408" 
d="M282 377l-26 144q-11 61 -11 82q0 59 47 59q21 0 36 -13.5t15 -38.5q0 -20 -13 -89l-27 -144h-21zM103 377l-26 144q-11 61 -11 82q0 59 47 59q21 0 36 -13.5t15 -38.5q0 -20 -13 -89l-27 -144h-21z" />
    <glyph glyph-name="numbersign" unicode="#" horiz-adv-x="667" 
d="M201 496l41 198h60l-41 -198h207l41 198h60l-41 -198h95v-60h-108l-37 -180h145v-60h-157l-41 -196h-60l41 196h-207l-41 -196h-60l41 196h-96v60h108l37 180h-145v60h158zM455 436h-206l-38 -180h207z" />
    <glyph glyph-name="dollar" unicode="$" horiz-adv-x="479" 
d="M227 715h28v-54h21q34 0 116 -18q3 -52 10 -115h-18q-7 29 -19.5 50t-25 31.5t-30 16.5t-28.5 7.5t-26 1.5v-261q43 -18 69.5 -32.5t55.5 -38t43 -55t14 -71.5q0 -44 -16.5 -78.5t-37.5 -53t-50.5 -31.5t-45 -16.5t-32.5 -6.5v-81h-28v81q-76 2 -162 38q-13 96 -19 130
l16 4q24 -76 58.5 -107.5t106.5 -38.5v276q-36 17 -60 31.5t-51 37.5t-40.5 54t-13.5 69q0 82 61 131q41 32 104 43v56zM227 388v245q-50 -12 -73 -46.5t-23 -71.5q0 -26 9 -47.5t26 -37t29.5 -24t31.5 -18.5zM255 282v-262q56 7 81.5 46.5t25.5 80.5q0 48 -28 77t-79 58z
" />
    <glyph glyph-name="percent" unicode="%" horiz-adv-x="958" 
d="M691 310q67 0 106.5 -45.5t39.5 -110.5q0 -68 -42.5 -117.5t-110.5 -49.5q-66 0 -105.5 45t-39.5 112q0 73 45.5 119.5t106.5 46.5zM689 286q-45 0 -64.5 -39.5t-19.5 -97.5q0 -138 81 -138q42 0 63.5 38.5t21.5 102.5q0 134 -82 134zM273 674q67 0 106.5 -45.5
t39.5 -110.5q0 -68 -42.5 -117.5t-110.5 -49.5q-66 0 -105.5 45t-39.5 112q0 73 45.5 119.5t106.5 46.5zM271 650q-45 0 -64.5 -39.5t-19.5 -97.5q0 -138 81 -138q42 0 63.5 38.5t21.5 102.5q0 134 -82 134zM614 695h43l-312 -725h-44z" />
    <glyph glyph-name="ampersand" unicode="&#x26;" horiz-adv-x="906" 
d="M594 466v20q40 -2 127 -2q50 0 114 2v-20q-33 -1 -51 -3t-41 -14t-44 -35q-14 -16 -85 -108.5t-84 -107.5q72 -96 112.5 -134t87.5 -38q52 0 100 57l15 -10q-73 -103 -161 -103q-36 0 -67 14t-58 43t-42.5 50.5t-38.5 58.5q-21 -26 -35.5 -42.5t-46.5 -46t-68.5 -45
t-75.5 -15.5q-70 0 -130 53t-60 138q0 134 162 215q-81 57 -81 128q0 51 39.5 92t109.5 41q56 0 91 -29t35 -74q0 -78 -110 -130q62 -41 103.5 -82.5t103.5 -121.5q102 140 119 175q11 24 11 40q0 12 -5 19t-15.5 10t-14.5 3.5t-16 1.5zM292 433q21 15 32.5 25.5t23 33.5
t11.5 51q0 39 -20.5 64t-54.5 25q-38 0 -57.5 -25.5t-19.5 -54.5q0 -31 18 -54t67 -65zM239 380q-21 -13 -34.5 -23t-33 -29t-30 -44.5t-10.5 -55.5q0 -67 52.5 -120.5t120.5 -53.5q46 0 81 24.5t79 75.5q-89 116 -225 226z" />
    <glyph glyph-name="quotesingle" unicode="'" horiz-adv-x="180" 
d="M78 377l-26 144q-11 61 -11 82q0 59 47 59q21 0 36 -13.5t15 -38.5q0 -20 -13 -89l-27 -144h-21z" />
    <glyph glyph-name="parenleft" unicode="(" horiz-adv-x="323" 
d="M246 663l30 -20q-23 -43 -36.5 -71t-38 -87t-37.5 -120.5t-13 -120.5t11 -117t33 -113.5t38 -90.5t42 -83l-30 -21q-32 56 -51 93t-42 92.5t-34 112t-11 116.5q0 64 13 127.5t37 122t43 95.5t46 85z" />
    <glyph glyph-name="parenright" unicode=")" horiz-adv-x="323" 
d="M77 -181l-30 20q23 43 36.5 71t38 87t37.5 120.5t13 120.5t-11 117t-33 113.5t-38 90.5t-42 83l30 21q32 -56 51 -93t42 -92.5t34 -112t11 -116.5q0 -64 -13 -127.5t-37 -122t-43 -95.5t-46 -85z" />
    <glyph glyph-name="asterisk" unicode="*" horiz-adv-x="427" 
d="M219 534l-13 3q1 93 8 107q8 16 30 16q15 0 24.5 -9.5t9.5 -22.5q0 -11 -9 -25t-50 -69zM177 527l-7 -11q-74 23 -95 36q-14 9 -14 26q0 14 10 24.5t24 10.5t25 -11q17 -17 57 -75zM239 494v15q90 25 96 25q15 0 23.5 -9.5t8.5 -24.5t-9 -24.5t-22 -9.5q-15 0 -97 28z
M170 486l7 -12q-33 -44 -51 -66q-15 -20 -31 -20q-14 0 -24.5 11.5t-10.5 25.5q0 21 26 33q2 1 14.5 5t26.5 9t28 9.5t15 4.5zM206 465l15 4q3 -5 25 -38t25 -39q5 -8 5 -18q0 -14 -10 -23.5t-24 -9.5q-30 0 -34 29q-2 16 -2 95z" />
    <glyph glyph-name="plus" unicode="+" horiz-adv-x="667" 
d="M69 349h234v234h61v-234h234v-61h-234v-234h-61v234h-234v61z" />
    <glyph glyph-name="comma" unicode="," horiz-adv-x="271" 
d="M78 -160l-7 20q32 7 54 22t30.5 32.5t11.5 29t3 23.5q0 20 -6 30.5t-13 12.5t-19 3q-61 4 -61 50q0 21 16.5 37.5t43.5 16.5q43 0 67 -33t24 -81q0 -56 -36.5 -102.5t-107.5 -60.5z" />
    <glyph glyph-name="hyphen" unicode="-" horiz-adv-x="323" 
d="M281 253l-12 -59q-40 1 -71 1l-42 -1h-114l12 59q114 -1 227 0z" />
    <glyph glyph-name="period" unicode="." horiz-adv-x="271" 
d="M136 107q26 0 43 -18t17 -42q0 -25 -17 -42.5t-42 -17.5q-24 0 -42.5 18t-18.5 42q0 25 19 42.5t41 17.5z" />
    <glyph glyph-name="slash" unicode="/" horiz-adv-x="281" 
d="M280 721l-240 -721h-39l240 721h39z" />
    <glyph glyph-name="zero" unicode="0" horiz-adv-x="479" 
d="M244 651q95 0 150 -90t55 -221q0 -88 -24.5 -167.5t-75 -132.5t-115.5 -53t-112.5 46t-69.5 116t-22 153q0 141 60 245t154 104zM246 625q-42 0 -70.5 -32.5t-41 -88t-17.5 -104.5t-5 -105q0 -282 122 -282q133 0 133 324q0 288 -121 288z" />
    <glyph glyph-name="one" unicode="1" horiz-adv-x="479" 
d="M290 656l10 -6q-3 -84 -3 -176v-388q0 -48 15.5 -57t91.5 -9v-22q-62 2 -153 2q-107 0 -143 -2v22h18q64 0 78 9.5t14 56.5v487q-47 -26 -129 -69l-11 18q122 64 212 134z" />
    <glyph glyph-name="two" unicode="2" horiz-adv-x="479" 
d="M413 73l24 50l19 -3l-24 -120h-415v16q53 50 91.5 90.5t90 104.5t80 130t28.5 126q0 51 -31.5 91t-84.5 40q-31 0 -59.5 -16.5t-40.5 -29.5t-31 -36l-15 10q14 23 25 38t34.5 39t56.5 36.5t73 12.5q75 0 115.5 -46.5t40.5 -108.5q0 -33 -6 -61.5t-24 -62t-35 -59
t-57 -70.5t-70.5 -77t-93.5 -97q220 3 309 3z" />
    <glyph glyph-name="three" unicode="3" horiz-adv-x="479" 
d="M145 319v20q45 8 78 25.5t48.5 34.5t24 38.5t9.5 31t1 19.5q0 47 -31 80.5t-77 33.5q-55 0 -114 -56l-12 14q23 25 38 39t54 33.5t79 19.5q57 0 96.5 -33t39.5 -90q0 -35 -15 -66t-39.5 -52t-42.5 -32.5t-36 -19.5v-2q66 0 104 -24q63 -39 63 -125t-69.5 -153.5
t-168.5 -67.5q-57 0 -105.5 22.5t-48.5 59.5q0 10 12 16.5t20 6.5q9 0 24 -20q40 -60 105 -60q62 0 106.5 48t44.5 116q0 50 -25 85.5t-67 48.5q-40 12 -96 9z" />
    <glyph glyph-name="four" unicode="4" horiz-adv-x="479" 
d="M328 649h36v-382h93v-62h-93v-209h-75v209h-274v34zM289 267v204q0 36 4 84l-2 2q-146 -199 -224 -293q60 3 75 3h147z" />
    <glyph glyph-name="five" unicode="5" horiz-adv-x="479" 
d="M208 642h228l-17 -73h-211l-38 -98q29 -14 48 -23.5t55.5 -34.5t59 -50t40.5 -64.5t18 -83.5q0 -87 -61 -157.5t-167 -70.5q-62 0 -100.5 25t-38.5 56q0 7 10.5 12.5t21.5 5.5q10 0 16 -10q38 -63 106 -63q64 0 104.5 47t40.5 115q0 38 -14.5 71t-32.5 54t-50.5 43.5
t-52.5 33t-55 26.5z" />
    <glyph glyph-name="six" unicode="6" horiz-adv-x="479" 
d="M451 656l6 -18q-136 -37 -214 -115q-105 -105 -125 -269l2 -2q70 102 161 102q69 0 110 -50t41 -117q0 -82 -61 -141t-143 -59q-87 0 -139.5 69.5t-52.5 166.5q0 94 42.5 175.5t109.5 139.5q35 30 73 52.5t78.5 36t59 18t52.5 11.5zM242 13q56 0 84.5 45.5t28.5 97.5
q0 62 -33 103t-84 41q-48 0 -88 -40q-30 -30 -30 -70q0 -70 33 -123.5t89 -53.5z" />
    <glyph glyph-name="seven" unicode="7" horiz-adv-x="479" 
d="M35 642h421l6 -6l-345 -653l-32 16l303 570h-328l-25 -47h-21z" />
    <glyph glyph-name="eight" unicode="8" horiz-adv-x="479" 
d="M196 308q-24 16 -39.5 28t-37.5 34.5t-33.5 51t-11.5 61.5q0 70 49.5 119t127.5 49q72 0 118.5 -39t46.5 -100q0 -95 -132 -168q31 -21 49 -35t41.5 -37.5t34.5 -52t11 -61.5q0 -69 -52 -120t-133 -51q-73 0 -123.5 41.5t-50.5 109.5q0 55 34.5 92.5t100.5 77.5zM268 355
q23 18 36.5 31t30.5 46.5t17 72.5q0 53 -29 88.5t-72 35.5q-46 0 -76.5 -33.5t-30.5 -81.5q0 -34 17.5 -62.5t38 -45.5t68.5 -51zM213 296q-16 -11 -27 -21t-27.5 -29t-25 -46t-8.5 -60q0 -59 33 -95t78 -36q46 0 78 34t32 83q0 38 -23.5 73.5t-47 53.5t-62.5 43z" />
    <glyph glyph-name="nine" unicode="9" horiz-adv-x="479" 
d="M28 -18l-6 18q136 37 214 115q105 105 125 269l-2 2q-70 -102 -161 -102q-69 0 -110 50t-41 117q0 82 61 141t143 59q87 0 139.5 -69.5t52.5 -166.5q0 -94 -42.5 -175.5t-109.5 -139.5q-35 -30 -73 -52.5t-78.5 -36t-59 -18t-52.5 -11.5zM237 625q-56 0 -84.5 -45.5
t-28.5 -97.5q0 -62 33 -103t84 -41q48 0 88 40q30 30 30 70q0 70 -33 123.5t-89 53.5z" />
    <glyph glyph-name="colon" unicode=":" horiz-adv-x="271" 
d="M136 392q22 0 38 -16t16 -38t-16 -38t-38 -16t-38 16t-16 38t16 38t38 16zM136 95q22 0 38 -15.5t16 -38.5t-16 -38.5t-38 -15.5t-38 15.5t-16 38.5t16 38.5t38 15.5z" />
    <glyph glyph-name="semicolon" unicode=";" horiz-adv-x="271" 
d="M78 -160l-7 20q32 7 54 22t30.5 32.5t11.5 29t3 23.5q0 20 -6 30.5t-13 12.5t-19 3q-61 4 -61 50q0 21 16.5 37.5t43.5 16.5q43 0 67 -33t24 -81q0 -56 -36.5 -102.5t-107.5 -60.5zM136 392q22 0 38 -16t16 -38t-16 -38t-38 -16t-38 16t-16 38t16 38t38 16z" />
    <glyph glyph-name="less" unicode="&#x3c;" horiz-adv-x="667" 
d="M599 64l-530 223v57l530 223v-69l-445 -182l445 -182v-70z" />
    <glyph glyph-name="equal" unicode="=" horiz-adv-x="667" 
d="M69 463h529v-61h-529v61zM69 232h529v-61h-529v61z" />
    <glyph glyph-name="greater" unicode="&#x3e;" horiz-adv-x="667" 
d="M69 64v70l446 182l-446 182v69l530 -223v-57z" />
    <glyph glyph-name="question" unicode="?" horiz-adv-x="375" 
d="M168 180h-22l-4 165q75 1 115.5 35.5t40.5 82.5q0 43 -29 74.5t-69 31.5q-3 0 -18.5 -1t-18.5 -1q-57 0 -57 43q0 42 51 42q74 0 127.5 -79t53.5 -171q0 -36 -11 -62t-31.5 -40t-36 -20t-38.5 -12q-37 -8 -45.5 -21.5t-7.5 -66.5zM168 100q25 0 40.5 -16.5t15.5 -39.5
q0 -22 -16 -38t-39 -16t-39 16t-16 39t16.5 39t37.5 16z" />
    <glyph glyph-name="at" unicode="@" horiz-adv-x="921" 
d="M690 435l-57 -194q-46 -164 -46 -186q0 -11 9 -24t27 -13q74 0 141 95t67 223q0 131 -88 216t-229 85q-94 0 -174 -40.5t-132.5 -106.5t-82 -149t-29.5 -169q0 -174 107.5 -282t274.5 -108q76 0 145 23.5t137.5 86.5t109.5 160h28q-31 -97 -99.5 -166.5t-151.5 -101.5
t-172 -32q-182 0 -304 122t-122 311q0 101 37 190.5t100 152t147.5 98.5t177.5 36q86 0 154 -28t110 -75.5t63.5 -106.5t21.5 -124q0 -46 -10.5 -93.5t-33 -92.5t-54 -80.5t-76 -57t-95.5 -21.5q-75 0 -75 67q0 35 9 69l-2 2q-111 -139 -191 -139q-42 0 -65 36t-23 78
q0 74 44 155.5t107.5 134t117.5 52.5q69 0 83 -67h2l15 54zM518 416q-44 0 -91.5 -59t-76.5 -130.5t-29 -115.5q0 -27 15.5 -48.5t40.5 -21.5q71 0 149 122q20 31 36.5 88.5t16.5 93.5q0 30 -16 50.5t-45 20.5z" />
    <glyph glyph-name="A" unicode="A" horiz-adv-x="698" 
d="M353 677h15l184 -522q30 -85 48 -110t51 -25h19v-22q-72 2 -123 2t-119 -2v22h28q39 0 39 35q0 16 -5 26l-57 160h-219l-9 -22q-13 -31 -27 -84t-14 -76q0 -39 46 -39h38v-22q-106 2 -109 2t-111 -2v22q42 1 64.5 22.5t49.5 96.5l144 400q17 47 13 96q33 18 54 42z
M420 278l-98 283h-2l-95 -283h195z" />
    <glyph glyph-name="B" unicode="B" horiz-adv-x="583" 
d="M289 -2q-24 0 -76 1t-64 1q-29 0 -70 -1t-52 -1v22q49 1 68 17.5t19 71.5v448q0 44 -21.5 57t-65.5 14v22q102 -2 116 -2q16 0 47 1t47 1q91 0 133 -14q59 -20 86 -58.5t27 -76.5q0 -106 -163 -148v-2q76 -7 122 -25t77 -65q26 -40 26 -87q0 -106 -109 -152
q-57 -24 -147 -24zM200 620v-260q102 0 135 23q57 40 57 121q0 58 -33 87q-36 32 -103 32q-29 0 -56 -3zM200 333v-238q0 -70 99 -70q77 0 115.5 43t38.5 99q0 38 -16.5 78t-48.5 61q-48 29 -129 29q-9 0 -59 -2z" />
    <glyph glyph-name="C" unicode="C" horiz-adv-x="698" 
d="M649 615l8 -126h-17q-14 73 -69.5 109.5t-141.5 36.5q-61 0 -109 -19t-78 -49t-50 -69.5t-27.5 -77t-7.5 -74.5q0 -130 81 -231t201 -101q11 0 24 1t43 9.5t54 22.5t47.5 45.5t32.5 73.5l17 -2l-17 -131q-109 -46 -223 -46q-75 0 -137 21.5t-102 56.5t-67.5 79.5
t-39.5 89.5t-12 88q0 90 43 166.5t126.5 125t190.5 48.5q116 0 230 -47z" />
    <glyph glyph-name="D" unicode="D" horiz-adv-x="750" 
d="M35 650q15 0 64.5 -1t63.5 -1q25 0 90 1t90 1q147 0 246.5 -95t99.5 -229q0 -105 -55 -182t-141 -113q-78 -33 -216 -33q-36 0 -83 1t-52 1q-25 0 -63 -1t-47 -1v22q48 0 68.5 15.5t20.5 71.5v452q0 23 -7 38t-21 21t-26.5 8t-31.5 2v22zM207 617v-507q0 -47 24.5 -66
t87.5 -19q132 0 206 91q66 81 66 200q0 126 -78 213q-83 94 -227 94q-34 0 -79 -6z" />
    <glyph glyph-name="E" unicode="E" horiz-adv-x="583" 
d="M477 518l-16 -2q-8 105 -137 105h-129v-266h142q17 0 29.5 5t19 12t10 19t4.5 20.5t1 22.5h22q-2 -98 0 -201h-22q0 24 -1.5 36t-8.5 25.5t-23.5 18.5t-43.5 5h-129v-204q0 -52 27.5 -69.5t79.5 -17.5q129 0 160 14q26 12 41.5 33.5t33.5 59.5l16 -3q-15 -60 -32 -133
q-46 0 -128 1t-120 1q-41 0 -124 -1t-124 -1v22q42 0 63 17.5t21 67.5v454q0 44 -19.5 56.5t-64.5 12.5v22q36 0 112.5 -1t109.5 -1q29 0 100 1t127 1q3 -77 3 -132z" />
    <glyph glyph-name="F" unicode="F" 
d="M488 520l-17 -2q-9 103 -125 103h-145v-266h145q23 0 37.5 7.5t20 21.5t7 24.5t1.5 25.5h22q-3 -52 0 -200h-22q0 45 -12 64.5t-51 19.5h-148v-215q0 -30 6 -47.5t21 -24.5t26.5 -8t36.5 -1v-24q-28 0 -58 0.5t-47.5 1t-32.5 0.5q-22 0 -130 -2v24q25 0 38 1.5t27.5 9
t20.5 24.5t6 46v459q0 23 -7 37.5t-22 20t-27 7t-34 1.5v22q78 0 154.5 -1t86.5 -1q29 0 99.5 1t119.5 1q3 -81 3 -130z" />
    <glyph glyph-name="G" unicode="G" horiz-adv-x="750" 
d="M647 614l13 -127h-17q-12 62 -52 95q-66 53 -168 53q-122 0 -199.5 -81t-77.5 -212q0 -139 82.5 -233.5t202.5 -94.5q69 0 130 37v136q0 46 -16.5 57t-63.5 12v22q19 0 67.5 -1t59.5 -1q13 0 46.5 1t57.5 1v-22q-36 -1 -50.5 -10.5t-14.5 -43.5v-135q4 -5 16 -13v-15
q-134 -52 -272 -52q-83 0 -150.5 30.5t-108.5 80t-62.5 107.5t-21.5 117q0 138 102 239t257 101q104 0 240 -48z" />
    <glyph glyph-name="H" unicode="H" horiz-adv-x="802" 
d="M766 650v-22q-23 0 -34 -0.5t-23 -6t-16.5 -17.5t-4.5 -34v-441q0 -40 4 -63t16.5 -32.5t23.5 -11.5t37 -2v-22q-7 0 -24 0.5t-44.5 1t-47.5 0.5q-84 2 -123 -2v22q45 0 58.5 14.5t13.5 81.5v198h-399v-230q0 -44 15.5 -54t60.5 -10v-22q-120 2 -123 2q-5 0 -123 -2v22
q49 1 66.5 17.5t17.5 70.5v438q0 53 -17.5 67.5t-62.5 14.5v22q32 0 73 -1t53 -1q13 0 48 1t65 1v-22q-47 0 -60 -9.5t-13 -50.5v-217h399v207q0 47 -15 58.5t-62 11.5v22q112 -2 124 -2q13 0 117 2z" />
    <glyph glyph-name="I" unicode="I" horiz-adv-x="323" 
d="M285 650v-22q-21 0 -32.5 -1.5t-24 -6.5t-17.5 -17.5t-5 -33.5v-480q0 -44 19.5 -56.5t59.5 -12.5v-22q-23 0 -62 0.5t-60 1.5q-18 0 -125 -2v22q45 0 63.5 10.5t18.5 45.5v457q0 67 -15 81t-67 14v22q126 -2 128 -2q13 0 51.5 1t67.5 1z" />
    <glyph glyph-name="J" unicode="J" horiz-adv-x="427" 
d="M362 650v-22q-44 -1 -64 -18.5t-20 -75.5v-448q0 -146 -44 -213q-25 -38 -66 -59.5t-85 -21.5q-41 0 -68 18t-27 48q0 38 44 38q13 0 17 -4t5 -15q2 -26 18.5 -41t38.5 -15q42 0 61.5 45t19.5 158v504q0 65 -18.5 82t-76.5 18v22q132 -2 137 -2q6 0 128 2z" />
    <glyph glyph-name="K" unicode="K" horiz-adv-x="698" 
d="M276 650v-22q-45 0 -57.5 -10.5t-12.5 -57.5v-479q0 -44 11 -52.5t62 -8.5v-22q-11 0 -55 1t-65 1q-17 0 -58.5 -1t-54.5 -1v22q50 0 62 12.5t12 70.5v464q0 22 -4 35t-15.5 18.5t-21.5 6.5t-33 1v22q10 0 52.5 -1t66.5 -1q25 0 62 1t49 1zM422 628v22q12 0 52.5 -1
t54.5 -1q21 0 52 1t45 1v-22q-72 0 -136 -64l-197 -199l250 -274q30 -33 55 -49.5t37.5 -19t32.5 -2.5v-22q-5 0 -31.5 1t-44.5 1t-46.5 -1t-33.5 -1l-299 328l209 217q49 49 49 69q0 16 -49 16z" />
    <glyph glyph-name="L" unicode="L" horiz-adv-x="583" 
d="M290 650v-22q-23 0 -35 -1.5t-25 -7.5t-18.5 -20.5t-5.5 -39.5v-437q0 -51 27 -71t99 -20q79 0 119 10.5t59 32.5t34 70l17 -4q-8 -39 -31 -142q-106 2 -257 2q-57 0 -142.5 -1t-101.5 -1v22q46 0 68.5 14.5t22.5 62.5v442q0 32 -6.5 51.5t-21 27t-25 9t-29.5 1.5v22
q15 0 58 -1t68 -1q24 0 66.5 1t59.5 1z" />
    <glyph glyph-name="M" unicode="M" horiz-adv-x="958" 
d="M313 496l170 -378l200 395q43 85 62 137q12 0 36 -1t32 -1q15 0 45 1t36 1v-22q-18 0 -29.5 -1.5t-25.5 -7.5t-20.5 -21t-6.5 -38l9 -427q1 -40 8 -64.5t24 -34.5t31 -12t42 -2v-22q-46 2 -146 2q-121 0 -141 -2v22q57 1 77.5 18.5t19.5 77.5l-6 418h-2l-192 -377
q-41 -81 -71 -157h-25q-31 78 -69 161l-165 364h-2l-25 -368q-3 -48 1 -76.5t18 -41t28 -16t42 -3.5v-22q-64 2 -118 2q-74 0 -122 -2v22q24 0 39.5 3.5t33 14t27.5 35t14 62.5l33 361q3 30 3 57q0 48 -18.5 61.5t-69.5 13.5v22q5 0 32 -1t48 -1q15 0 40.5 1t35.5 1
q47 -110 67 -154z" />
    <glyph glyph-name="N" unicode="N" horiz-adv-x="802" 
d="M771 650v-22q-25 0 -38 -3t-26.5 -15t-18.5 -39t-5 -72v-499h-26l-479 535v-334q0 -110 20 -144.5t94 -36.5v-22q-58 2 -126 2q-60 0 -118 -2l1 22q61 1 77.5 26.5t16.5 110.5v387q0 84 -112 84v22q70 -2 81 -2q9 0 36.5 1t44.5 0q37 -42 66.5 -76t42.5 -49l346 -387v359
q0 83 -24 107t-86 25v22q13 0 54 -1t65 -1t63 1t51 1z" />
    <glyph glyph-name="O" unicode="O" horiz-adv-x="802" 
d="M408 -13q-155 0 -250 103t-95 237q0 141 101 238t238 97q138 0 237.5 -97t99.5 -239q0 -146 -102 -242.5t-229 -96.5zM394 635q-63 0 -110 -27t-73 -70.5t-38 -91t-12 -97.5q0 -134 72 -234.5t183 -100.5q101 0 163 81t62 205q0 134 -70 234.5t-177 100.5z" />
    <glyph glyph-name="P" unicode="P" 
d="M253 284l3 20q69 1 110.5 39.5t41.5 117.5q0 46 -16 79.5t-41 50.5t-49.5 24.5t-47.5 7.5q-28 0 -49 -3v-508q0 -61 18 -76.5t72 -15.5v-22q-11 0 -63 1t-70 1q-37 0 -129 -2v22q19 0 32 2t26.5 8t20.5 20.5t7 37.5v463q0 49 -21.5 63t-64.5 14v22q9 0 105 -2q22 0 63 1
t56 1q112 0 169 -38q74 -49 74 -142q0 -85 -61 -136t-151 -51q-7 0 -20 0.5t-15 0.5z" />
    <glyph glyph-name="Q" unicode="Q" horiz-adv-x="802" 
d="M764 -142l7 -15q-36 -51 -98 -51q-35 0 -69.5 20t-89.5 72q-75 70 -138 104q-32 4 -52.5 8t-57 19.5t-69.5 39.5q-64 47 -99 118t-35 151q0 142 100.5 240t239.5 98t237.5 -99.5t98.5 -239.5q0 -150 -115 -253q-50 -44 -130 -71q45 -24 99 -70q94 -80 138 -80q12 0 33 9z
M395 635q-63 0 -111 -27t-73.5 -70.5t-37.5 -90.5t-12 -95q0 -54 15 -110.5t44 -109t79.5 -85.5t113.5 -33q101 0 164.5 77.5t63.5 210.5q0 132 -70 232.5t-176 100.5z" />
    <glyph glyph-name="R" unicode="R" horiz-adv-x="698" 
d="M668 20v-22q-31 2 -93 2q-7 0 -31 -1t-35 -1q-52 59 -91 113.5t-127 195.5h-89v-177q0 -41 4 -63.5t18 -33t27 -12t46 -1.5v-22q-4 0 -56 1t-82 1q-42 0 -126 -2v22q36 0 50.5 4.5t23.5 27.5t9 76v388q0 69 -14 90t-66 22v22q4 0 38 -1t63 -1t80 1t56 1q111 0 166 -37
q69 -46 69 -124q0 -40 -13.5 -70.5t-38 -49.5t-39.5 -26.5t-39 -16.5q109 -176 186 -256q45 -47 104 -50zM202 618v-278q34 -6 58 -6q43 0 76 15.5t50 39.5t25 48t8 46q0 58 -42.5 99t-110.5 41q-30 0 -64 -5z" />
    <glyph glyph-name="S" unicode="S" horiz-adv-x="479" 
d="M393 540h-17q-26 95 -121 95q-56 0 -88.5 -32.5t-32.5 -79.5q0 -30 10.5 -53.5t33 -42t40.5 -29t50 -26.5q41 -20 66 -36t49.5 -39t35.5 -53t11 -68q0 -86 -65 -137.5t-162 -51.5q-83 0 -147 35q-7 63 -16 131h16q6 -17 10 -27.5t18 -34.5t29.5 -38t42.5 -26.5t60 -12.5
q61 0 97.5 36.5t36.5 90.5q0 29 -10.5 53t-32 42t-40.5 29.5t-49 26.5q-33 16 -53 28.5t-48 36.5t-41.5 57.5t-13.5 75.5q0 84 60 128t145 44q35 0 113 -12q1 -7 5 -39.5t8 -70.5z" />
    <glyph glyph-name="T" unicode="T" horiz-adv-x="698" 
d="M45 673h21q7 -12 13 -15q11 -8 39 -8h411q98 0 115 23h20q-1 -63 -6 -138h-21q0 21 -2.5 33t-10.5 24t-27 17.5t-50 5.5h-155v-444q0 -58 2.5 -87.5t15.5 -44.5t26 -17t47 -2v-22q-23 0 -69 1t-68 1t-67 -1t-67 -1v22q25 0 38 1t25.5 7t17 13t8.5 26t4.5 39t0.5 59v450
h-138q-43 0 -67 -10.5t-32.5 -25.5t-14.5 -44h-19q9 51 10 138z" />
    <glyph glyph-name="U" unicode="U" horiz-adv-x="698" 
d="M259 650v-22q-41 0 -57.5 -15t-16.5 -71v-305q0 -95 49 -156t145 -61q89 0 132.5 49.5t43.5 139.5v266q0 61 -1.5 88.5t-13.5 44t-26 18.5t-51 2v22q7 0 43.5 -1t60.5 -1q23 0 58 1t41 1v-22q-39 -1 -52.5 -24t-13.5 -97v-293q0 -52 -16 -93t-41 -65.5t-59.5 -40.5
t-67.5 -22t-69 -6q-114 0 -181 56.5t-67 173.5v345q0 44 -14.5 55t-52.5 11v22q7 0 46.5 -1t65.5 -1t66 1t49 1z" />
    <glyph glyph-name="V" unicode="V" horiz-adv-x="698" 
d="M268 650v-22q-17 0 -25.5 -0.5t-19 -2.5t-14.5 -7t-4 -14q0 -16 12 -50l166 -438l159 420q11 33 11 52q0 40 -74 40v22q8 0 44 -1t57 -1t51.5 1t38.5 1v-22q-15 0 -24.5 -3.5t-24.5 -20.5t-28 -50l-218 -554h-39l-202 532q-13 35 -25.5 55.5t-27.5 29t-25 10t-29 1.5v22
q9 0 53.5 -1t72.5 -1q30 0 70.5 1t44.5 1z" />
    <glyph glyph-name="W" unicode="W" horiz-adv-x="958" 
d="M252 650v-22q-55 0 -55 -26q0 -8 8 -32l162 -409q3 -11 14.5 -41t12.5 -31l69 151l35 74l-116 259q-16 35 -36 45t-51 10v22q5 0 44 -1t65 -1q27 0 64.5 1t41.5 1v-22q-47 0 -47 -26q0 -11 10.5 -37.5t67.5 -155.5q73 169 73 186q0 33 -58 33v22q3 0 38 -1t57 -1
q21 0 49 1t32 1v-22q-12 0 -19 -1t-17.5 -6t-21 -17.5t-20.5 -33.5l-98 -200l117 -273q11 35 57 164l103 294q9 36 9 44q0 29 -65 29v22q3 0 34 -1t52 -1t48 1t29 1v-22q-31 0 -42 -16t-46 -111l-186 -501h-32l-122 278q-19 -45 -35 -79l-95 -199h-34l-207 507
q-34 84 -51.5 102t-70.5 19v22q3 0 44 -1t71 -1t73 1t45 1z" />
    <glyph glyph-name="X" unicode="X" horiz-adv-x="750" 
d="M292 650v-22q-15 0 -22.5 -0.5t-18 -2t-15 -6t-4.5 -11.5q0 -17 20 -42l136 -178l119 153q32 40 32 61q0 9 -5 15t-16 8t-19 2.5t-22 0.5v22q7 0 47 -1t66 -1t65 1t45 1v-22q-44 0 -71 -13t-68 -64l-153 -193l179 -232q38 -49 64 -73t37.5 -28t31.5 -5v-22q-4 0 -47 1
t-73 1q-31 0 -73.5 -1t-45.5 -1v22q54 0 54 20q0 13 -17 36l-162 214l-146 -192q0 -1 -4.5 -7.5t-9 -13.5t-8.5 -16t-4 -15q0 -12 11.5 -18t24 -7t34.5 -1v-22q-54 2 -118 2q-62 0 -106 -2v22q24 0 39 3t43 23.5t59 60.5l163 212l-181 236q-37 47 -58.5 60t-58.5 13v22
q7 0 51 -1t74 -1q29 0 75 1t56 1z" />
    <glyph glyph-name="Y" unicode="Y" horiz-adv-x="698" 
d="M261 650v-22q-53 0 -53 -21q0 -15 17 -38l151 -207l136 186q23 33 23 50q0 30 -59 30v22q6 0 40 -1t57 -1q24 0 57.5 1t36.5 1v-22q-16 0 -26.5 -2t-28 -15t-36.5 -37l-186 -246v-229q0 -27 6.5 -43.5t20 -24t26 -9.5t33.5 -2v-22q-2 0 -48 1t-79 1q-34 0 -81.5 -1
t-49.5 -1v22q25 0 37 1.5t25.5 9t18.5 24t5 44.5v219l-165 224q-40 55 -60.5 70t-48.5 16v22q3 0 44 -1t70 -1t70.5 1t46.5 1z" />
    <glyph glyph-name="Z" unicode="Z" horiz-adv-x="698" 
d="M89 659h18q10 -7 11 -7q10 -4 23 -4h499l-472 -612h341q31 0 55.5 10t41 29.5t26.5 36.5t20 42l17 -4q-4 -15 -18 -64t-24 -88q-138 2 -302 2q-189 0 -295 -2l478 617h-294q-35 0 -59.5 -7.5t-39 -23.5t-21.5 -30.5t-15 -39.5h-18q19 82 28 145z" />
    <glyph glyph-name="bracketleft" unicode="[" horiz-adv-x="323" 
d="M104 656h171v-22q-104 -6 -108 -8q-15 -8 -15 -68v-653q0 -50 12 -55t111 -9v-22h-171q2 188 2 265v388q0 153 -2 184z" />
    <glyph glyph-name="backslash" unicode="\" horiz-adv-x="281" 
d="M40 721l240 -721h-39l-240 721h39z" />
    <glyph glyph-name="bracketright" unicode="]" horiz-adv-x="323" 
d="M219 -181h-171v22q104 6 108 8q15 8 15 68v653q0 50 -12 55t-111 9v22h171q-2 -188 -2 -265v-388q0 -153 2 -184z" />
    <glyph glyph-name="asciicircum" unicode="^" horiz-adv-x="469" 
d="M243 648l208 -350h-55l-161 274l-162 -274h-55l211 350h14z" />
    <glyph glyph-name="underscore" unicode="_" horiz-adv-x="500" 
d="M-6 -125v50h512v-50h-512z" />
    <glyph glyph-name="grave" unicode="`" horiz-adv-x="333" 
d="M131 704l104 -221l-13 -7l-131 205z" />
    <glyph glyph-name="a" unicode="a" horiz-adv-x="479" 
d="M366 323v-235q0 -52 36 -52q16 0 36 11l6 -16q-52 -44 -84 -44q-57 0 -64 65q-32 -23 -49.5 -34t-44 -21t-53.5 -10q-45 0 -71.5 24t-26.5 61q0 46 47 75q42 26 194 79q0 91 -5 105q-8 20 -28.5 33t-47.5 13q-16 0 -31 -3.5t-32 -20t-19 -45.5q-1 -8 -2 -11.5t-6.5 -8.5
t-18.5 -10q-17 -7 -25 -7q-14 0 -14 14q0 11 8.5 29.5t15.5 25.5q8 8 33 25t70 36.5t81 19.5q42 0 68.5 -27t26.5 -71zM293 78v127q-110 -37 -139.5 -55.5t-29.5 -56.5q0 -32 21 -49.5t50 -17.5q44 0 98 52z" />
    <glyph glyph-name="b" unicode="b" 
d="M164 712v-362q74 71 153 71q68 0 119.5 -55t51.5 -138q0 -94 -66 -167.5t-166 -73.5q-66 0 -134 27l-28 -14l-10 5q8 88 8 140v465q0 16 -4.5 26.5t-14 14.5t-14.5 5t-15 2v18q41 13 93 37q17 8 20 8q7 0 7 -9zM164 328v-215q0 -34 32 -69t84 -35q58 0 96.5 48.5
t38.5 122.5q0 86 -51 139t-102 53q-53 0 -98 -44z" />
    <glyph glyph-name="c" unicode="c" horiz-adv-x="427" 
d="M388 95l14 -12q-80 -96 -173 -96q-69 0 -129 54t-60 145q0 96 65.5 165.5t170.5 69.5q44 0 81.5 -14t37.5 -45q0 -15 -10 -27t-26 -12q-12 0 -17 4t-18 23q-30 44 -87 44t-91 -47.5t-34 -113.5q0 -84 53 -134t113 -50q58 0 110 46z" />
    <glyph glyph-name="d" unicode="d" 
d="M440 704v-620q0 -34 3.5 -41t21.5 -7q5 0 20 1t19 1v-15q-5 -1 -33.5 -9t-54.5 -15.5t-29 -8.5q-3 -3 -10 -3q-6 0 -6 8v63q-77 -71 -152 -71q-72 0 -127 54t-55 141q0 103 75.5 171t169.5 68q41 0 86 -16v206q0 21 -12 30.5t-51 25.5v13q43 11 90 29q1 0 16 6t16 6
q13 0 13 -17zM368 113v194q0 36 -30 62t-79 26q-65 0 -106 -50t-41 -125q0 -76 44.5 -129t118.5 -53q13 0 26 2.5t29.5 9t27 23t10.5 40.5z" />
    <glyph glyph-name="e" unicode="e" horiz-adv-x="427" 
d="M388 104l13 -12q-24 -30 -42.5 -49t-55 -37.5t-78.5 -18.5q-31 0 -61.5 10.5t-60 32.5t-48 64.5t-18.5 99.5q0 108 60.5 167.5t141.5 59.5q69 0 112 -40.5t43 -95.5q0 -13 -3 -17t-11 -4q-14 0 -88.5 2t-86.5 2q-38 0 -94 -2q-3 -61 10 -106t31 -66.5t43.5 -34t39 -14.5
t25.5 -2q64 0 128 61zM110 292h188q18 0 18 26q0 36 -23.5 58.5t-62.5 22.5q-91 0 -120 -107z" />
    <glyph glyph-name="f" unicode="f" horiz-adv-x="323" 
d="M174 503v-96h132v-44h-132v-249q0 -25 0.5 -39.5t5.5 -26t9 -16t19 -8t27 -4t40 -0.5v-22q-9 0 -64 1t-67 1q-14 0 -54.5 -1t-59.5 -1v22q44 0 57.5 7.5t13.5 34.5v301h-62v13q38 20 62 45q1 36 2.5 57.5t8.5 58t25 69t47 60.5q55 55 114 55q24 0 36 -12t12 -29
q0 -16 -11.5 -28t-22.5 -12q-7 0 -19 9q-18 13 -40 13q-54 0 -70 -49q-9 -30 -9 -110z" />
    <glyph glyph-name="g" unicode="g" horiz-adv-x="479" 
d="M401 394h68v-40q-64 0 -106 8q30 -41 30 -86q0 -58 -50 -98.5t-122 -40.5q-6 0 -21 2t-21 2q-12 0 -25.5 -16.5t-13.5 -32.5q0 -43 86 -43q9 0 56 1.5t55 1.5q27 0 46.5 -2.5t42.5 -10.5t35.5 -27.5t12.5 -48.5q0 -73 -78.5 -123.5t-180.5 -50.5q-73 0 -123 27t-50 76
q0 64 113 98v2q-42 7 -65.5 30.5t-23.5 49.5q0 25 17 36q17 13 66 41q-93 47 -93 125q0 58 47 100.5t131 42.5q31 0 71 -11q41 -12 96 -12zM228 159q44 0 67 34t23 81q0 55 -27.5 88t-69.5 33q-41 0 -65.5 -32t-24.5 -82q0 -58 29 -90t68 -32zM246 -183q67 0 119 28t52 73
q0 39 -35 54t-119 15q-104 0 -133 -30q-21 -21 -21 -50q0 -40 40.5 -65t96.5 -25z" />
    <glyph glyph-name="h" unicode="h" 
d="M35 659v15q43 12 70 22q6 2 15.5 6t22.5 10t20 9q7 0 7 -19v-359q43 39 76.5 58.5t70.5 19.5q55 0 90 -42t35 -120v-198q0 -27 11.5 -34t47.5 -7v-21h-30.5t-42.5 0.5t-29 0.5l-81 -1v21q26 0 38 6q13 8 13 121q0 122 -17.5 171t-78.5 49q-31 0 -53 -10.5t-50 -35.5v-260
q0 -29 11 -35t54 -6v-21q-125 2 -203 0v21q42 0 53.5 8t11.5 36v526q0 53 -62 69z" />
    <glyph glyph-name="i" unicode="i" horiz-adv-x="271" 
d="M172 421v-347q0 -37 9 -45.5t51 -8.5v-22q-32 2 -97 2q-70 0 -100 -2v22q42 0 53 5.5t11 31.5v258q0 35 -49 57v16q53 15 92 32q20 9 25 9t5 -8zM138 662q18 0 30.5 -12.5t12.5 -30.5t-12.5 -31t-30.5 -13t-31 13t-13 31t13 30.5t31 12.5z" />
    <glyph glyph-name="j" unicode="j" horiz-adv-x="271" 
d="M41 380l21 7q34 11 88 37q12 5 17 5q8 0 8 -10v-460q0 -38 -12.5 -66.5t-37 -46.5t-44.5 -27.5t-50 -18.5l-7 19q44 21 61 43t17 79v364q0 31 -13 41.5t-48 18.5v15zM138 662q18 0 30.5 -12.5t12.5 -30.5t-12.5 -31t-30.5 -13t-31 13t-13 31t13 30.5t31 12.5z" />
    <glyph glyph-name="k" unicode="k" 
d="M162 715v-487h28q8 8 41 38t61 55.5t30 28.5q7 7 7 15q0 19 -44 22v22q75 -2 92 -2q7 0 18.5 0.5t33 1t41.5 0.5v-22q-51 -2 -84 -30l-141 -116l156 -169q46 -51 102 -52v-22q-16 2 -55 2h-29h-53l-8 -2q-63 82 -180 209h-16v-135q0 -37 9 -44.5t51 -7.5v-22q-3 0 -40 1
t-62 1q-77 0 -95 -2v22q42 0 53 8.5t11 40.5v539q0 22 -12 33t-37 22v15q16 4 32.5 10t31.5 11.5t19 6.5q25 15 33 15q6 0 6 -6z" />
    <glyph glyph-name="l" unicode="l" horiz-adv-x="271" 
d="M174 707v-632q0 -39 10 -47t50 -8v-22q-30 2 -100 2q-24 0 -59 -1t-38 -1v22q43 0 53.5 10t10.5 54v529q0 17 -13 28.5t-45 27.5v15q77 17 108 30q15 7 18 7q5 0 5 -14z" />
    <glyph glyph-name="m" unicode="m" horiz-adv-x="802" 
d="M174 424v-69q37 25 56.5 36.5t46.5 20.5t55 9q82 0 102 -71q61 41 92.5 56t71.5 15q55 0 82.5 -33.5t27.5 -84.5v-234q0 -33 12 -41t50 -8v-22q-3 0 -38 1t-60 1q-24 0 -59.5 -1t-40.5 -1v22q41 0 52 6t11 29v201q0 61 -19.5 90t-67.5 29q-27 0 -47.5 -8.5t-59.5 -34.5
v-267q0 -30 11 -37.5t55 -7.5v-22q-5 0 -42.5 1t-61.5 1t-55.5 -1t-35.5 -1v22q35 0 45.5 5.5t10.5 23.5v223q0 52 -26 76.5t-61 24.5q-70 0 -107 -46v-235q0 -53 9 -63q9 -9 56 -9v-22q-8 2 -102 2q-59 0 -91 -2v22q34 0 44.5 8.5t10.5 39.5v234q0 52 -46 69v17q27 9 90 36
l22 9q7 0 7 -9z" />
    <glyph glyph-name="n" unicode="n" 
d="M167 425v-76q59 39 95 55.5t74 16.5q49 0 79.5 -33t30.5 -85v-247q0 -26 9 -31t43 -5v-22q-7 0 -21 0.5t-35 1t-36 0.5q-58 0 -92 -2v22q38 0 48.5 5.5t10.5 26.5v211q0 55 -18.5 83t-69.5 28q-61 0 -118 -46v-254q0 -39 10 -46.5t52 -7.5v-22q-36 2 -99 2q-62 0 -98 -2
v22q42 0 52 5t10 27v259q0 18 -8.5 27t-40.5 29v14q41 15 94 40q21 10 23 10q5 0 5 -6z" />
    <glyph glyph-name="o" unicode="o" 
d="M267 -13q-107 0 -166 66t-59 149q0 87 61 153t159 66q95 0 160.5 -62t65.5 -155q0 -95 -66 -156t-155 -61zM265 399q-66 0 -102.5 -54t-36.5 -129q0 -88 41.5 -147.5t105.5 -59.5q62 0 96.5 56.5t34.5 129.5q0 26 -6 57t-20 66t-43.5 58t-69.5 23z" />
    <glyph glyph-name="p" unicode="p" 
d="M147 428l8 1q7 0 7 -8v-71q30 24 46 35.5t46.5 23.5t60.5 12q70 0 120.5 -57t50.5 -135q0 -101 -75.5 -171.5t-160.5 -70.5q-38 0 -88 19v-171q0 -11 2.5 -16t16 -9t41.5 -4h27v-23q-3 0 -48 1t-74 1q-30 0 -68 -1t-39 -1v23q46 1 57.5 5.5t11.5 23.5v479q0 38 -52 50v15
q9 3 55.5 24.5t54.5 24.5zM162 326v-238q0 -37 39 -55.5t73 -18.5q62 0 99.5 53t37.5 123q0 74 -43 126.5t-108 52.5q-52 0 -98 -43z" />
    <glyph glyph-name="q" unicode="q" 
d="M433 430l10 -5v-577q0 -31 9.5 -37t52.5 -6v-22q-3 0 -40.5 1t-65.5 1q-21 0 -45.5 -0.5t-41.5 -1t-20 -0.5v22l48 1q19 2 24.5 10t5.5 34v189q-72 -52 -141 -52q-84 0 -134.5 55t-50.5 137q0 95 68.5 168.5t167.5 73.5q49 0 107 -28zM370 59v255q0 26 -30 55.5t-82 29.5
q-64 0 -102.5 -55.5t-38.5 -122.5q0 -80 49 -135t120 -55q41 0 84 28z" />
    <glyph glyph-name="r" unicode="r" horiz-adv-x="375" 
d="M178 420v-95h2q61 96 129 96q19 0 31 -11t12 -32q0 -22 -12.5 -35.5t-31.5 -13.5q-10 0 -24 9q-16 10 -34 10q-31 0 -51.5 -24t-20.5 -46v-209q0 -29 11 -39t57 -10h29v-22q-4 0 -52.5 1t-78.5 1q-78 0 -106 -2v22q16 0 24.5 0.5t20 3t17 8.5t5.5 16v253q0 22 -7.5 31
t-40.5 29v12q38 17 82 42q27 16 30 16q9 0 9 -11z" />
    <glyph glyph-name="s" unicode="s" horiz-adv-x="375" 
d="M305 401l6 -91h-20q-7 31 -21.5 51.5t-32.5 27.5t-27.5 9t-17.5 2q-33 0 -55.5 -20t-22.5 -47q0 -26 22 -46.5t74 -40.5q70 -28 96.5 -58t26.5 -71q0 -57 -44 -93.5t-110 -36.5q-58 0 -121 33q-6 62 -10 99l15 6q7 -22 13 -35.5t20 -34t36 -31.5t52 -11q39 0 61 19t22 52
q0 27 -18.5 47t-72.5 41q-56 23 -88.5 51t-32.5 77q0 52 39 86.5t105 34.5q51 0 106 -20z" />
    <glyph glyph-name="t" unicode="t" horiz-adv-x="323" 
d="M145 495h14q0 -19 -2 -53q0 -4 -0.5 -17t-0.5 -18h143v-44h-143v-224q0 -106 63 -106q28 0 66 23l9 -12q-54 -57 -116 -57q-27 0 -46 8.5t-28 19t-14.5 28.5t-6 29t-0.5 28q0 115 4 263h-58v13q73 59 116 119z" />
    <glyph glyph-name="u" unicode="u" 
d="M164 400v-273q0 -46 22 -70.5t63 -24.5q63 0 118 60v261q-45 18 -74 27v17q6 1 40.5 5.5t65 8.5t34.5 4q8 0 8 -14l-1 -364q0 -10 15 -9l48 2v-18l-72 -14q-47 -10 -49 -10h-15v76q-100 -77 -170 -77q-49 0 -77.5 32t-28.5 83v232q0 20 -10.5 32.5t-19 16t-21.5 5.5v19
q70 2 83 5q3 0 18 2l15 1q6 0 7 -2.5t1 -12.5z" />
    <glyph glyph-name="v" unicode="v" horiz-adv-x="479" 
d="M211 409v-22q-50 -3 -50 -27q0 -14 5 -22l94 -247l79 194q18 43 18 66q0 34 -52 36v22q12 0 36.5 -1t36.5 -1t37 1t38 1v-22q-43 -3 -63 -51l-145 -348h-21l-137 356q-15 41 -60 43v22q66 -2 88 -2q8 0 20 0.5t33.5 1t42.5 0.5z" />
    <glyph glyph-name="w" unicode="w" horiz-adv-x="750" 
d="M204 409v-22q-12 0 -18.5 -1t-13.5 -2.5t-9.5 -5t-2.5 -8.5q0 -10 9 -37l97 -246l80 196q9 25 9 39q0 7 -1.5 14t-6.5 20t-20.5 21.5t-38.5 9.5v22q38 -2 86 -2q21 0 101 2v-22q-20 -1 -29 -2t-15.5 -5t-6.5 -13q0 -21 9 -34l96 -246l74 183q22 55 22 85q0 21 -13.5 26.5
t-42.5 5.5v22q2 0 33 -1t49 -1t40 1t27 1v-22q-27 -1 -42 -23t-46 -100l-111 -276l-25 -6l-119 301l-120 -295l-24 -6l-132 336q-17 42 -29 55t-39 14v22q74 -2 82 -2q31 0 91 2z" />
    <glyph glyph-name="x" unicode="x" 
d="M44 409q2 0 35.5 -1t57.5 -1q23 0 57 1t41 1v-22q-43 -2 -43 -15q0 -4 10 -21l83 -103l83 92q12 17 12 24q0 19 -42 23v22q14 0 41 -1t40 -1q14 0 43 1t43 1v-22q-62 -3 -101 -47l-102 -114l125 -158q25 -31 42 -39.5t36 -8.5v-22q-3 0 -39 1t-62 1t-62 -1t-37 -1v22
q51 0 51 15q0 9 -10 21l-91 115l-88 -99l-4 -5q-4 -5 -7.5 -9.5t-6.5 -11t-3 -10.5q0 -16 50 -16v-22q-2 0 -35 1t-55 1t-50.5 -1t-29.5 -1v22q38 0 57.5 9t49.5 43l105 121l-132 163q-23 29 -62 31v22z" />
    <glyph glyph-name="y" unicode="y" horiz-adv-x="479" 
d="M20 409q3 0 35.5 -1t55.5 -1t55.5 1t35.5 1v-22q-16 -1 -22.5 -1.5t-16 -6t-9.5 -16.5q0 -15 5 -22l93 -234l81 189q15 30 15 57q0 31 -53 34v22q12 0 37.5 -1t38.5 -1t38 1t38 1v-22q-27 -2 -41.5 -13.5t-29.5 -46.5l-195 -450q-16 -36 -23 -50t-19 -24.5t-27 -10.5
q-19 0 -33.5 12t-14.5 33q0 19 12 33t34 14q14 0 28 -6q6 -3 10 -3q2 0 8 12l55 129l-126 314q-16 39 -29 48t-36 9v22z" />
    <glyph glyph-name="z" unicode="z" horiz-adv-x="427" 
d="M58 430h19l3 -6q3 -5 5 -7q8 -8 20 -8h277l-249 -386q178 4 193 11q10 4 26 29q11 20 33 55l16 -3l-22 -115h-344l244 381q-145 2 -162 -3q-19 -5 -30 -20t-23 -45h-18z" />
    <glyph glyph-name="braceleft" unicode="{" horiz-adv-x="480" 
d="M410 -197v-16q-86 11 -134.5 67.5t-48.5 120.5q0 37 10 77q12 54 12 77q0 29 -26 61.5t-85 41.5v19q59 8 85 41t26 63q0 28 -12 76q-10 42 -10 78q0 62 48.5 119t134.5 69v-18q-50 -12 -80 -41t-30 -72q0 -37 12 -79q10 -32 10 -77q0 -15 -5 -33t-18 -43.5t-44.5 -49.5
t-76.5 -40v-2q72 -26 108 -73.5t36 -95.5q0 -37 -10 -77q-12 -42 -12 -80q0 -9 2.5 -19t11 -30t33.5 -37t63 -27z" />
    <glyph glyph-name="bar" unicode="|" horiz-adv-x="198" 
d="M119 721v-929h-40v929h40z" />
    <glyph glyph-name="braceright" unicode="}" horiz-adv-x="480" 
d="M70 680v16q86 -11 134.5 -67.5t48.5 -120.5q0 -37 -10 -77q-12 -54 -12 -77q0 -29 26 -61.5t85 -41.5v-19q-59 -8 -85 -41t-26 -63q0 -28 12 -76q10 -42 10 -78q0 -62 -48.5 -119t-134.5 -69v18q50 12 80 41t30 72q0 37 -12 79q-10 32 -10 77q0 15 5 33t18 43.5
t44.5 49.5t76.5 40v2q-72 26 -108 73.5t-36 95.5q0 37 10 77q12 42 12 80q0 9 -2.5 19t-11 30t-33.5 37t-63 27z" />
    <glyph glyph-name="asciitilde" unicode="~" horiz-adv-x="563" 
d="M512 389h30q-1 -67 -35 -110q-34 -42 -84 -42q-39 0 -131 37q-21 9 -47 19.5t-36.5 14.5t-24 9t-20.5 7t-14.5 3t-15.5 1q-38 0 -58 -30t-25 -60h-30q4 81 37.5 116t74.5 35q46 0 192 -61q71 -30 105 -30q73 0 82 91z" />
    <glyph glyph-name="uni00A0" unicode="&#xa0;" horiz-adv-x="240" 
 />
    <glyph glyph-name="exclamdown" unicode="&#xa1;" horiz-adv-x="271" 
d="M124 250h22q45 -277 45 -334q0 -90 -54 -90q-56 0 -56 81q0 105 43 343zM133 429q25 0 40.5 -16.5t15.5 -39.5q0 -22 -16 -38t-39 -16t-39 16t-16 39t16.5 39t37.5 16z" />
    <glyph glyph-name="cent" unicode="&#xa2;" horiz-adv-x="427" 
d="M351 659h26l-82 -240q100 -11 100 -58q0 -16 -10 -27t-25 -11t-32 21q-22 28 -46 38l-104 -297q2 -1 8 -5t9 -5.5t9 -5t10 -5.5t10.5 -5t12 -4.5t12.5 -3t14 -2t15 -0.5q55 0 111 44l12 -11q-72 -95 -171 -95q-36 0 -80 19l-87 -250h-26l91 264q-88 61 -88 166
q0 59 27 110.5t75 83.5q51 35 126 39zM162 104l101 287q-12 3 -28 3q-48 0 -85 -46.5t-37 -114.5q0 -76 49 -129z" />
    <glyph glyph-name="sterling" unicode="&#xa3;" 
d="M285 379h127l-5 -34h-128q-22 -133 -104 -244q40 5 54 5q46 0 113 -46q45 -33 71 -33q24 0 39 15.5t15 36.5q0 22 -22 31q-15 7 -15 18q0 10 9 18t22 8q38 0 38 -50q0 -53 -38.5 -85t-92.5 -32q-60 0 -130 55q-43 33 -76 35q-10 -16 -23.5 -33t-34 -35t-34.5 -18t-14 16
q0 10 6.5 25.5t29.5 35.5t58 29q16 32 23 67t28 181h-110l7 34h109q8 58 16 95t32.5 93t61.5 92q24 24 60 40t66 16q29 0 52.5 -14.5t23.5 -38.5q0 -17 -10.5 -27t-25.5 -10q-12 0 -15 5t-5 21q-2 12 -14.5 23t-32.5 11q-15 0 -28 -5.5t-24 -19.5t-19 -27.5t-16 -39.5
t-13 -44t-11.5 -53.5t-9.5 -55.5t-10 -61z" />
    <glyph glyph-name="currency" unicode="&#xa4;" horiz-adv-x="499" 
d="M463 174l-30 -31l-66 65q-56 -41 -118 -41q-63 0 -118 41l-66 -65l-30 31l66 64q-40 60 -40 116q0 61 40 116l-66 65l30 31l66 -65q60 41 118 41q60 0 117 -41l67 65l30 -31l-66 -65q41 -56 41 -116q0 -57 -41 -116zM394 355q0 62 -44 103t-100 41q-61 0 -103.5 -42.5
t-42.5 -101.5t43 -102.5t102 -43.5t102 43.5t43 102.5z" />
    <glyph glyph-name="yen" unicode="&#xa5;" horiz-adv-x="698" 
d="M298 328l-159 214q-41 55 -60.5 70t-48.5 16v22q2 0 42.5 -1t70.5 -1t72.5 1t45.5 1v-22q-53 0 -53 -21q0 -15 17 -38l151 -207l136 186q23 33 23 50q0 30 -59 30v22q3 0 39.5 -1t60.5 -1q25 0 58 1l33 1v-22q-16 0 -26.5 -2t-28 -15t-36.5 -37l-186 -246h217v-28h-217
v-100h217v-28h-217v-73q0 -27 6.5 -43.5t20 -24t26 -9.5t33.5 -2v-22q-4 0 -49.5 1t-78.5 1t-80.5 -1t-49.5 -1v22q49 0 67.5 13.5t18.5 65.5v73h-225v28h225v100h-225v28h219z" />
    <glyph glyph-name="brokenbar" unicode="&#xa6;" horiz-adv-x="198" 
d="M119 96v-304h-40v304h40zM119 721v-304h-40v304h40z" />
    <glyph glyph-name="section" unicode="&#xa7;" horiz-adv-x="427" 
d="M101 281q-45 83 -45 152q0 84 58 153.5t143 69.5q41 0 77 -16.5t36 -44.5q0 -13 -10.5 -25t-23.5 -12q-22 0 -47 34q-27 37 -58 37q-30 0 -47.5 -24.5t-17.5 -59.5q0 -48 23.5 -94.5t129.5 -208.5q68 -103 68 -194q0 -94 -62 -161.5t-149 -67.5q-47 0 -84.5 21.5
t-37.5 50.5q0 14 10.5 25.5t26.5 11.5q25 0 45 -38q14 -25 26 -34.5t31 -9.5q36 0 57.5 30t21.5 74q0 54 -31 109q-10 18 -70.5 111.5t-69.5 110.5zM152 589l-2 2q-59 -66 -59 -148q0 -35 14.5 -74t29.5 -65.5t47 -74.5q69 -106 94 -156t25 -100q0 -36 -22 -94l2 -2
q71 75 71 165q0 45 -22.5 95t-93.5 158q-57 87 -78 132t-21 91q0 38 15 71z" />
    <glyph glyph-name="dieresis" unicode="&#xa8;" horiz-adv-x="333" 
d="M79 605q19 0 31 -12.5t12 -29.5t-12.5 -29.5t-29.5 -12.5t-29.5 12.5t-12.5 29.5q0 18 12.5 30t28.5 12zM253 605q19 0 31 -12.5t12 -29.5t-12 -29.5t-30 -12.5q-17 0 -29.5 12.5t-12.5 29.5q0 18 12.5 30t28.5 12z" />
    <glyph glyph-name="copyright" unicode="&#xa9;" horiz-adv-x="760" 
d="M551 539l10 -137h-19q-5 14 -8 23t-15 28.5t-26.5 31.5t-40.5 22t-58 10q-71 0 -114 -50.5t-43 -139.5q0 -18 1 -34t9.5 -49.5t24 -56.5t48.5 -42t79 -19q96 0 152 79l19 -10q-69 -99 -188 -99q-99 0 -162.5 64.5t-63.5 152.5q0 93 67.5 159.5t175.5 66.5q34 0 91 -18
q10 -4 18 -4q14 0 24 22h19zM380 662q143 0 244.5 -101t101.5 -245q0 -143 -101.5 -244.5t-244.5 -101.5t-244.5 101.5t-101.5 244.5q0 144 101.5 245t244.5 101zM380 632q-131 0 -223.5 -92.5t-92.5 -223.5t92.5 -223.5t223.5 -92.5t223.5 92.5t92.5 223.5t-92.5 223.5
t-223.5 92.5z" />
    <glyph glyph-name="ordfeminine" unicode="&#xaa;" horiz-adv-x="323" 
d="M250 601v-172q0 -26 24 -26q11 0 23 7l8 -13q-31 -31 -64 -31q-39 0 -44 41q-53 -42 -96 -42q-26 0 -46.5 14t-20.5 45q0 32 24.5 47t138.5 60v47q0 23 -16.5 36t-36.5 13q-16 0 -30 -7.5t-18 -17.5q0 -1 -1.5 -9t-2.5 -14.5t-2 -7.5q-18 -15 -37 -15q-11 0 -11 11
q0 35 52.5 65t89.5 30q26 0 46 -18.5t20 -42.5zM197 430v80q-49 -14 -74.5 -27.5t-30.5 -22.5t-5 -22q0 -21 14 -31t32 -10q31 0 64 33z" />
    <glyph glyph-name="guillemotleft" unicode="&#xab;" horiz-adv-x="479" 
d="M384 367l13 -12l-93 -135l95 -137l-13 -10l-153 147zM231 367l13 -12l-93 -135l95 -137l-13 -10l-153 147z" />
    <glyph glyph-name="logicalnot" unicode="&#xac;" horiz-adv-x="667" 
d="M69 463h529v-292h-61v231h-468v61z" />
    <glyph glyph-name="uni00AD" unicode="&#xad;" horiz-adv-x="323" 
d="M281 253l-12 -59q-40 1 -71 1l-42 -1h-114l12 59q114 -1 227 0z" />
    <glyph glyph-name="registered" unicode="&#xae;" horiz-adv-x="760" 
d="M304 500v-175h15q29 0 54 6t47.5 27t22.5 56q0 38 -27 65.5t-71 27.5q-20 0 -41 -7zM188 529h189q67 0 106 -30.5t39 -78.5q0 -81 -109 -109l103 -145q14 -19 25.5 -29t17.5 -11.5t16 -2.5v-17h-90l-144 198h-37v-151q0 -9 9.5 -18.5t24.5 -10.5q8 -1 24 -1v-17h-179v17
q19 0 29.5 3t15 13t5.5 19.5t1 31.5v256q0 29 -2 40t-11.5 18t-32.5 7v18zM380 632q-131 0 -223.5 -92.5t-92.5 -223.5t92.5 -223.5t223.5 -92.5t223.5 92.5t92.5 223.5t-92.5 223.5t-223.5 92.5zM380 662q143 0 244.5 -101t101.5 -245q0 -143 -101.5 -244.5t-244.5 -101.5
t-244.5 101.5t-101.5 244.5q0 144 101.5 245t244.5 101z" />
    <glyph glyph-name="macron" unicode="&#xaf;" horiz-adv-x="333" 
d="M18 595h297v-44h-297v44z" />
    <glyph glyph-name="degree" unicode="&#xb0;" horiz-adv-x="400" 
d="M200 662q62 0 106 -44t44 -106t-44 -106t-106 -44t-106 44t-44 106t44 106t106 44zM200 613q-42 0 -71.5 -29.5t-29.5 -71.5t29.5 -71.5t71.5 -29.5t71.5 29.5t29.5 71.5t-29.5 71.5t-71.5 29.5z" />
    <glyph glyph-name="plusminus" unicode="&#xb1;" horiz-adv-x="667" 
d="M69 431h234v234h61v-234h234v-61h-234v-234h-61v234h-234v61zM69 61h529v-61h-529v61z" />
    <glyph glyph-name="two.superior" unicode="&#xb2;" horiz-adv-x="323" 
d="M183 393l80 1l19 37h18l-23 -95h-238v15q77 74 114 124.5t37 94.5q0 22 -14.5 40.5t-41.5 18.5q-30 0 -58 -24l-11 15q62 54 112 54q34 0 55.5 -23t21.5 -53q0 -29 -18 -61t-40.5 -58t-78.5 -85q31 -1 66 -1z" />
    <glyph glyph-name="three.superior" unicode="&#xb3;" horiz-adv-x="323" 
d="M114 497v24q87 17 87 73q0 20 -15 33.5t-40 13.5q-29 0 -71 -22l-10 16q59 39 108 39q33 0 59.5 -16t26.5 -47q0 -33 -24 -52.5t-64 -36.5v-2q112 0 112 -76q0 -51 -43 -82.5t-105 -31.5q-42 0 -68.5 15t-26.5 35q0 6 9.5 13.5t16.5 7.5t12 -14q17 -38 57 -38q31 0 57 23
t26 60q0 29 -17.5 45.5t-31.5 19t-28 2.5q-11 0 -27 -2z" />
    <glyph glyph-name="acute" unicode="&#xb4;" horiz-adv-x="333" 
d="M202 704l40 -23l-131 -205l-13 7z" />
    <glyph glyph-name="mu" unicode="&#xb5;" horiz-adv-x="501" 
d="M58 409h73v-222q0 -74 14.5 -107.5t61.5 -33.5q63 0 123 66v297h73v-281q0 -33 1.5 -49.5t9 -28t22.5 -11.5q31 0 40 60h20q-9 -112 -97 -112q-12 0 -22 3t-17 7t-12 11.5t-8 13t-5 15.5t-2.5 14.5t-1.5 15t-1 12.5q-77 -92 -161 -92q-21 0 -37 7.5t-22.5 14t-15.5 19.5
h-2q0 -49 10 -104q14 -79 14 -86q0 -19 -12 -36.5t-34 -17.5q-24 0 -33.5 18t-9.5 35q0 19 22 112q9 36 9 144v316z" />
    <glyph glyph-name="paragraph" unicode="&#xb6;" horiz-adv-x="453" 
d="M472 648v-19h-21q-41 0 -49.5 -19.5t-8.5 -82.5v-742h-37v835h-94v-835h-37v481q-135 5 -187 52q-57 52 -57 140q0 84 58.5 137t169.5 53h263z" />
    <glyph glyph-name="periodcentered" unicode="&#xb7;" horiz-adv-x="271" 
d="M136 378q26 0 43 -18t17 -42q0 -25 -17 -42.5t-42 -17.5q-24 0 -42.5 18t-18.5 42q0 25 19 42.5t41 17.5z" />
    <glyph glyph-name="cedilla" unicode="&#xb8;" horiz-adv-x="354" 
d="M190 4h32l-53 -54q31 -2 50.5 -18t24 -30t4.5 -27q0 -33 -26 -57t-67 -24q-31 0 -53.5 14.5t-22.5 35.5q0 8 5 14.5t14 6.5q13 0 23 -22q13 -31 38 -31q19 0 31.5 12.5t12.5 33.5q0 23 -18 39.5t-57 11.5l-7 9z" />
    <glyph glyph-name="one.superior" unicode="&#xb9;" horiz-adv-x="323" 
d="M187 674h18v-301q0 -10 11.5 -13t63.5 -8v-18q-21 0 -59.5 1t-45.5 1q-4 0 -51 -1t-59 -1v18q1 0 34 4t35 5q8 2 8 17v237q-28 -17 -69 -37l-8 19q94 55 122 77z" />
    <glyph glyph-name="ordmasculine" unicode="&#xba;" horiz-adv-x="365" 
d="M179 662q71 0 113.5 -44.5t42.5 -103.5q0 -61 -43 -105t-110 -44t-109.5 43.5t-42.5 104.5q0 64 43.5 106.5t105.5 42.5zM182 642q-47 0 -68.5 -37t-21.5 -83q0 -61 29 -99t68 -38q33 0 58.5 34t25.5 90q0 60 -27.5 96.5t-63.5 36.5z" />
    <glyph glyph-name="guillemotright" unicode="&#xbb;" horiz-adv-x="479" 
d="M95 367l151 -147l-153 -147l-13 10l95 137l-93 135zM248 367l151 -147l-153 -147l-13 10l95 137l-93 135z" />
    <glyph glyph-name="onequarter" unicode="&#xbc;" horiz-adv-x="958" 
d="M708 328h41v-201h71v-50h-71v-87h-60v87h-142v47zM689 127v139h-2l-106 -139h108zM687 674h50l-448 -692h-51zM281 674h18v-301q0 -10 11.5 -13t63.5 -8v-18q-21 0 -59.5 1t-45.5 1q-4 0 -51 -1t-59 -1v18q1 0 34 4t35 5q8 2 8 17v237q-28 -17 -69 -37l-8 19
q94 55 122 77z" />
    <glyph glyph-name="onehalf" unicode="&#xbd;" horiz-adv-x="958" 
d="M710 47l80 1l19 37h18l-23 -95h-238v15q77 74 114 124.5t37 94.5q0 22 -14.5 40.5t-41.5 18.5q-30 0 -58 -24l-11 15q62 54 112 54q34 0 55.5 -23t21.5 -53q0 -29 -18 -61t-40.5 -58t-78.5 -85q31 -1 66 -1zM687 674h50l-448 -692h-51zM281 674h18v-301q0 -10 11.5 -13
t63.5 -8v-18q-21 0 -59.5 1t-45.5 1q-4 0 -51 -1t-59 -1v18q1 0 34 4t35 5q8 2 8 17v237q-28 -17 -69 -37l-8 19q94 55 122 77z" />
    <glyph glyph-name="threequarters" unicode="&#xbe;" horiz-adv-x="958" 
d="M708 328h41v-201h71v-50h-71v-87h-60v87h-142v47zM689 127v139h-2l-106 -139h108zM215 497v24q87 17 87 73q0 20 -15 33.5t-40 13.5q-29 0 -71 -22l-10 16q58 39 108 39q33 0 59.5 -16t26.5 -47q0 -33 -24 -52.5t-64 -36.5v-2q112 0 112 -76q0 -51 -43 -82.5t-105 -31.5
q-42 0 -68.5 15t-26.5 35q0 6 9.5 13.5t16.5 7.5t12 -14q17 -38 57 -38q31 0 57 23t26 60q0 29 -17.5 45.5t-31.5 19t-28 2.5q-11 0 -27 -2zM687 674h50l-448 -692h-51z" />
    <glyph glyph-name="questiondown" unicode="&#xbf;" horiz-adv-x="375" 
d="M206 262h21q-1 -96 6 -160h-21q-26 0 -61.5 -10.5t-55.5 -30.5q-19 -18 -19 -53q0 -39 28 -70t67 -31q4 0 24.5 2t23.5 2q20 0 34 -11t14 -31q0 -21 -12.5 -31.5t-31.5 -10.5q-71 0 -128.5 76t-57.5 158q0 98 116 119q35 6 42.5 19t10.5 63zM201 430q25 0 40.5 -16.5
t15.5 -39.5q0 -22 -16 -38t-39 -16t-39 16t-16 39t16.5 39t37.5 16z" />
    <glyph glyph-name="Agrave" unicode="&#xc0;" horiz-adv-x="698" 
d="M353 677h15l184 -522q30 -85 48 -110t51 -25h19v-22q-72 2 -123 2t-119 -2v22h28q39 0 39 35q0 16 -5 26l-57 160h-219l-9 -22q-13 -31 -27 -84t-14 -76q0 -39 46 -39h38v-22q-106 2 -109 2t-111 -2v22q42 1 64.5 22.5t49.5 96.5l144 400q17 47 13 96q33 18 54 42z
M420 278l-98 283h-2l-95 -283h195zM314 931l104 -221l-13 -7l-131 205z" />
    <glyph glyph-name="Aacute" unicode="&#xc1;" horiz-adv-x="698" 
d="M353 677h15l184 -522q30 -85 48 -110t51 -25h19v-22q-72 2 -123 2t-119 -2v22h28q39 0 39 35q0 16 -5 26l-57 160h-219l-9 -22q-13 -31 -27 -84t-14 -76q0 -39 46 -39h38v-22q-106 2 -109 2t-111 -2v22q42 1 64.5 22.5t49.5 96.5l144 400q17 47 13 96q33 18 54 42z
M420 278l-98 283h-2l-95 -283h195zM385 931l40 -23l-131 -205l-13 7z" />
    <glyph glyph-name="Acircumflex" unicode="&#xc2;" horiz-adv-x="698" 
d="M353 677h15l184 -522q30 -85 48 -110t51 -25h19v-22q-72 2 -123 2t-119 -2v22h28q39 0 39 35q0 16 -5 26l-57 160h-219l-9 -22q-13 -31 -27 -84t-14 -76q0 -39 46 -39h38v-22q-106 2 -109 2t-111 -2v22q42 1 64.5 22.5t49.5 96.5l144 400q17 47 13 96q33 18 54 42z
M420 278l-98 283h-2l-95 -283h195zM350 932h7l110 -221l-14 -8l-100 143l-108 -143l-14 8z" />
    <glyph glyph-name="Atilde" unicode="&#xc3;" horiz-adv-x="698" 
d="M353 677h15l184 -522q30 -85 48 -110t51 -25h19v-22q-72 2 -123 2t-119 -2v22h28q39 0 39 35q0 16 -5 26l-57 160h-219l-9 -22q-13 -31 -27 -84t-14 -76q0 -39 46 -39h38v-22q-106 2 -109 2t-111 -2v22q42 1 64.5 22.5t49.5 96.5l144 400q17 47 13 96q33 18 54 42z
M420 278l-98 283h-2l-95 -283h195zM290 839q38 0 82 -43q35 -35 60 -35q17 0 27.5 8.5t10.5 17.5q0 6 -6 13q-8 10 -8 20q0 9 5.5 14t12.5 5q11 0 17.5 -9t6.5 -23q0 -30 -29 -52t-64 -22q-41 0 -87 45q-34 33 -58 33q-14 0 -24 -8.5t-10 -19.5q0 -8 8 -16q7 -9 7 -16
q0 -17 -17 -17q-23 0 -23 29q0 31 26 53.5t63 22.5z" />
    <glyph glyph-name="Adieresis" unicode="&#xc4;" horiz-adv-x="698" 
d="M353 677h15l184 -522q30 -85 48 -110t51 -25h19v-22q-72 2 -123 2t-119 -2v22h28q39 0 39 35q0 16 -5 26l-57 160h-219l-9 -22q-13 -31 -27 -84t-14 -76q0 -39 46 -39h38v-22q-106 2 -109 2t-111 -2v22q42 1 64.5 22.5t49.5 96.5l144 400q17 47 13 96q33 18 54 42z
M420 278l-98 283h-2l-95 -283h195zM262 832q19 0 31 -12.5t12 -29.5t-12.5 -29.5t-29.5 -12.5t-29.5 12.5t-12.5 29.5q0 18 12.5 30t28.5 12zM436 832q19 0 31 -12.5t12 -29.5t-12 -29.5t-30 -12.5q-17 0 -29.5 12.5t-12.5 29.5q0 18 12.5 30t28.5 12z" />
    <glyph glyph-name="Aring" unicode="&#xc5;" horiz-adv-x="698" 
d="M353 677h15l184 -522q30 -85 48 -110t51 -25h19v-22q-72 2 -123 2t-119 -2v22h28q39 0 39 35q0 16 -5 26l-57 160h-219l-9 -22q-13 -31 -27 -84t-14 -76q0 -39 46 -39h38v-22q-106 2 -109 2t-111 -2v22q42 1 64.5 22.5t49.5 96.5l144 400q17 47 13 96q33 18 54 42z
M420 278l-98 283h-2l-95 -283h195zM347 880q38 0 62.5 -25.5t24.5 -59.5q0 -35 -25 -60t-60 -25t-60 25t-25 60q0 36 25.5 60.5t57.5 24.5zM350 851q-30 0 -43.5 -18t-13.5 -38q0 -23 16 -39.5t40 -16.5q23 0 39.5 16t16.5 40t-17 40t-38 16z" />
    <glyph glyph-name="AE" unicode="&#xc6;" horiz-adv-x="958" 
d="M869 650l8 -132h-20q-4 22 -9.5 36t-17 32.5t-34.5 27.5t-56 9h-169v-270h163q39 0 49 19.5t10 61.5h22l-3 -100q0 -8 3 -96h-22q0 18 -1.5 29t-7 23.5t-18 19t-32.5 6.5h-163v-207q0 -40 21.5 -61t62.5 -21h110q32 0 57.5 10t42.5 29t25.5 33.5t18.5 35.5l19 -5
q-21 -78 -31 -132q-64 2 -234 2q-160 0 -266 -2v22q47 1 67.5 17.5t20.5 71.5v207h-181l-120 -215q-17 -30 -17 -54q0 -13 10 -19t21 -7t35 -1v-22q-42 2 -109 2q-71 0 -95 -2v22q23 0 36.5 3t36.5 22.5t45 59.5l246 441q24 43 24 59q0 23 -52 23v22q256 -2 504 0zM485 628
h-8l-153 -275h161v275z" />
    <glyph glyph-name="Ccedilla" unicode="&#xc7;" horiz-adv-x="698" 
d="M360 -92l-8 10l62 70q-44 3 -68.5 6.5t-71 21.5t-85.5 51q-55 46 -87 113t-32 142q0 139 100.5 239.5t260.5 100.5q116 0 228 -48l9 -125h-17q-9 48 -31 76q-55 70 -177 70q-59 0 -107 -18t-79 -46.5t-51.5 -67t-29 -77t-8.5 -77.5q0 -131 80.5 -232.5t203.5 -101.5
q19 0 42 4.5t57.5 18t62 47t37.5 82.5l17 -2l-17 -131q-91 -40 -205 -46l-44 -41q26 -3 43.5 -12.5t23.5 -22.5t7.5 -20t1.5 -14q0 -35 -28.5 -59t-69.5 -24q-32 0 -55 16t-23 35q0 8 6 15t15 7q7 0 11 -5.5t13 -29.5q11 -21 38 -21q22 0 33 15t11 32q0 19 -16 33.5
t-53 15.5z" />
    <glyph glyph-name="Egrave" unicode="&#xc8;" horiz-adv-x="583" 
d="M477 518l-16 -2q-8 105 -137 105h-129v-266h142q17 0 29.5 5t19 12t10 19t4.5 20.5t1 22.5h22q-2 -98 0 -201h-22q0 24 -1.5 36t-8.5 25.5t-23.5 18.5t-43.5 5h-129v-204q0 -52 27.5 -69.5t79.5 -17.5q129 0 160 14q26 12 41.5 33.5t33.5 59.5l16 -3q-15 -60 -32 -133
q-46 0 -128 1t-120 1q-41 0 -124 -1t-124 -1v22q42 0 63 17.5t21 67.5v454q0 44 -19.5 56.5t-64.5 12.5v22q36 0 112.5 -1t109.5 -1q29 0 100 1t127 1q3 -77 3 -132zM256 931l104 -221l-13 -7l-131 205z" />
    <glyph glyph-name="Eacute" unicode="&#xc9;" horiz-adv-x="583" 
d="M477 518l-16 -2q-8 105 -137 105h-129v-266h142q17 0 29.5 5t19 12t10 19t4.5 20.5t1 22.5h22q-2 -98 0 -201h-22q0 24 -1.5 36t-8.5 25.5t-23.5 18.5t-43.5 5h-129v-204q0 -52 27.5 -69.5t79.5 -17.5q129 0 160 14q26 12 41.5 33.5t33.5 59.5l16 -3q-15 -60 -32 -133
q-46 0 -128 1t-120 1q-41 0 -124 -1t-124 -1v22q42 0 63 17.5t21 67.5v454q0 44 -19.5 56.5t-64.5 12.5v22q36 0 112.5 -1t109.5 -1q29 0 100 1t127 1q3 -77 3 -132zM327 931l40 -23l-131 -205l-13 7z" />
    <glyph glyph-name="Ecircumflex" unicode="&#xca;" horiz-adv-x="583" 
d="M477 518l-16 -2q-8 105 -137 105h-129v-266h142q17 0 29.5 5t19 12t10 19t4.5 20.5t1 22.5h22q-2 -98 0 -201h-22q0 24 -1.5 36t-8.5 25.5t-23.5 18.5t-43.5 5h-129v-204q0 -52 27.5 -69.5t79.5 -17.5q129 0 160 14q26 12 41.5 33.5t33.5 59.5l16 -3q-15 -60 -32 -133
q-46 0 -128 1t-120 1q-41 0 -124 -1t-124 -1v22q42 0 63 17.5t21 67.5v454q0 44 -19.5 56.5t-64.5 12.5v22q36 0 112.5 -1t109.5 -1q29 0 100 1t127 1q3 -77 3 -132zM292 932h7l110 -221l-14 -8l-100 143l-108 -143l-14 8z" />
    <glyph glyph-name="Edieresis" unicode="&#xcb;" horiz-adv-x="583" 
d="M477 518l-16 -2q-8 105 -137 105h-129v-266h142q17 0 29.5 5t19 12t10 19t4.5 20.5t1 22.5h22q-2 -98 0 -201h-22q0 24 -1.5 36t-8.5 25.5t-23.5 18.5t-43.5 5h-129v-204q0 -52 27.5 -69.5t79.5 -17.5q129 0 160 14q26 12 41.5 33.5t33.5 59.5l16 -3q-15 -60 -32 -133
q-46 0 -128 1t-120 1q-41 0 -124 -1t-124 -1v22q42 0 63 17.5t21 67.5v454q0 44 -19.5 56.5t-64.5 12.5v22q36 0 112.5 -1t109.5 -1q29 0 100 1t127 1q3 -77 3 -132zM204 832q19 0 31 -12.5t12 -29.5t-12.5 -29.5t-29.5 -12.5t-29.5 12.5t-12.5 29.5q0 18 12.5 30t28.5 12z
M378 832q19 0 31 -12.5t12 -29.5t-12 -29.5t-30 -12.5q-17 0 -29.5 12.5t-12.5 29.5q0 18 12.5 30t28.5 12z" />
    <glyph glyph-name="Igrave" unicode="&#xcc;" horiz-adv-x="323" 
d="M285 650v-22q-21 0 -32.5 -1.5t-24 -6.5t-17.5 -17.5t-5 -33.5v-480q0 -44 19.5 -56.5t59.5 -12.5v-22q-23 0 -62 0.5t-60 1.5q-18 0 -125 -2v22q45 0 63.5 10.5t18.5 45.5v457q0 67 -15 81t-67 14v22q126 -2 128 -2q13 0 51.5 1t67.5 1zM126 931l104 -221l-13 -7
l-131 205z" />
    <glyph glyph-name="Iacute" unicode="&#xcd;" horiz-adv-x="323" 
d="M285 650v-22q-21 0 -32.5 -1.5t-24 -6.5t-17.5 -17.5t-5 -33.5v-480q0 -44 19.5 -56.5t59.5 -12.5v-22q-23 0 -62 0.5t-60 1.5q-18 0 -125 -2v22q45 0 63.5 10.5t18.5 45.5v457q0 67 -15 81t-67 14v22q126 -2 128 -2q13 0 51.5 1t67.5 1zM197 931l40 -23l-131 -205l-13 7
z" />
    <glyph glyph-name="Icircumflex" unicode="&#xce;" horiz-adv-x="323" 
d="M285 650v-22q-21 0 -32.5 -1.5t-24 -6.5t-17.5 -17.5t-5 -33.5v-480q0 -44 19.5 -56.5t59.5 -12.5v-22q-23 0 -62 0.5t-60 1.5q-18 0 -125 -2v22q45 0 63.5 10.5t18.5 45.5v457q0 67 -15 81t-67 14v22q126 -2 128 -2q13 0 51.5 1t67.5 1zM162 932h7l110 -221l-14 -8
l-100 143l-108 -143l-14 8z" />
    <glyph glyph-name="Idieresis" unicode="&#xcf;" horiz-adv-x="323" 
d="M285 650v-22q-21 0 -32.5 -1.5t-24 -6.5t-17.5 -17.5t-5 -33.5v-480q0 -44 19.5 -56.5t59.5 -12.5v-22q-23 0 -62 0.5t-60 1.5q-18 0 -125 -2v22q45 0 63.5 10.5t18.5 45.5v457q0 67 -15 81t-67 14v22q126 -2 128 -2q13 0 51.5 1t67.5 1zM74 832q19 0 31 -12.5t12 -29.5
t-12.5 -29.5t-29.5 -12.5t-29.5 12.5t-12.5 29.5q0 18 12.5 30t28.5 12zM248 832q19 0 31 -12.5t12 -29.5t-12 -29.5t-30 -12.5q-17 0 -29.5 12.5t-12.5 29.5q0 18 12.5 30t28.5 12z" />
    <glyph glyph-name="Eth" unicode="&#xd0;" horiz-adv-x="750" 
d="M35 650q15 0 64.5 -1t63.5 -1q25 0 90 1t90 1q147 0 246.5 -95t99.5 -229q0 -105 -55 -182t-141 -113q-78 -33 -216 -33q-36 0 -83 1t-52 1q-25 0 -63 -1t-47 -1v22q48 0 68.5 15.5t20.5 71.5v201h-86v37h86v214q0 23 -7 38t-21 21t-26.5 8t-31.5 2v22zM207 617v-272h151
v-37h-151v-198q0 -47 24.5 -66t87.5 -19q132 0 206 91q66 81 66 200q0 126 -78 213q-83 94 -227 94q-34 0 -79 -6z" />
    <glyph glyph-name="Ntilde" unicode="&#xd1;" horiz-adv-x="802" 
d="M771 650v-22q-25 0 -38 -3t-26.5 -15t-18.5 -39t-5 -72v-499h-26l-479 535v-334q0 -110 20 -144.5t94 -36.5v-22q-58 2 -126 2q-60 0 -118 -2l1 22q61 1 77.5 26.5t16.5 110.5v387q0 84 -112 84v22q70 -2 81 -2q9 0 36.5 1t44.5 0q37 -42 66.5 -76t42.5 -49l346 -387v359
q0 83 -24 107t-86 25v22q13 0 54 -1t65 -1t63 1t51 1zM342 839q38 0 82 -43q35 -35 60 -35q17 0 27.5 8.5t10.5 17.5q0 6 -6 13q-8 10 -8 20q0 9 5.5 14t12.5 5q11 0 17.5 -9t6.5 -23q0 -30 -29 -52t-64 -22q-41 0 -87 45q-34 33 -58 33q-14 0 -24 -8.5t-10 -19.5
q0 -8 8 -16q7 -9 7 -16q0 -17 -17 -17q-23 0 -23 29q0 31 26 53.5t63 22.5z" />
    <glyph glyph-name="Ograve" unicode="&#xd2;" horiz-adv-x="802" 
d="M408 -13q-155 0 -250 103t-95 237q0 141 101 238t238 97q138 0 237.5 -97t99.5 -239q0 -146 -102 -242.5t-229 -96.5zM394 635q-63 0 -110 -27t-73 -70.5t-38 -91t-12 -97.5q0 -134 72 -234.5t183 -100.5q101 0 163 81t62 205q0 134 -70 234.5t-177 100.5zM366 931
l104 -221l-13 -7l-131 205z" />
    <glyph glyph-name="Oacute" unicode="&#xd3;" horiz-adv-x="802" 
d="M408 -13q-155 0 -250 103t-95 237q0 141 101 238t238 97q138 0 237.5 -97t99.5 -239q0 -146 -102 -242.5t-229 -96.5zM394 635q-63 0 -110 -27t-73 -70.5t-38 -91t-12 -97.5q0 -134 72 -234.5t183 -100.5q101 0 163 81t62 205q0 134 -70 234.5t-177 100.5zM437 931
l40 -23l-131 -205l-13 7z" />
    <glyph glyph-name="Ocircumflex" unicode="&#xd4;" horiz-adv-x="802" 
d="M408 -13q-155 0 -250 103t-95 237q0 141 101 238t238 97q138 0 237.5 -97t99.5 -239q0 -146 -102 -242.5t-229 -96.5zM394 635q-63 0 -110 -27t-73 -70.5t-38 -91t-12 -97.5q0 -134 72 -234.5t183 -100.5q101 0 163 81t62 205q0 134 -70 234.5t-177 100.5zM402 932h7
l110 -221l-14 -8l-100 143l-108 -143l-14 8z" />
    <glyph glyph-name="Otilde" unicode="&#xd5;" horiz-adv-x="802" 
d="M408 -13q-155 0 -250 103t-95 237q0 141 101 238t238 97q138 0 237.5 -97t99.5 -239q0 -146 -102 -242.5t-229 -96.5zM394 635q-63 0 -110 -27t-73 -70.5t-38 -91t-12 -97.5q0 -134 72 -234.5t183 -100.5q101 0 163 81t62 205q0 134 -70 234.5t-177 100.5zM342 839
q38 0 82 -43q35 -35 60 -35q17 0 27.5 8.5t10.5 17.5q0 6 -6 13q-8 10 -8 20q0 9 5.5 14t12.5 5q11 0 17.5 -9t6.5 -23q0 -30 -29 -52t-64 -22q-41 0 -87 45q-34 33 -58 33q-14 0 -24 -8.5t-10 -19.5q0 -8 8 -16q7 -9 7 -16q0 -17 -17 -17q-23 0 -23 29q0 31 26 53.5
t63 22.5z" />
    <glyph glyph-name="Odieresis" unicode="&#xd6;" horiz-adv-x="802" 
d="M408 -13q-155 0 -250 103t-95 237q0 141 101 238t238 97q138 0 237.5 -97t99.5 -239q0 -146 -102 -242.5t-229 -96.5zM394 635q-63 0 -110 -27t-73 -70.5t-38 -91t-12 -97.5q0 -134 72 -234.5t183 -100.5q101 0 163 81t62 205q0 134 -70 234.5t-177 100.5zM314 832
q19 0 31 -12.5t12 -29.5t-12.5 -29.5t-29.5 -12.5t-29.5 12.5t-12.5 29.5q0 18 12.5 30t28.5 12zM488 832q19 0 31 -12.5t12 -29.5t-12 -29.5t-30 -12.5q-17 0 -29.5 12.5t-12.5 29.5q0 18 12.5 30t28.5 12z" />
    <glyph glyph-name="multiply" unicode="&#xd7;" horiz-adv-x="667" 
d="M93 515l44 44l196 -196l196 196l44 -44l-196 -197l196 -196l-44 -44l-196 196l-196 -196l-44 44l197 196z" />
    <glyph glyph-name="Oslash" unicode="&#xd8;" horiz-adv-x="802" 
d="M634 573l85 85l20 -20l-85 -85q85 -106 85 -227q0 -144 -99 -241.5t-236 -97.5q-128 0 -231 90l-87 -87l-20 20l87 87q-90 103 -90 229q0 138 98.5 237t241.5 99q132 0 231 -89zM214 150l368 368q-13 21 -24 34.5t-34.5 36t-58 34.5t-76.5 12q-59 0 -104 -25t-71.5 -67
t-39.5 -90.5t-13 -101.5q0 -112 53 -201zM596 493l-369 -369q71 -110 189 -110q101 0 163 79t62 208q0 113 -45 192z" />
    <glyph glyph-name="Ugrave" unicode="&#xd9;" horiz-adv-x="698" 
d="M259 650v-22q-41 0 -57.5 -15t-16.5 -71v-305q0 -95 49 -156t145 -61q89 0 132.5 49.5t43.5 139.5v266q0 61 -1.5 88.5t-13.5 44t-26 18.5t-51 2v22q7 0 43.5 -1t60.5 -1q23 0 58 1t41 1v-22q-39 -1 -52.5 -24t-13.5 -97v-293q0 -52 -16 -93t-41 -65.5t-59.5 -40.5
t-67.5 -22t-69 -6q-114 0 -181 56.5t-67 173.5v345q0 44 -14.5 55t-52.5 11v22q7 0 46.5 -1t65.5 -1t66 1t49 1zM314 931l104 -221l-13 -7l-131 205z" />
    <glyph glyph-name="Uacute" unicode="&#xda;" horiz-adv-x="698" 
d="M259 650v-22q-41 0 -57.5 -15t-16.5 -71v-305q0 -95 49 -156t145 -61q89 0 132.5 49.5t43.5 139.5v266q0 61 -1.5 88.5t-13.5 44t-26 18.5t-51 2v22q7 0 43.5 -1t60.5 -1q23 0 58 1t41 1v-22q-39 -1 -52.5 -24t-13.5 -97v-293q0 -52 -16 -93t-41 -65.5t-59.5 -40.5
t-67.5 -22t-69 -6q-114 0 -181 56.5t-67 173.5v345q0 44 -14.5 55t-52.5 11v22q7 0 46.5 -1t65.5 -1t66 1t49 1zM415 931l40 -23l-131 -205l-13 7z" />
    <glyph glyph-name="Ucircumflex" unicode="&#xdb;" horiz-adv-x="698" 
d="M259 650v-22q-41 0 -57.5 -15t-16.5 -71v-305q0 -95 49 -156t145 -61q89 0 132.5 49.5t43.5 139.5v266q0 61 -1.5 88.5t-13.5 44t-26 18.5t-51 2v22q7 0 43.5 -1t60.5 -1q23 0 58 1t41 1v-22q-39 -1 -52.5 -24t-13.5 -97v-293q0 -52 -16 -93t-41 -65.5t-59.5 -40.5
t-67.5 -22t-69 -6q-114 0 -181 56.5t-67 173.5v345q0 44 -14.5 55t-52.5 11v22q7 0 46.5 -1t65.5 -1t66 1t49 1zM350 932h7l110 -221l-14 -8l-100 143l-108 -143l-14 8z" />
    <glyph glyph-name="Udieresis" unicode="&#xdc;" horiz-adv-x="698" 
d="M259 650v-22q-41 0 -57.5 -15t-16.5 -71v-305q0 -95 49 -156t145 -61q89 0 132.5 49.5t43.5 139.5v266q0 61 -1.5 88.5t-13.5 44t-26 18.5t-51 2v22q7 0 43.5 -1t60.5 -1q23 0 58 1t41 1v-22q-39 -1 -52.5 -24t-13.5 -97v-293q0 -52 -16 -93t-41 -65.5t-59.5 -40.5
t-67.5 -22t-69 -6q-114 0 -181 56.5t-67 173.5v345q0 44 -14.5 55t-52.5 11v22q7 0 46.5 -1t65.5 -1t66 1t49 1zM262 832q19 0 31 -12.5t12 -29.5t-12.5 -29.5t-29.5 -12.5t-29.5 12.5t-12.5 29.5q0 18 12.5 30t28.5 12zM436 832q19 0 31 -12.5t12 -29.5t-12 -29.5
t-30 -12.5q-17 0 -29.5 12.5t-12.5 29.5q0 18 12.5 30t28.5 12z" />
    <glyph glyph-name="Yacute" unicode="&#xdd;" horiz-adv-x="698" 
d="M261 650v-22q-53 0 -53 -21q0 -15 17 -38l151 -207l136 186q23 33 23 50q0 30 -59 30v22q6 0 40 -1t57 -1q24 0 57.5 1t36.5 1v-22q-16 0 -26.5 -2t-28 -15t-36.5 -37l-186 -246v-229q0 -27 6.5 -43.5t20 -24t26 -9.5t33.5 -2v-22q-2 0 -48 1t-79 1q-34 0 -81.5 -1
t-49.5 -1v22q25 0 37 1.5t25.5 9t18.5 24t5 44.5v219l-165 224q-40 55 -60.5 70t-48.5 16v22q3 0 44 -1t70 -1t70.5 1t46.5 1zM415 931l40 -23l-131 -205l-13 7z" />
    <glyph glyph-name="Thorn" unicode="&#xde;" 
d="M296 651v-22q-49 -1 -70 -16.5t-21 -64.5v-40h54q17 0 31.5 -1t47 -5.5t57 -16.5t50.5 -30.5t40.5 -52t14.5 -76.5q0 -91 -68 -138.5t-170 -47.5h-57v-21q0 -36 4 -56.5t17.5 -30t26.5 -11t42 -1.5v-22q-4 0 -55.5 1t-84.5 1q-32 0 -74 -1t-48 -1v22h16q38 0 54 19t16 61
v448q0 52 -19 66t-67 14v22q21 0 65 -1t65 -1t67 2q11 0 33 0.5t33 0.5zM240 481h-35v-314h18q86 0 135.5 38t49.5 119q0 69 -42.5 113t-125.5 44z" />
    <glyph glyph-name="germandbls" unicode="&#xdf;" 
d="M166 504v-437q0 -30 11.5 -38.5t44.5 -8.5v-22q-18 0 -48.5 1t-45.5 1q-16 0 -48.5 -1t-48.5 -1v22q53 1 59 8q3 3 3 13v318h-60v17q29 12 60 37q1 149 78 228.5t189 79.5q61 0 98.5 -30t37.5 -84q0 -27 -7.5 -48t-25 -39t-28 -26t-33.5 -24q-31 -22 -46 -34t-27.5 -30
t-12.5 -38q0 -27 22 -49.5t61 -47.5q27 -17 42.5 -29.5t31.5 -40t16 -60.5q0 -60 -41 -107t-103 -47q-35 0 -63.5 16.5t-28.5 37.5q0 26 23 26q11 0 17.5 -5.5t21.5 -28.5q14 -22 44 -22q29 0 49.5 24.5t20.5 60.5t-19 59t-58 48q-51 33 -74 59.5t-23 62.5q0 31 18 59.5
t34.5 42t46.5 34.5q27 19 40.5 30.5t27 36t13.5 54.5q0 52 -35 81.5t-83 29.5q-60 0 -105.5 -47.5t-45.5 -141.5z" />
    <glyph glyph-name="agrave" unicode="&#xe0;" horiz-adv-x="479" 
d="M366 323v-235q0 -52 36 -52q16 0 36 11l6 -16q-52 -44 -84 -44q-57 0 -64 65q-32 -23 -49.5 -34t-44 -21t-53.5 -10q-45 0 -71.5 24t-26.5 61q0 46 47 75q42 26 194 79q0 91 -5 105q-8 20 -28.5 33t-47.5 13q-16 0 -31 -3.5t-32 -20t-19 -45.5q-1 -8 -2 -11.5t-6.5 -8.5
t-18.5 -10q-17 -7 -25 -7q-14 0 -14 14q0 11 8.5 29.5t15.5 25.5q8 8 33 25t70 36.5t81 19.5q42 0 68.5 -27t26.5 -71zM293 78v127q-110 -37 -139.5 -55.5t-29.5 -56.5q0 -32 21 -49.5t50 -17.5q44 0 98 52zM204 704l104 -221l-13 -7l-131 205z" />
    <glyph glyph-name="aacute" unicode="&#xe1;" horiz-adv-x="479" 
d="M366 323v-235q0 -52 36 -52q16 0 36 11l6 -16q-52 -44 -84 -44q-57 0 -64 65q-32 -23 -49.5 -34t-44 -21t-53.5 -10q-45 0 -71.5 24t-26.5 61q0 46 47 75q42 26 194 79q0 91 -5 105q-8 20 -28.5 33t-47.5 13q-16 0 -31 -3.5t-32 -20t-19 -45.5q-1 -8 -2 -11.5t-6.5 -8.5
t-18.5 -10q-17 -7 -25 -7q-14 0 -14 14q0 11 8.5 29.5t15.5 25.5q8 8 33 25t70 36.5t81 19.5q42 0 68.5 -27t26.5 -71zM293 78v127q-110 -37 -139.5 -55.5t-29.5 -56.5q0 -32 21 -49.5t50 -17.5q44 0 98 52zM275 704l40 -23l-131 -205l-13 7z" />
    <glyph glyph-name="acircumflex" unicode="&#xe2;" horiz-adv-x="479" 
d="M366 323v-235q0 -52 36 -52q16 0 36 11l6 -16q-52 -44 -84 -44q-57 0 -64 65q-32 -23 -49.5 -34t-44 -21t-53.5 -10q-45 0 -71.5 24t-26.5 61q0 46 47 75q42 26 194 79q0 91 -5 105q-8 20 -28.5 33t-47.5 13q-16 0 -31 -3.5t-32 -20t-19 -45.5q-1 -8 -2 -11.5t-6.5 -8.5
t-18.5 -10q-17 -7 -25 -7q-14 0 -14 14q0 11 8.5 29.5t15.5 25.5q8 8 33 25t70 36.5t81 19.5q42 0 68.5 -27t26.5 -71zM293 78v127q-110 -37 -139.5 -55.5t-29.5 -56.5q0 -32 21 -49.5t50 -17.5q44 0 98 52zM220 705h7l110 -221l-14 -8l-100 143l-108 -143l-14 8z" />
    <glyph glyph-name="atilde" unicode="&#xe3;" horiz-adv-x="479" 
d="M366 323v-235q0 -52 36 -52q16 0 36 11l6 -16q-52 -44 -84 -44q-57 0 -64 65q-32 -23 -49.5 -34t-44 -21t-53.5 -10q-45 0 -71.5 24t-26.5 61q0 46 47 75q42 26 194 79q0 91 -5 105q-8 20 -28.5 33t-47.5 13q-16 0 -31 -3.5t-32 -20t-19 -45.5q-1 -8 -2 -11.5t-6.5 -8.5
t-18.5 -10q-17 -7 -25 -7q-14 0 -14 14q0 11 8.5 29.5t15.5 25.5q8 8 33 25t70 36.5t81 19.5q42 0 68.5 -27t26.5 -71zM293 78v127q-110 -37 -139.5 -55.5t-29.5 -56.5q0 -32 21 -49.5t50 -17.5q44 0 98 52zM180 612q38 0 82 -43q35 -35 60 -35q17 0 27.5 8.5t10.5 17.5
q0 6 -6 13q-8 10 -8 20q0 9 5.5 14t12.5 5q11 0 17.5 -9t6.5 -23q0 -30 -29 -52t-64 -22q-41 0 -87 45q-34 33 -58 33q-14 0 -24 -8.5t-10 -19.5q0 -8 8 -16q7 -9 7 -16q0 -17 -17 -17q-23 0 -23 29q0 31 26 53.5t63 22.5z" />
    <glyph glyph-name="adieresis" unicode="&#xe4;" horiz-adv-x="479" 
d="M366 323v-235q0 -52 36 -52q16 0 36 11l6 -16q-52 -44 -84 -44q-57 0 -64 65q-32 -23 -49.5 -34t-44 -21t-53.5 -10q-45 0 -71.5 24t-26.5 61q0 46 47 75q42 26 194 79q0 91 -5 105q-8 20 -28.5 33t-47.5 13q-16 0 -31 -3.5t-32 -20t-19 -45.5q-1 -8 -2 -11.5t-6.5 -8.5
t-18.5 -10q-17 -7 -25 -7q-14 0 -14 14q0 11 8.5 29.5t15.5 25.5q8 8 33 25t70 36.5t81 19.5q42 0 68.5 -27t26.5 -71zM293 78v127q-110 -37 -139.5 -55.5t-29.5 -56.5q0 -32 21 -49.5t50 -17.5q44 0 98 52zM132 605q19 0 31 -12.5t12 -29.5t-12.5 -29.5t-29.5 -12.5
t-29.5 12.5t-12.5 29.5q0 18 12.5 30t28.5 12zM306 605q19 0 31 -12.5t12 -29.5t-12 -29.5t-30 -12.5q-17 0 -29.5 12.5t-12.5 29.5q0 18 12.5 30t28.5 12z" />
    <glyph glyph-name="aring" unicode="&#xe5;" horiz-adv-x="479" 
d="M366 323v-235q0 -52 36 -52q16 0 36 11l6 -16q-52 -44 -84 -44q-57 0 -64 65q-32 -23 -49.5 -34t-44 -21t-53.5 -10q-45 0 -71.5 24t-26.5 61q0 46 47 75q42 26 194 79q0 91 -5 105q-8 20 -28.5 33t-47.5 13q-16 0 -31 -3.5t-32 -20t-19 -45.5q-1 -8 -2 -11.5t-6.5 -8.5
t-18.5 -10q-17 -7 -25 -7q-14 0 -14 14q0 11 8.5 29.5t15.5 25.5q8 8 33 25t70 36.5t81 19.5q42 0 68.5 -27t26.5 -71zM293 78v127q-110 -37 -139.5 -55.5t-29.5 -56.5q0 -32 21 -49.5t50 -17.5q44 0 98 52zM237 653q38 0 62.5 -25.5t24.5 -59.5q0 -35 -25 -60t-60 -25
t-60 25t-25 60q0 36 25.5 60.5t57.5 24.5zM240 624q-30 0 -43.5 -18t-13.5 -38q0 -23 16 -39.5t40 -16.5q23 0 39.5 16t16.5 40t-17 40t-38 16z" />
    <glyph glyph-name="ae" unicode="&#xe6;" horiz-adv-x="698" 
d="M634 112l11 -12q-92 -113 -196 -113q-79 0 -129 91q-90 -91 -175 -91q-40 0 -68.5 27t-28.5 67q0 53 36 68q8 3 218 70v72q0 38 -21.5 62.5t-59.5 24.5q-69 0 -81 -64q-4 -20 -10.5 -26t-29.5 -12q-18 -6 -23 -6q-14 0 -14 14q0 23 13 42t24 26t30 17q102 52 146 52
q6 0 14.5 -1.5t24 -6.5t30.5 -19.5t25 -36.5q20 18 34.5 29t46 23t67.5 12q68 0 98.5 -33t30.5 -66q0 -16 -6.5 -21t-30.5 -13q-79 -25 -243 -73q3 -82 22 -109q38 -55 112 -55q30 0 57.5 11t41.5 21.5t34 28.5zM367 239q159 51 174 59q22 12 22 27q0 24 -19 46t-56 22
q-63 0 -96 -53q-23 -35 -25 -101zM302 196q-135 -41 -158 -54q-15 -8 -15 -41q0 -34 21 -50.5t50 -16.5q26 0 52 13t38 40q10 24 12 109z" />
    <glyph glyph-name="ccedilla" unicode="&#xe7;" horiz-adv-x="427" 
d="M260 -10l-38 -38q73 -18 73 -80q0 -35 -24 -58.5t-65 -23.5q-31 0 -53 16t-22 37t19 21q16 0 24 -25q10 -31 35 -31q21 0 33 16.5t12 35.5q0 26 -24.5 41t-56.5 11l-4 8l58 67q-74 3 -130.5 58t-56.5 142q0 92 64 163t173 71q45 0 82.5 -14.5t37.5 -45.5q0 -15 -10 -26.5
t-26 -11.5q-11 0 -16.5 4t-17.5 22q-32 45 -90 45q-54 0 -89.5 -47.5t-35.5 -113.5q0 -84 54.5 -134.5t113.5 -50.5q55 0 111 47l13 -12q-61 -77 -144 -93z" />
    <glyph glyph-name="egrave" unicode="&#xe8;" horiz-adv-x="427" 
d="M388 104l13 -12q-24 -30 -42.5 -49t-55 -37.5t-78.5 -18.5q-31 0 -61.5 10.5t-60 32.5t-48 64.5t-18.5 99.5q0 108 60.5 167.5t141.5 59.5q69 0 112 -40.5t43 -95.5q0 -13 -3 -17t-11 -4q-14 0 -88.5 2t-86.5 2q-38 0 -94 -2q-3 -61 10 -106t31 -66.5t43.5 -34t39 -14.5
t25.5 -2q64 0 128 61zM110 292h188q18 0 18 26q0 36 -23.5 58.5t-62.5 22.5q-91 0 -120 -107zM178 704l104 -221l-13 -7l-131 205z" />
    <glyph glyph-name="eacute" unicode="&#xe9;" horiz-adv-x="427" 
d="M388 104l13 -12q-24 -30 -42.5 -49t-55 -37.5t-78.5 -18.5q-31 0 -61.5 10.5t-60 32.5t-48 64.5t-18.5 99.5q0 108 60.5 167.5t141.5 59.5q69 0 112 -40.5t43 -95.5q0 -13 -3 -17t-11 -4q-14 0 -88.5 2t-86.5 2q-38 0 -94 -2q-3 -61 10 -106t31 -66.5t43.5 -34t39 -14.5
t25.5 -2q64 0 128 61zM110 292h188q18 0 18 26q0 36 -23.5 58.5t-62.5 22.5q-91 0 -120 -107zM249 704l40 -23l-131 -205l-13 7z" />
    <glyph glyph-name="ecircumflex" unicode="&#xea;" horiz-adv-x="427" 
d="M388 104l13 -12q-24 -30 -42.5 -49t-55 -37.5t-78.5 -18.5q-31 0 -61.5 10.5t-60 32.5t-48 64.5t-18.5 99.5q0 108 60.5 167.5t141.5 59.5q69 0 112 -40.5t43 -95.5q0 -13 -3 -17t-11 -4q-14 0 -88.5 2t-86.5 2q-38 0 -94 -2q-3 -61 10 -106t31 -66.5t43.5 -34t39 -14.5
t25.5 -2q64 0 128 61zM110 292h188q18 0 18 26q0 36 -23.5 58.5t-62.5 22.5q-91 0 -120 -107zM214 705h7l110 -221l-14 -8l-100 143l-108 -143l-14 8z" />
    <glyph glyph-name="edieresis" unicode="&#xeb;" horiz-adv-x="427" 
d="M388 104l13 -12q-24 -30 -42.5 -49t-55 -37.5t-78.5 -18.5q-31 0 -61.5 10.5t-60 32.5t-48 64.5t-18.5 99.5q0 108 60.5 167.5t141.5 59.5q69 0 112 -40.5t43 -95.5q0 -13 -3 -17t-11 -4q-14 0 -88.5 2t-86.5 2q-38 0 -94 -2q-3 -61 10 -106t31 -66.5t43.5 -34t39 -14.5
t25.5 -2q64 0 128 61zM110 292h188q18 0 18 26q0 36 -23.5 58.5t-62.5 22.5q-91 0 -120 -107zM146 605q19 0 31 -12.5t12 -29.5t-12.5 -29.5t-29.5 -12.5t-29.5 12.5t-12.5 29.5q0 18 12.5 30t28.5 12zM320 605q19 0 31 -12.5t12 -29.5t-12 -29.5t-30 -12.5
q-17 0 -29.5 12.5t-12.5 29.5q0 18 12.5 30t28.5 12z" />
    <glyph glyph-name="igrave" unicode="&#xec;" horiz-adv-x="271" 
d="M172 421v-347q0 -37 9 -45.5t51 -8.5v-22q-32 2 -97 2q-70 0 -100 -2v22q42 0 53 5.5t11 31.5v258q0 35 -49 57v16q53 15 92 32q20 9 25 9t5 -8zM100 704l104 -221l-13 -7l-131 205z" />
    <glyph glyph-name="iacute" unicode="&#xed;" horiz-adv-x="271" 
d="M172 421v-347q0 -37 9 -45.5t51 -8.5v-22q-32 2 -97 2q-70 0 -100 -2v22q42 0 53 5.5t11 31.5v258q0 35 -49 57v16q53 15 92 32q20 9 25 9t5 -8zM171 704l40 -23l-131 -205l-13 7z" />
    <glyph glyph-name="icircumflex" unicode="&#xee;" horiz-adv-x="271" 
d="M172 421v-347q0 -37 9 -45.5t51 -8.5v-22q-32 2 -97 2q-70 0 -100 -2v22q42 0 53 5.5t11 31.5v258q0 35 -49 57v16q53 15 92 32q20 9 25 9t5 -8zM136 705h7l110 -221l-14 -8l-100 143l-108 -143l-14 8z" />
    <glyph glyph-name="idieresis" unicode="&#xef;" horiz-adv-x="271" 
d="M172 421v-347q0 -37 9 -45.5t51 -8.5v-22q-32 2 -97 2q-70 0 -100 -2v22q42 0 53 5.5t11 31.5v258q0 35 -49 57v16q53 15 92 32q20 9 25 9t5 -8zM48 605q19 0 31 -12.5t12 -29.5t-12.5 -29.5t-29.5 -12.5t-29.5 12.5t-12.5 29.5q0 18 12.5 30t28.5 12zM222 605
q19 0 31 -12.5t12 -29.5t-12 -29.5t-30 -12.5q-17 0 -29.5 12.5t-12.5 29.5q0 18 12.5 30t28.5 12z" />
    <glyph glyph-name="eth" unicode="&#xf0;" 
d="M287 636l99 80l17 -20l-95 -77q173 -162 173 -372q0 -73 -20 -129.5t-69 -93.5t-123 -37q-39 0 -76 12.5t-69.5 37t-52.5 67t-20 97.5q0 62 22.5 108t57.5 68t68 32t65 10q20 0 38.5 -4.5t29 -9t36.5 -17.5q-24 117 -101 198l-128 -103l-16 20l126 102q-44 40 -115 85
l15 26q74 -31 138 -80zM263 9q40 0 68 20.5t40 55t16.5 64t4.5 62.5q0 18 -1.5 36.5t-9 47t-20.5 50t-38.5 37t-59.5 15.5q-129 0 -129 -197q0 -27 3.5 -52.5t15 -60.5t40 -56.5t70.5 -21.5z" />
    <glyph glyph-name="ntilde" unicode="&#xf1;" 
d="M167 425v-76q59 39 95 55.5t74 16.5q49 0 79.5 -33t30.5 -85v-247q0 -26 9 -31t43 -5v-22q-7 0 -21 0.5t-35 1t-36 0.5q-58 0 -92 -2v22q38 0 48.5 5.5t10.5 26.5v211q0 55 -18.5 83t-69.5 28q-61 0 -118 -46v-254q0 -39 10 -46.5t52 -7.5v-22q-36 2 -99 2q-62 0 -98 -2
v22q42 0 52 5t10 27v259q0 18 -8.5 27t-40.5 29v14q41 15 94 40q21 10 23 10q5 0 5 -6zM206 612q38 0 82 -43q35 -35 60 -35q17 0 27.5 8.5t10.5 17.5q0 6 -6 13q-8 10 -8 20q0 9 5.5 14t12.5 5q11 0 17.5 -9t6.5 -23q0 -30 -29 -52t-64 -22q-41 0 -87 45q-34 33 -58 33
q-14 0 -24 -8.5t-10 -19.5q0 -8 8 -16q7 -9 7 -16q0 -17 -17 -17q-23 0 -23 29q0 31 26 53.5t63 22.5z" />
    <glyph glyph-name="ograve" unicode="&#xf2;" 
d="M267 -13q-107 0 -166 66t-59 149q0 87 61 153t159 66q95 0 160.5 -62t65.5 -155q0 -95 -66 -156t-155 -61zM265 399q-66 0 -102.5 -54t-36.5 -129q0 -88 41.5 -147.5t105.5 -59.5q62 0 96.5 56.5t34.5 129.5q0 26 -6 57t-20 66t-43.5 58t-69.5 23zM230 704l104 -221
l-13 -7l-131 205z" />
    <glyph glyph-name="oacute" unicode="&#xf3;" 
d="M267 -13q-107 0 -166 66t-59 149q0 87 61 153t159 66q95 0 160.5 -62t65.5 -155q0 -95 -66 -156t-155 -61zM265 399q-66 0 -102.5 -54t-36.5 -129q0 -88 41.5 -147.5t105.5 -59.5q62 0 96.5 56.5t34.5 129.5q0 26 -6 57t-20 66t-43.5 58t-69.5 23zM301 704l40 -23
l-131 -205l-13 7z" />
    <glyph glyph-name="ocircumflex" unicode="&#xf4;" 
d="M267 -13q-107 0 -166 66t-59 149q0 87 61 153t159 66q95 0 160.5 -62t65.5 -155q0 -95 -66 -156t-155 -61zM265 399q-66 0 -102.5 -54t-36.5 -129q0 -88 41.5 -147.5t105.5 -59.5q62 0 96.5 56.5t34.5 129.5q0 26 -6 57t-20 66t-43.5 58t-69.5 23zM266 705h7l110 -221
l-14 -8l-100 143l-108 -143l-14 8z" />
    <glyph glyph-name="otilde" unicode="&#xf5;" 
d="M267 -13q-107 0 -166 66t-59 149q0 87 61 153t159 66q95 0 160.5 -62t65.5 -155q0 -95 -66 -156t-155 -61zM265 399q-66 0 -102.5 -54t-36.5 -129q0 -88 41.5 -147.5t105.5 -59.5q62 0 96.5 56.5t34.5 129.5q0 26 -6 57t-20 66t-43.5 58t-69.5 23zM206 612q38 0 82 -43
q35 -35 60 -35q17 0 27.5 8.5t10.5 17.5q0 6 -6 13q-8 10 -8 20q0 9 5.5 14t12.5 5q11 0 17.5 -9t6.5 -23q0 -30 -29 -52t-64 -22q-41 0 -87 45q-34 33 -58 33q-14 0 -24 -8.5t-10 -19.5q0 -8 8 -16q7 -9 7 -16q0 -17 -17 -17q-23 0 -23 29q0 31 26 53.5t63 22.5z" />
    <glyph glyph-name="odieresis" unicode="&#xf6;" 
d="M267 -13q-107 0 -166 66t-59 149q0 87 61 153t159 66q95 0 160.5 -62t65.5 -155q0 -95 -66 -156t-155 -61zM265 399q-66 0 -102.5 -54t-36.5 -129q0 -88 41.5 -147.5t105.5 -59.5q62 0 96.5 56.5t34.5 129.5q0 26 -6 57t-20 66t-43.5 58t-69.5 23zM178 605q19 0 31 -12.5
t12 -29.5t-12.5 -29.5t-29.5 -12.5t-29.5 12.5t-12.5 29.5q0 18 12.5 30t28.5 12zM352 605q19 0 31 -12.5t12 -29.5t-12 -29.5t-30 -12.5q-17 0 -29.5 12.5t-12.5 29.5q0 18 12.5 30t28.5 12z" />
    <glyph glyph-name="divide" unicode="&#xf7;" horiz-adv-x="667" 
d="M334 559q17 0 29 -12t12 -29t-12 -29t-29 -12t-29 12t-12 29t12 29t29 12zM70 349h528v-61h-528v61zM334 160q17 0 29 -12t12 -29t-12 -29t-29 -12t-29 12t-12 29t12 29t29 12z" />
    <glyph glyph-name="oslash" unicode="&#xf8;" 
d="M476 424l18 -20l-58 -58q52 -66 52 -141q0 -89 -62 -153.5t-161 -64.5q-84 0 -149 53l-60 -58l-19 20l60 58q-55 67 -55 144q0 89 64 153t158 64q83 0 153 -56zM148 108l226 217q-43 74 -113 74q-53 0 -94 -47t-41 -138q0 -50 22 -106zM385 298l-225 -216q52 -73 113 -73
q52 0 91.5 49t39.5 136q0 53 -19 104z" />
    <glyph glyph-name="ugrave" unicode="&#xf9;" 
d="M164 400v-273q0 -46 22 -70.5t63 -24.5q63 0 118 60v261q-45 18 -74 27v17q6 1 40.5 5.5t65 8.5t34.5 4q8 0 8 -14l-1 -364q0 -10 15 -9l48 2v-18l-72 -14q-47 -10 -49 -10h-15v76q-100 -77 -170 -77q-49 0 -77.5 32t-28.5 83v232q0 20 -10.5 32.5t-19 16t-21.5 5.5v19
q70 2 83 5q3 0 18 2l15 1q6 0 7 -2.5t1 -12.5zM230 704l104 -221l-13 -7l-131 205z" />
    <glyph glyph-name="uacute" unicode="&#xfa;" 
d="M164 400v-273q0 -46 22 -70.5t63 -24.5q63 0 118 60v261q-45 18 -74 27v17q6 1 40.5 5.5t65 8.5t34.5 4q8 0 8 -14l-1 -364q0 -10 15 -9l48 2v-18l-72 -14q-47 -10 -49 -10h-15v76q-100 -77 -170 -77q-49 0 -77.5 32t-28.5 83v232q0 20 -10.5 32.5t-19 16t-21.5 5.5v19
q70 2 83 5q3 0 18 2l15 1q6 0 7 -2.5t1 -12.5zM331 704l40 -23l-131 -205l-13 7z" />
    <glyph glyph-name="ucircumflex" unicode="&#xfb;" 
d="M164 400v-273q0 -46 22 -70.5t63 -24.5q63 0 118 60v261q-45 18 -74 27v17q6 1 40.5 5.5t65 8.5t34.5 4q8 0 8 -14l-1 -364q0 -10 15 -9l48 2v-18l-72 -14q-47 -10 -49 -10h-15v76q-100 -77 -170 -77q-49 0 -77.5 32t-28.5 83v232q0 20 -10.5 32.5t-19 16t-21.5 5.5v19
q70 2 83 5q3 0 18 2l15 1q6 0 7 -2.5t1 -12.5zM266 705h7l110 -221l-14 -8l-100 143l-108 -143l-14 8z" />
    <glyph glyph-name="udieresis" unicode="&#xfc;" 
d="M164 400v-273q0 -46 22 -70.5t63 -24.5q63 0 118 60v261q-45 18 -74 27v17q6 1 40.5 5.5t65 8.5t34.5 4q8 0 8 -14l-1 -364q0 -10 15 -9l48 2v-18l-72 -14q-47 -10 -49 -10h-15v76q-100 -77 -170 -77q-49 0 -77.5 32t-28.5 83v232q0 20 -10.5 32.5t-19 16t-21.5 5.5v19
q70 2 83 5q3 0 18 2l15 1q6 0 7 -2.5t1 -12.5zM178 605q19 0 31 -12.5t12 -29.5t-12.5 -29.5t-29.5 -12.5t-29.5 12.5t-12.5 29.5q0 18 12.5 30t28.5 12zM352 605q19 0 31 -12.5t12 -29.5t-12 -29.5t-30 -12.5q-17 0 -29.5 12.5t-12.5 29.5q0 18 12.5 30t28.5 12z" />
    <glyph glyph-name="yacute" unicode="&#xfd;" horiz-adv-x="479" 
d="M20 409q3 0 35.5 -1t55.5 -1t55.5 1t35.5 1v-22q-16 -1 -22.5 -1.5t-16 -6t-9.5 -16.5q0 -15 5 -22l93 -234l81 189q15 30 15 57q0 31 -53 34v22q12 0 37.5 -1t38.5 -1t38 1t38 1v-22q-27 -2 -41.5 -13.5t-29.5 -46.5l-195 -450q-16 -36 -23 -50t-19 -24.5t-27 -10.5
q-19 0 -33.5 12t-14.5 33q0 19 12 33t34 14q14 0 28 -6q6 -3 10 -3q2 0 8 12l55 129l-126 314q-16 39 -29 48t-36 9v22zM305 704l40 -23l-131 -205l-13 7z" />
    <glyph glyph-name="thorn" unicode="&#xfe;" 
d="M162 6v-171q0 -17 11 -22.5t52 -5.5h24v-22q-21 0 -62 1t-62 1q-17 0 -52.5 -1t-52.5 -1v22h30q19 0 27.5 3t10 7t1.5 14v776q0 14 -1.5 23t-13 19t-33.5 11v18q41 13 93 37q17 8 20 8q8 0 8 -9v-366q83 73 156 73q69 0 118.5 -56.5t49.5 -134.5q0 -103 -75 -173
t-167 -70q-53 0 -82 19zM162 326v-238q0 -37 39 -55.5t73 -18.5q62 0 99.5 53t37.5 123q0 74 -43 126.5t-108 52.5q-52 0 -98 -43z" />
    <glyph glyph-name="ydieresis" unicode="&#xff;" horiz-adv-x="479" 
d="M20 409q3 0 35.5 -1t55.5 -1t55.5 1t35.5 1v-22q-16 -1 -22.5 -1.5t-16 -6t-9.5 -16.5q0 -15 5 -22l93 -234l81 189q15 30 15 57q0 31 -53 34v22q12 0 37.5 -1t38.5 -1t38 1t38 1v-22q-27 -2 -41.5 -13.5t-29.5 -46.5l-195 -450q-16 -36 -23 -50t-19 -24.5t-27 -10.5
q-19 0 -33.5 12t-14.5 33q0 19 12 33t34 14q14 0 28 -6q6 -3 10 -3q2 0 8 12l55 129l-126 314q-16 39 -29 48t-36 9v22zM152 605q19 0 31 -12.5t12 -29.5t-12.5 -29.5t-29.5 -12.5t-29.5 12.5t-12.5 29.5q0 18 12.5 30t28.5 12zM326 605q19 0 31 -12.5t12 -29.5t-12 -29.5
t-30 -12.5q-17 0 -29.5 12.5t-12.5 29.5q0 18 12.5 30t28.5 12z" />
    <glyph glyph-name="dotlessi" unicode="&#x131;" horiz-adv-x="271" 
d="M172 421v-347q0 -37 9 -45.5t51 -8.5v-22q-32 2 -97 2q-70 0 -100 -2v22q42 0 53 5.5t11 31.5v258q0 35 -49 57v16q53 15 92 32q20 9 25 9t5 -8z" />
    <glyph glyph-name="Lslash" unicode="&#x141;" horiz-adv-x="583" 
d="M290 650v-22q-23 0 -35 -1.5t-25 -7.5t-18.5 -20.5t-5.5 -39.5v-178l154 130v-38l-154 -130v-221q0 -51 27 -71t99 -20q79 0 119 10.5t59 32.5t34 70l17 -4q-8 -39 -31 -142q-106 2 -257 2q-57 0 -142.5 -1t-101.5 -1v22q46 0 68.5 14.5t22.5 62.5v173l-91 -76v38l91 77
v230q0 32 -6.5 51.5t-21 27t-25 9t-29.5 1.5v22q15 0 58 -1t68 -1q24 0 66.5 1t59.5 1z" />
    <glyph glyph-name="lslash" unicode="&#x142;" horiz-adv-x="271" 
d="M174 705v-269h2l77 112v-41l-79 -109v-323q0 -39 10 -47t50 -8v-22q-30 2 -100 2q-24 0 -59 -1t-38 -1v22q43 0 53.5 10t10.5 54v218h-2l-77 -108v41l79 105v271q0 17 -13 28.5t-45 27.5v15q77 17 108 30q15 7 18 7q5 0 5 -14z" />
    <glyph glyph-name="OE" unicode="&#x152;" horiz-adv-x="958" 
d="M872 650l9 -132h-18q-11 54 -36 78.5t-91 24.5h-134v-266h123q44 0 55.5 16.5t12.5 60.5h22q-2 -30 -2 -91q0 -44 2 -98h-22q-1 39 -13 57t-53 18h-125v-194q0 -30 3 -44t15.5 -28.5t40.5 -19.5t77 -5q90 0 123 20.5t52 91.5l18 -4l-28 -137q-158 2 -316 2q-7 0 -23 -1
t-40.5 -2t-41.5 -2t-41.5 -2t-39.5 -2t-22 -1q-86 0 -153.5 32t-106.5 82.5t-59 106t-20 110.5q0 136 99 236q60 60 121 81t136 21q14 0 78 -4.5t66 -4.5h8t19.5 -0.5t27.5 -1t35 -0.5h39q40 0 112.5 1t90.5 1zM516 146v381q0 52 -35 78.5t-92 26.5q-109 0 -180 -84
t-71 -207q0 -133 79 -227t185 -94q38 0 62.5 11t35 32t13.5 39t3 44z" />
    <glyph glyph-name="oe" unicode="&#x153;" horiz-adv-x="750" 
d="M711 99l12 -12q-77 -100 -181 -100q-29 0 -53.5 8t-42 23.5t-25 25t-18.5 24.5q-37 -41 -71.5 -61t-84.5 -20q-96 0 -150 66t-54 145q0 95 62.5 159t154.5 64q55 0 88 -20t66 -58q63 78 148 78q65 0 112.5 -42.5t40.5 -115.5q-68 1 -272 0q-6 -98 28 -159.5t113 -61.5
q64 0 127 57zM443 287h168q17 0 23.5 5t6.5 19q0 28 -22.5 58t-67.5 30q-37 0 -68 -28.5t-40 -83.5zM250 9q39 0 65.5 21t38.5 55t16.5 63.5t4.5 59.5q0 78 -31.5 134.5t-90.5 56.5t-92.5 -58.5t-33.5 -135.5q0 -79 34 -137.5t89 -58.5z" />
    <glyph glyph-name="Scaron" unicode="&#x160;" horiz-adv-x="479" 
d="M393 540h-17q-26 95 -121 95q-56 0 -88.5 -32.5t-32.5 -79.5q0 -30 10.5 -53.5t33 -42t40.5 -29t50 -26.5q41 -20 66 -36t49.5 -39t35.5 -53t11 -68q0 -86 -65 -137.5t-162 -51.5q-83 0 -147 35q-7 63 -16 131h16q6 -17 10 -27.5t18 -34.5t29.5 -38t42.5 -26.5t60 -12.5
q61 0 97.5 36.5t36.5 90.5q0 29 -10.5 53t-32 42t-40.5 29.5t-49 26.5q-33 16 -53 28.5t-48 36.5t-41.5 57.5t-13.5 75.5q0 84 60 128t145 44q35 0 113 -12q1 -7 5 -39.5t8 -70.5zM240 703l-119 221l14 8l108 -143l100 143l14 -8l-110 -221h-7z" />
    <glyph glyph-name="scaron" unicode="&#x161;" horiz-adv-x="375" 
d="M305 401l6 -91h-20q-7 31 -21.5 51.5t-32.5 27.5t-27.5 9t-17.5 2q-33 0 -55.5 -20t-22.5 -47q0 -26 22 -46.5t74 -40.5q70 -28 96.5 -58t26.5 -71q0 -57 -44 -93.5t-110 -36.5q-58 0 -121 33q-6 62 -10 99l15 6q7 -22 13 -35.5t20 -34t36 -31.5t52 -11q39 0 61 19t22 52
q0 27 -18.5 47t-72.5 41q-56 23 -88.5 51t-32.5 77q0 52 39 86.5t105 34.5q51 0 106 -20zM188 476l-119 221l14 8l108 -143l100 143l14 -8l-110 -221h-7z" />
    <glyph glyph-name="Ydieresis" unicode="&#x178;" horiz-adv-x="698" 
d="M261 650v-22q-53 0 -53 -21q0 -15 17 -38l151 -207l136 186q23 33 23 50q0 30 -59 30v22q6 0 40 -1t57 -1q24 0 57.5 1t36.5 1v-22q-16 0 -26.5 -2t-28 -15t-36.5 -37l-186 -246v-229q0 -27 6.5 -43.5t20 -24t26 -9.5t33.5 -2v-22q-2 0 -48 1t-79 1q-34 0 -81.5 -1
t-49.5 -1v22q25 0 37 1.5t25.5 9t18.5 24t5 44.5v219l-165 224q-40 55 -60.5 70t-48.5 16v22q3 0 44 -1t70 -1t70.5 1t46.5 1zM262 832q19 0 31 -12.5t12 -29.5t-12.5 -29.5t-29.5 -12.5t-29.5 12.5t-12.5 29.5q0 18 12.5 30t28.5 12zM436 832q19 0 31 -12.5t12 -29.5
t-12 -29.5t-30 -12.5q-17 0 -29.5 12.5t-12.5 29.5q0 18 12.5 30t28.5 12z" />
    <glyph glyph-name="Zcaron" unicode="&#x17d;" horiz-adv-x="698" 
d="M89 659h18q10 -7 11 -7q10 -4 23 -4h499l-472 -612h341q31 0 55.5 10t41 29.5t26.5 36.5t20 42l17 -4q-4 -15 -18 -64t-24 -88q-138 2 -302 2q-189 0 -295 -2l478 617h-294q-35 0 -59.5 -7.5t-39 -23.5t-21.5 -30.5t-15 -39.5h-18q19 82 28 145zM350 703l-119 221l14 8
l108 -143l100 143l14 -8l-110 -221h-7z" />
    <glyph glyph-name="zcaron" unicode="&#x17e;" horiz-adv-x="427" 
d="M58 430h19l3 -6q3 -5 5 -7q8 -8 20 -8h277l-249 -386q178 4 193 11q10 4 26 29q11 20 33 55l16 -3l-22 -115h-344l244 381q-145 2 -162 -3q-19 -5 -30 -20t-23 -45h-18zM214 476l-119 221l14 8l108 -143l100 143l14 -8l-110 -221h-7z" />
    <glyph glyph-name="florin" unicode="&#x192;" horiz-adv-x="594" 
d="M366 375l-86 -309q-42 -155 -132 -229q-59 -48 -110 -48q-38 0 -38 34q0 13 7.5 26.5t17.5 13.5l24 -7q20 -7 40 -7q39 0 58.5 30t43.5 120l102 376h-90l8 32h92q14 51 25.5 85t38 82t60.5 81q34 34 69 50t60 16q38 0 38 -33q0 -14 -7.5 -27.5t-17.5 -13.5l-12 3
q-12 4 -13 4q-21 7 -39 7q-38 0 -58 -29t-44 -119l-28 -106h109l-9 -32h-109z" />
    <glyph glyph-name="circumflex" unicode="&#x2c6;" horiz-adv-x="333" 
d="M167 705h7l110 -221l-14 -8l-100 143l-108 -143l-14 8z" />
    <glyph glyph-name="caron" unicode="&#x2c7;" horiz-adv-x="333" 
d="M167 476l-119 221l14 8l108 -143l100 143l14 -8l-110 -221h-7z" />
    <glyph glyph-name="uni02C9" unicode="&#x2c9;" horiz-adv-x="333" 
d="M18 595h297v-44h-297v44z" />
    <glyph glyph-name="breve" unicode="&#x2d8;" horiz-adv-x="333" 
d="M45 599h21q3 -12 6.5 -20t13.5 -21.5t30.5 -20.5t50.5 -7q37 0 60 13t29 24.5t12 31.5h21q-2 -14 -4 -22.5t-10 -27.5t-20 -31t-35 -21.5t-53 -9.5q-36 0 -61 11.5t-37 33t-16 34.5t-8 33z" />
    <glyph glyph-name="dotaccent" unicode="&#x2d9;" horiz-adv-x="333" 
d="M167 636q18 0 31 -13t13 -31t-13 -31t-31 -13t-31 13t-13 31t13 31t31 13z" />
    <glyph glyph-name="ring" unicode="&#x2da;" horiz-adv-x="333" 
d="M164 653q38 0 62.5 -25.5t24.5 -59.5q0 -35 -25 -60t-60 -25t-60 25t-25 60q0 36 25.5 60.5t57.5 24.5zM167 624q-30 0 -43.5 -18t-13.5 -38q0 -23 16 -39.5t40 -16.5q23 0 39.5 16t16.5 40t-17 40t-38 16z" />
    <glyph glyph-name="ogonek" unicode="&#x2db;" horiz-adv-x="333" 
d="M112 8h25q-13 -26 -13 -49q0 -35 21 -58t42.5 -30t40.5 -7q28 0 59 11l10 -15q-39 -22 -61 -29.5t-52 -7.5q-56 0 -84 27.5t-28 61.5q0 59 40 96z" />
    <glyph glyph-name="tilde" unicode="&#x2dc;" horiz-adv-x="333" 
d="M107 612q38 0 82 -43q35 -35 60 -35q17 0 27.5 8.5t10.5 17.5q0 6 -6 13q-8 10 -8 20q0 9 5.5 14t12.5 5q11 0 17.5 -9t6.5 -23q0 -30 -29 -52t-64 -22q-41 0 -87 45q-34 33 -58 33q-14 0 -24 -8.5t-10 -19.5q0 -8 8 -16q7 -9 7 -16q0 -17 -17 -17q-23 0 -23 29
q0 31 26 53.5t63 22.5z" />
    <glyph glyph-name="hungarumlaut" unicode="&#x2dd;" horiz-adv-x="333" 
d="M282 704l40 -23l-131 -205l-13 7zM160 704l40 -23l-131 -205l-13 7z" />
    <glyph glyph-name="uni03A9" unicode="&#x3a9;" horiz-adv-x="633" 
d="M591 0h-220v118q62 35 93.5 114.5t31.5 162.5q0 129 -45.5 206.5t-133.5 77.5q-90 0 -136 -79t-46 -206q0 -90 35 -172t96 -108v-114h-224v136h24q0 -20 1.5 -31t6.5 -23t17 -17t32 -5h105v31q-75 33 -126 114t-51 186q0 150 73.5 235.5t193.5 85.5t193 -92.5t73 -219.5
q0 -91 -45.5 -179.5t-129.5 -126.5v-34h101q20 0 32 5t17 17t6.5 23t1.5 31h24v-136z" />
    <glyph glyph-name="uni03BC" unicode="&#x3bc;" horiz-adv-x="501" 
d="M58 409h73v-222q0 -74 14.5 -107.5t61.5 -33.5q63 0 123 66v297h73v-281q0 -33 1.5 -49.5t9 -28t22.5 -11.5q31 0 40 60h20q-9 -112 -97 -112q-12 0 -22 3t-17 7t-12 11.5t-8 13t-5 15.5t-2.5 14.5t-1.5 15t-1 12.5q-77 -92 -161 -92q-21 0 -37 7.5t-22.5 14t-15.5 19.5
h-2q0 -49 10 -104q14 -79 14 -86q0 -19 -12 -36.5t-34 -17.5q-24 0 -33.5 18t-9.5 35q0 19 22 112q9 36 9 144v316z" />
    <glyph glyph-name="pi" unicode="&#x3c0;" horiz-adv-x="412" 
d="M392 90q-19 -102 -68 -102q-32 0 -46 31q-16 30 -16 124v273h-97v-199q0 -147 -28 -194q-20 -35 -52 -35q-12 0 -21 9t-9 22q0 24 31 36q27 9 35 52.5t8 130.5v178h-22q-46 0 -57 -66l-23 6q2 59 25.5 92.5t65.5 33.5h263v-66h-83v-242q0 -68 10 -100q9 -28 27 -28
q23 0 40 57z" />
    <glyph glyph-name="endash" unicode="&#x2013;" horiz-adv-x="500" 
d="M-6 276h512v-45h-512v45z" />
    <glyph glyph-name="emdash" unicode="&#x2014;" horiz-adv-x="1000" 
d="M-6 276h1012v-45h-1012v45z" />
    <glyph glyph-name="quoteleft" unicode="&#x2018;" horiz-adv-x="271" 
d="M193 662l8 -17q-24 -10 -39.5 -18.5t-34.5 -31.5t-19 -51q0 -39 43 -39q24 -1 37 -15.5t13 -33.5q0 -23 -16 -36.5t-41 -13.5q-36 0 -60 30.5t-24 72.5q0 13 3 27.5t14 41t41 49.5t75 35z" />
    <glyph glyph-name="quoteright" unicode="&#x2019;" horiz-adv-x="271" 
d="M78 406l-8 17q24 10 39.5 18.5t34.5 31.5t19 51q0 39 -43 39q-24 1 -37 15.5t-13 33.5q0 23 16 36.5t41 13.5q36 0 60 -30.5t24 -72.5q0 -13 -3 -27.5t-14 -41t-41 -49.5t-75 -35z" />
    <glyph glyph-name="quotesinglbase" unicode="&#x201a;" horiz-adv-x="271" 
d="M78 -139l-8 17q24 10 39.5 18.5t34.5 31.5t19 51q0 39 -43 39q-24 1 -37 15.5t-13 33.5q0 23 16 36.5t41 13.5q36 0 60 -30.5t24 -72.5q0 -13 -3 -27.5t-14 -41t-41 -49.5t-75 -35z" />
    <glyph glyph-name="quotedblleft" unicode="&#x201c;" horiz-adv-x="479" 
d="M394 662l8 -18q-19 -9 -30 -15t-27.5 -18.5t-24.5 -29.5t-8 -37q0 -18 7 -27t14 -10.5t18 -1.5q27 -1 41.5 -16t14.5 -33q0 -21 -17 -35.5t-42 -14.5q-35 0 -59.5 27t-24.5 74q0 111 130 155zM205 662l8 -17q-24 -10 -39.5 -18.5t-34.5 -31.5t-19 -51q0 -39 43 -39
q24 -1 37 -15.5t13 -33.5q0 -23 -16 -36.5t-41 -13.5q-36 0 -60 30.5t-24 72.5q0 13 3 27.5t14 41t41 49.5t75 35z" />
    <glyph glyph-name="quotedblright" unicode="&#x201d;" horiz-adv-x="479" 
d="M85 406l-8 18q19 9 30 15t27.5 18.5t24.5 29.5t8 37q0 18 -7 27t-14 10.5t-18 1.5q-27 1 -41.5 16t-14.5 33q0 21 17 35.5t42 14.5q35 0 59.5 -27t24.5 -74q0 -111 -130 -155zM274 406l-8 17q24 10 39.5 18.5t34.5 31.5t19 51q0 39 -43 39q-24 1 -37 15.5t-13 33.5
q0 23 16 36.5t41 13.5q36 0 60 -30.5t24 -72.5q0 -13 -3 -27.5t-14 -41t-41 -49.5t-75 -35z" />
    <glyph glyph-name="quotedblbase" unicode="&#x201e;" horiz-adv-x="479" 
d="M85 -147l-8 18q19 9 30 15t27.5 18.5t24.5 29.5t8 37q0 18 -7 27t-14 10.5t-18 1.5q-27 1 -41.5 16t-14.5 33q0 21 17 35.5t42 14.5q35 0 59.5 -27t24.5 -74q0 -111 -130 -155zM274 -147l-8 17q24 10 39.5 18.5t34.5 31.5t19 51q0 39 -43 39q-24 1 -37 15.5t-13 33.5
q0 23 16 36.5t41 13.5q36 0 60 -30.5t24 -72.5q0 -13 -3 -27.5t-14 -41t-41 -49.5t-75 -35z" />
    <glyph glyph-name="dagger" unicode="&#x2020;" horiz-adv-x="479" 
d="M206 650q3 0 14.5 -1t19.5 -1t21 1t15 1q-9 -83 -12 -233q106 0 183 8q0 -3 -0.5 -13t-0.5 -19q0 -7 0.5 -16t0.5 -13q-92 8 -183 8q0 -328 14 -555q-18 2 -35 2q-19 0 -39 -2q14 215 14 555q-119 0 -185 -8q3 27 3 31q0 6 -3 30q64 -5 116 -7q30 -1 69 -1q0 133 -12 233
z" />
    <glyph glyph-name="daggerdbl" unicode="&#x2021;" horiz-adv-x="479" 
d="M264 370v-273q104 0 183 10q-2 -16 -2 -34q0 -12 2 -28q-77 9 -183 9q0 -143 12 -237q-30 2 -37 2q-9 0 -35 -2q13 110 13 237q-97 -1 -184 -9q2 16 2 33q0 13 -2 29q89 -10 184 -10v273q-99 0 -184 -9q2 18 2 33q0 12 -2 28q87 -8 184 -9q0 111 -10 237q4 0 16.5 -1
t18.5 -1q4 0 16.5 1t17.5 1q-12 -89 -12 -237q94 1 183 9q-2 -16 -2 -27q0 -16 2 -34q-90 9 -183 9z" />
    <glyph glyph-name="bullet" unicode="&#x2022;" horiz-adv-x="350" 
d="M175 453q50 0 86 -35.5t36 -86.5t-35.5 -87t-86.5 -36t-87 36t-36 87t36 86.5t87 35.5z" />
    <glyph glyph-name="ellipsis" unicode="&#x2026;" horiz-adv-x="1000" 
d="M833 107q26 0 43 -18t17 -42q0 -25 -17 -42.5t-42 -17.5q-24 0 -42.5 18t-18.5 42q0 25 19 42.5t41 17.5zM500 107q26 0 43 -18t17 -42q0 -25 -17 -42.5t-42 -17.5q-24 0 -42.5 18t-18.5 42q0 25 19 42.5t41 17.5zM167 107q26 0 43 -18t17 -42q0 -25 -17 -42.5t-42 -17.5
q-24 0 -42.5 18t-18.5 42q0 25 19 42.5t41 17.5z" />
    <glyph glyph-name="perthousand" unicode="&#x2030;" horiz-adv-x="1010" 
d="M494 310q67 0 106.5 -45.5t39.5 -110.5q0 -68 -42.5 -117.5t-110.5 -49.5q-66 0 -105.5 45t-39.5 112q0 73 45.5 119.5t106.5 46.5zM492 286q-45 0 -64.5 -39.5t-19.5 -97.5q0 -138 81 -138q42 0 63.5 38.5t21.5 102.5q0 134 -82 134zM172 674q67 0 106.5 -45.5
t39.5 -110.5q0 -68 -42.5 -117.5t-110.5 -49.5q-66 0 -105.5 45t-39.5 112q0 73 45.5 119.5t106.5 46.5zM170 650q-45 0 -64.5 -39.5t-19.5 -97.5q0 -138 81 -138q42 0 63.5 38.5t21.5 102.5q0 134 -82 134zM844 310q67 0 106.5 -45.5t39.5 -110.5q0 -68 -42.5 -117.5
t-110.5 -49.5q-66 0 -105.5 45t-39.5 112q0 73 45.5 119.5t106.5 46.5zM842 286q-45 0 -64.5 -39.5t-19.5 -97.5q0 -138 81 -138q42 0 63.5 38.5t21.5 102.5q0 134 -82 134zM467 695h43l-312 -725h-44z" />
    <glyph glyph-name="guilsinglleft" unicode="&#x2039;" horiz-adv-x="271" 
d="M203 367l13 -12l-93 -135l95 -137l-13 -10l-153 147z" />
    <glyph glyph-name="guilsinglright" unicode="&#x203a;" horiz-adv-x="271" 
d="M67 367l151 -147l-153 -147l-13 10l95 137l-93 135z" />
    <glyph glyph-name="fraction" unicode="&#x2044;" horiz-adv-x="198" 
d="M298 674h49l-447 -692h-49z" />
    <glyph glyph-name="Euro" unicode="&#x20ac;" horiz-adv-x="536" 
d="M165 289h207l-5 -29h-199q19 -116 75 -181q55 -64 113 -64q38 0 76 39q38 38 47 106l17 -2l-11 -127q-73 -44 -151 -44q-96 0 -164 72q-66 69 -83 201h-65l5 29h57v24q0 17 1 31h-48l5 29h45q15 123 83 200q67 76 163 76q80 0 158 -45l5 -123h-17q-6 70 -50 106
q-42 36 -91 36q-68 0 -116 -62q-47 -61 -58 -188h223l-5 -29h-220q0 -30 3 -55z" />
    <glyph glyph-name="afii61289" unicode="&#x2113;" horiz-adv-x="347" 
d="M340 105q-41 -117 -128 -117q-46 0 -77 29q-37 37 -37 110v87q-4 -5 -54 -63l-21 25q65 76 75 90v243q0 88 32 145.5t87 57.5q42 0 62.5 -27.5t20.5 -72.5q0 -99 -70 -229q-41 -73 -53 -85v-173q0 -46 15.5 -69t38.5 -23q46 0 77 85zM266 610q0 67 -42 67q-47 0 -47 -127
v-189q26 45 32 58q57 107 57 191z" />
    <glyph glyph-name="trademark" unicode="&#x2122;" horiz-adv-x="980" 
d="M20 648h355l11 -98h-17q-6 43 -30.5 56t-64.5 13h-36v-284q0 -39 9 -50.5t43 -13.5v-17h-183v17q33 4 41 14t8 50v284h-37q-49 0 -67.5 -16.5t-25.5 -52.5h-17zM559 648l134 -279l129 279h136v-17q-36 -1 -45 -12.5t-9 -54.5v-229q0 -40 8.5 -51t45.5 -13v-17h-194v17
q38 1 48 13t10 51v240h-2l-148 -321h-16l-148 317h-2v-236q0 -24 1.5 -34.5t12 -20t32.5 -9.5h17v-17h-149v17q36 1 45.5 12.5t9.5 51.5v229q0 42 -8.5 54.5t-46.5 12.5v17h139z" />
    <glyph glyph-name="Omega" unicode="&#x2126;" horiz-adv-x="633" 
d="M591 0h-220v118q62 35 93.5 114.5t31.5 162.5q0 129 -45.5 206.5t-133.5 77.5q-90 0 -136 -79t-46 -206q0 -90 35 -172t96 -108v-114h-224v136h24q0 -20 1.5 -31t6.5 -23t17 -17t32 -5h105v31q-75 33 -126 114t-51 186q0 150 73.5 235.5t193.5 85.5t193 -92.5t73 -219.5
q0 -91 -45.5 -179.5t-129.5 -126.5v-34h101q20 0 32 5t17 17t6.5 23t1.5 31h24v-136z" />
    <glyph glyph-name="estimated" unicode="&#x212e;" horiz-adv-x="609" 
d="M573 270h-417v-196q60 -60 148 -60q131 0 206 127l27 -15q-47 -69 -101 -103.5t-132 -34.5q-119 0 -191.5 80.5t-72.5 201.5t71.5 201.5t191.5 80.5q122 0 193.5 -79t76.5 -203zM452 296v167q-62 63 -150 63t-146 -61v-169h296z" />
    <glyph glyph-name="partialdiff" unicode="&#x2202;" horiz-adv-x="447" 
d="M418 475q0 -61 -13.5 -138.5t-35.5 -135.5q-40 -105 -84.5 -159.5t-110.5 -54.5q-72 0 -109.5 57t-37.5 140q0 116 58 199t152 83q51 0 84.5 -28t44.5 -61h2q3 53 3 82q0 79 -30 140t-95 61q-77 0 -134 -75l-17 18q75 115 175 115q148 0 148 -243zM361 326
q-29 103 -110 103q-61 0 -104 -75.5t-43 -185.5q0 -69 27 -106t67 -37q41 0 76 49.5t55 113.5t32 138z" />
    <glyph glyph-name="Delta" unicode="&#x2206;" horiz-adv-x="524" 
d="M506 0h-486l216 712h60zM415 40l-168 545l-175 -545h343z" />
    <glyph glyph-name="product" unicode="&#x220f;" horiz-adv-x="608" 
d="M574 -131h-204v24h16q29 0 38 19t9 56v695h-259v-695q0 -38 8 -56.5t37 -18.5h16v-24h-202v24h16q29 0 37.5 19t8.5 56v633q0 19 -1 30.5t-5.5 23t-14 16.5t-25.5 5h-16v24h541v-24h-15q-29 0 -38 -18.5t-9 -56.5v-633q0 -37 9 -56t38 -19h15v-24z" />
    <glyph glyph-name="summation" unicode="&#x2211;" horiz-adv-x="482" 
d="M466 16l-11 -147h-443l-1 28l225 384l-217 393v26h422l7 -130h-22q-4 54 -16.5 73t-51.5 19h-256l195 -341l-225 -384h297q41 0 54.5 16.5t20.5 66.5z" />
    <glyph glyph-name="minus" unicode="&#x2212;" horiz-adv-x="667" 
d="M69 349h529v-61h-529v61z" />
    <glyph glyph-name="uni2215" unicode="&#x2215;" horiz-adv-x="198" 
d="M298 674h49l-447 -692h-49z" />
    <glyph glyph-name="uni2219" unicode="&#x2219;" horiz-adv-x="271" 
d="M136 378q26 0 43 -18t17 -42q0 -25 -17 -42.5t-42 -17.5q-24 0 -42.5 18t-18.5 42q0 25 19 42.5t41 17.5z" />
    <glyph glyph-name="radical" unicode="&#x221a;" horiz-adv-x="364" 
d="M275 728l-72 -740h-47l-96 339l-44 -31l-18 28l96 65l84 -312h2l64 651h31z" />
    <glyph glyph-name="infinity" unicode="&#x221e;" horiz-adv-x="643" 
d="M465 145q-50 0 -82 25t-57 71h-2q-58 -96 -142 -96q-56 0 -92.5 38t-36.5 97q0 60 35 98.5t92 38.5q88 0 135 -94h1q29 46 61.5 70t83.5 24q54 0 90.5 -37.5t36.5 -96.5t-35.5 -98.5t-87.5 -39.5zM466 379q-9 0 -18 -1.5t-15.5 -3t-14 -7t-12 -8t-12 -11.5t-10 -11.5
t-10.5 -14.5t-10 -14.5t-10.5 -17t-10.5 -17.5q45 -90 121 -90q42 0 66 29t24 68q0 44 -22 71.5t-66 27.5zM181 379h1q-42 0 -68.5 -26.5t-26.5 -71.5q0 -44 24 -71t67 -27q21 0 40 10t34.5 30.5t23.5 33.5t20 35q-16 36 -45 61.5t-70 25.5z" />
    <glyph glyph-name="integral" unicode="&#x222b;" horiz-adv-x="233" 
d="M220 701q0 -11 -5.5 -20.5t-16.5 -9.5q-13 0 -25 11q-16 12 -25 12q-20 0 -21 -41q0 -17 5.5 -65.5t7.5 -87.5q11 -128 11 -244q0 -148 -6 -224q-9 -130 -19 -169q-10 -37 -24.5 -55.5t-41.5 -18.5q-20 0 -36 12.5t-16 32.5q0 14 7.5 23t19.5 9t22 -14q7 -9 20 -9
q21 0 23 72q0 11 -2 31t-6 47t-5 43q-9 100 -9 219q0 84 5 206q4 143 14 211q15 76 66 76q25 0 41 -14t16 -33z" />
    <glyph glyph-name="approxequal" unicode="&#x2248;" horiz-adv-x="667" 
d="M627 454q-52 -127 -165 -127q-58 0 -153 39q-61 27 -107 27q-44 0 -71 -17.5t-50 -58.5l-40 19q49 127 167 127q52 0 140 -35q70 -31 122 -31q73 0 116 77zM627 260q-52 -126 -165 -126q-62 0 -153 39q-63 26 -107 26t-71 -17.5t-50 -58.5l-40 20q49 126 167 126
q55 0 140 -34q70 -31 122 -31q74 0 116 77z" />
    <glyph glyph-name="notequal" unicode="&#x2260;" horiz-adv-x="667" 
d="M605 175h-315l-92 -150h-67l91 150h-160v61h198l76 124h-274v61h312l95 155h67l-95 -155h164v-61h-201l-76 -124h277v-61z" />
    <glyph glyph-name="lessequal" unicode="&#x2264;" horiz-adv-x="667" 
d="M605 0h-543v61h543v-61zM605 118l-543 212v59l543 212v-66l-454 -175l454 -176v-66z" />
    <glyph glyph-name="greaterequal" unicode="&#x2265;" horiz-adv-x="667" 
d="M605 0h-543v61h543v-61zM605 330l-543 -212v66l454 175l-454 176v65l543 -211v-59z" />
    <glyph glyph-name="lozenge" unicode="&#x25ca;" horiz-adv-x="344" 
d="M337 349l-147 -361h-40l-141 361l141 363h41zM294 349l-123 306l-119 -306l119 -306z" />
    <glyph glyph-name="A.small" unicode="&#xe000;" 
d="M243 393l-68 -192h139zM291 478l147 -403q13 -35 26 -45t44 -10v-22q-50 2 -98 2q-44 0 -97 -2v22q38 0 48.5 14.5t-0.5 37.5l-35 95h-162q-3 -8 -10 -26l-10.5 -27t-7.5 -22.5t-6 -24t-2 -20.5q0 -15 11.5 -21t44.5 -6v-22q-17 0 -32.5 0.5t-25.5 1t-23 0.5
q-42 0 -81 -2v22q38 0 50.5 12.5t32.5 64.5l102 260q26 66 29 99z" />
    <glyph glyph-name="AE.small" unicode="&#xe001;" horiz-adv-x="698" 
d="M361 439l-114 -193h114v193zM273 435v21q61 -2 164 -2q134 0 187 2l9 -85h-20q-14 59 -83 59h-95v-184h79q24 0 33.5 14.5t9.5 49.5h22q-2 -36 -2 -85q0 -41 2 -65h-22q1 31 -8.5 44.5t-38.5 13.5h-75v-149q0 -19 4 -27.5t25.5 -15t65.5 -6.5q60 0 81.5 14t37.5 62h24
l-25 -98q-118 2 -179 2q-94 0 -180 -2v22q28 0 36 0.5t19.5 5.5t13.5 16.5t2 33.5v142h-128l-71 -124q-29 -52 -23.5 -63t57.5 -11v-22q-56 2 -81 2q-27 0 -81 -2v20h11.5h10.5t8.5 0.5t9 2.5t8.5 5t9.5 8.5t10 12.5t12.5 17t14 22.5t17 28.5l160 275q15 25 8.5 35t-39.5 10
z" />
    <glyph glyph-name="Aacute.small" unicode="&#xe002;" 
d="M243 393l-68 -192h139zM291 478l147 -403q13 -35 26 -45t44 -10v-22q-50 2 -98 2q-44 0 -97 -2v22q38 0 48.5 14.5t-0.5 37.5l-35 95h-162q-3 -8 -10 -26l-10.5 -27t-7.5 -22.5t-6 -24t-2 -20.5q0 -15 11.5 -21t44.5 -6v-22q-17 0 -32.5 0.5t-25.5 1t-23 0.5
q-42 0 -81 -2v22q38 0 50.5 12.5t32.5 64.5l102 260q26 66 29 99zM301 730l40 -23l-131 -205l-13 7z" />
    <glyph glyph-name="Acircumflex.small" unicode="&#xe003;" 
d="M243 393l-68 -192h139zM291 478l147 -403q13 -35 26 -45t44 -10v-22q-50 2 -98 2q-44 0 -97 -2v22q38 0 48.5 14.5t-0.5 37.5l-35 95h-162q-3 -8 -10 -26l-10.5 -27t-7.5 -22.5t-6 -24t-2 -20.5q0 -15 11.5 -21t44.5 -6v-22q-17 0 -32.5 0.5t-25.5 1t-23 0.5
q-42 0 -81 -2v22q38 0 50.5 12.5t32.5 64.5l102 260q26 66 29 99zM266 731h7l110 -221l-14 -8l-100 143l-108 -143l-14 8z" />
    <glyph glyph-name="Adieresis.small" unicode="&#xe004;" 
d="M243 393l-68 -192h139zM291 478l147 -403q13 -35 26 -45t44 -10v-22q-50 2 -98 2q-44 0 -97 -2v22q38 0 48.5 14.5t-0.5 37.5l-35 95h-162q-3 -8 -10 -26l-10.5 -27t-7.5 -22.5t-6 -24t-2 -20.5q0 -15 11.5 -21t44.5 -6v-22q-17 0 -32.5 0.5t-25.5 1t-23 0.5
q-42 0 -81 -2v22q38 0 50.5 12.5t32.5 64.5l102 260q26 66 29 99zM178 631q19 0 31 -12.5t12 -29.5t-12.5 -29.5t-29.5 -12.5t-29.5 12.5t-12.5 29.5q0 18 12.5 30t28.5 12zM352 631q19 0 31 -12.5t12 -29.5t-12 -29.5t-30 -12.5q-17 0 -29.5 12.5t-12.5 29.5q0 18 12.5 30
t28.5 12z" />
    <glyph glyph-name="Agrave.small" unicode="&#xe005;" 
d="M243 393l-68 -192h139zM291 478l147 -403q13 -35 26 -45t44 -10v-22q-50 2 -98 2q-44 0 -97 -2v22q38 0 48.5 14.5t-0.5 37.5l-35 95h-162q-3 -8 -10 -26l-10.5 -27t-7.5 -22.5t-6 -24t-2 -20.5q0 -15 11.5 -21t44.5 -6v-22q-17 0 -32.5 0.5t-25.5 1t-23 0.5
q-42 0 -81 -2v22q38 0 50.5 12.5t32.5 64.5l102 260q26 66 29 99zM230 730l104 -221l-13 -7l-131 205z" />
    <glyph glyph-name="Aring.small" unicode="&#xe006;" 
d="M243 393l-68 -192h139zM291 478l147 -403q13 -35 26 -45t44 -10v-22q-50 2 -98 2q-44 0 -97 -2v22q38 0 48.5 14.5t-0.5 37.5l-35 95h-162q-3 -8 -10 -26l-10.5 -27t-7.5 -22.5t-6 -24t-2 -20.5q0 -15 11.5 -21t44.5 -6v-22q-17 0 -32.5 0.5t-25.5 1t-23 0.5
q-42 0 -81 -2v22q38 0 50.5 12.5t32.5 64.5l102 260q26 66 29 99zM263 679q38 0 62.5 -25.5t24.5 -59.5q0 -35 -25 -60t-60 -25t-60 25t-25 60q0 36 25.5 60.5t57.5 24.5zM266 650q-30 0 -43.5 -18t-13.5 -38q0 -23 16 -39.5t40 -16.5q23 0 39.5 16t16.5 40t-17 40t-38 16z
" />
    <glyph glyph-name="Atilde.small" unicode="&#xe007;" 
d="M243 393l-68 -192h139zM291 478l147 -403q13 -35 26 -45t44 -10v-22q-50 2 -98 2q-44 0 -97 -2v22q38 0 48.5 14.5t-0.5 37.5l-35 95h-162q-3 -8 -10 -26l-10.5 -27t-7.5 -22.5t-6 -24t-2 -20.5q0 -15 11.5 -21t44.5 -6v-22q-17 0 -32.5 0.5t-25.5 1t-23 0.5
q-42 0 -81 -2v22q38 0 50.5 12.5t32.5 64.5l102 260q26 66 29 99zM206 638q38 0 82 -43q35 -35 60 -35q17 0 27.5 8.5t10.5 17.5q0 6 -6 13q-8 10 -8 20q0 9 5.5 14t12.5 5q11 0 17.5 -9t6.5 -23q0 -30 -29 -52t-64 -22q-41 0 -87 45q-34 33 -58 33q-14 0 -24 -8.5
t-10 -19.5q0 -8 8 -16q7 -9 7 -16q0 -17 -17 -17q-23 0 -23 29q0 31 26 53.5t63 22.5z" />
    <glyph glyph-name="B.small" unicode="&#xe008;" horiz-adv-x="479" 
d="M168 430v-174h42q107 0 107 94q0 38 -26 61.5t-75 23.5q-11 0 -48 -5zM168 234v-142q0 -43 13 -57.5t54 -14.5q67 0 96 26.5t29 80.5q0 51 -38 79t-105 28h-49zM33 435v22q72 -3 96 -3q18 0 53.5 1.5t58.5 1.5q46 0 78.5 -10.5t47.5 -27t20.5 -31t5.5 -29.5
q0 -91 -122 -111q52 -1 88.5 -13t52.5 -32t22.5 -37.5t6.5 -36.5q0 -17 -6.5 -35.5t-24.5 -42t-60.5 -38.5t-102.5 -15q-21 0 -53 1t-50 1q-19 0 -32.5 -0.5t-34.5 -1t-44 -0.5v22q37 0 48.5 9.5t11.5 44.5v319q0 23 -10.5 32.5t-49.5 9.5z" />
    <glyph glyph-name="C.small" unicode="&#xe009;" 
d="M486 118l-19 -98q-76 -33 -160 -33q-69 0 -122 21.5t-82 56.5t-43.5 74t-14.5 80q0 108 70.5 178t181.5 70q49 0 104 -13.5t74 -15.5l11 -103h-19q-27 108 -149 108q-92 0 -139.5 -57.5t-47.5 -140.5q0 -35 10 -72.5t30.5 -75.5t59 -62t89.5 -24q55 0 88 28.5t57 78.5h21
z" />
    <glyph glyph-name="Ccedilla.small" unicode="&#xe00a;" 
d="M359 -10q-43 -41 -47 -45q50 -11 50 -53q0 -29 -26.5 -48.5t-61.5 -19.5q-17 0 -33.5 11.5t-16.5 22.5q0 16 17 16q11 0 23 -17t25 -17q11 0 21.5 9.5t10.5 22.5q0 16 -11 28t-31 12q-19 0 -19 5q0 1 22 23q28 28 42 47q-62 -2 -112 13t-80.5 39.5t-50.5 56.5t-28 62.5
t-8 60.5q0 109 70 178.5t182 69.5q49 0 104 -13.5t74 -15.5l11 -103h-19q-27 108 -149 108q-50 0 -88 -18.5t-58.5 -48.5t-30.5 -63t-10 -68q0 -52 17.5 -103t62.5 -91t109 -40q97 0 145 107h21l-19 -98q-42 -19 -108 -30z" />
    <glyph glyph-name="D.small" unicode="&#xe00b;" horiz-adv-x="583" 
d="M174 424v-328q0 -42 18.5 -58t68.5 -16q90 0 140.5 55.5t50.5 151.5q0 103 -61.5 153.5t-143.5 50.5q-54 0 -73 -9zM32 435v22q67 -3 102 -3q7 0 49.5 1.5t63.5 1.5q77 0 134 -20t86 -47t46 -63t21 -59.5t4 -45.5q0 -24 -6 -50.5t-23.5 -58.5t-44.5 -57t-74 -41.5
t-108 -16.5q-18 0 -58 1t-71 1q-28 0 -122 -2v22q36 0 52 10.5t16 41.5v306q0 33 -14.5 45t-52.5 12z" />
    <glyph glyph-name="E.small" unicode="&#xe00c;" horiz-adv-x="470" 
d="M35 435v22q45 -3 125 -3q107 0 217 3l6 -95h-19q-4 26 -12 41.5t-21 22t-23.5 8t-28.5 1.5h-9q-44 1 -85 -3v-180h85q23 0 39 14t16 44h20q-3 -32 -3 -72q0 -6 3 -72h-20q0 29 -15 44t-53 15h-72v-130q0 -47 16.5 -59.5t81.5 -12.5q60 0 87.5 12.5t48.5 61.5h22l-27 -99
q-96 2 -189 2q-109 0 -191 -2v22q47 0 60.5 11t15.5 42v320q0 25 -15.5 33.5t-59.5 8.5z" />
    <glyph glyph-name="Eacute.small" unicode="&#xe00d;" horiz-adv-x="470" 
d="M35 435v22q45 -3 125 -3q107 0 217 3l6 -95h-19q-4 26 -12 41.5t-21 22t-23.5 8t-28.5 1.5h-9q-44 1 -85 -3v-180h85q23 0 39 14t16 44h20q-3 -32 -3 -72q0 -6 3 -72h-20q0 29 -15 44t-53 15h-72v-130q0 -47 16.5 -59.5t81.5 -12.5q60 0 87.5 12.5t48.5 61.5h22l-27 -99
q-96 2 -189 2q-109 0 -191 -2v22q47 0 60.5 11t15.5 42v320q0 25 -15.5 33.5t-59.5 8.5zM271 730l40 -23l-131 -205l-13 7z" />
    <glyph glyph-name="Ecircumflex.small" unicode="&#xe00e;" horiz-adv-x="470" 
d="M35 435v22q45 -3 125 -3q107 0 217 3l6 -95h-19q-4 26 -12 41.5t-21 22t-23.5 8t-28.5 1.5h-9q-44 1 -85 -3v-180h85q23 0 39 14t16 44h20q-3 -32 -3 -72q0 -6 3 -72h-20q0 29 -15 44t-53 15h-72v-130q0 -47 16.5 -59.5t81.5 -12.5q60 0 87.5 12.5t48.5 61.5h22l-27 -99
q-96 2 -189 2q-109 0 -191 -2v22q47 0 60.5 11t15.5 42v320q0 25 -15.5 33.5t-59.5 8.5zM236 731h7l110 -221l-14 -8l-100 143l-108 -143l-14 8z" />
    <glyph glyph-name="Edieresis.small" unicode="&#xe00f;" horiz-adv-x="470" 
d="M35 435v22q45 -3 125 -3q107 0 217 3l6 -95h-19q-4 26 -12 41.5t-21 22t-23.5 8t-28.5 1.5h-9q-44 1 -85 -3v-180h85q23 0 39 14t16 44h20q-3 -32 -3 -72q0 -6 3 -72h-20q0 29 -15 44t-53 15h-72v-130q0 -47 16.5 -59.5t81.5 -12.5q60 0 87.5 12.5t48.5 61.5h22l-27 -99
q-96 2 -189 2q-109 0 -191 -2v22q47 0 60.5 11t15.5 42v320q0 25 -15.5 33.5t-59.5 8.5zM148 631q19 0 31 -12.5t12 -29.5t-12.5 -29.5t-29.5 -12.5t-29.5 12.5t-12.5 29.5q0 18 12.5 30t28.5 12zM322 631q19 0 31 -12.5t12 -29.5t-12 -29.5t-30 -12.5q-17 0 -29.5 12.5
t-12.5 29.5q0 18 12.5 30t28.5 12z" />
    <glyph glyph-name="Egrave.small" unicode="&#xe010;" horiz-adv-x="470" 
d="M35 435v22q45 -3 125 -3q107 0 217 3l6 -95h-19q-4 26 -12 41.5t-21 22t-23.5 8t-28.5 1.5h-9q-44 1 -85 -3v-180h85q23 0 39 14t16 44h20q-3 -32 -3 -72q0 -6 3 -72h-20q0 29 -15 44t-53 15h-72v-130q0 -47 16.5 -59.5t81.5 -12.5q60 0 87.5 12.5t48.5 61.5h22l-27 -99
q-96 2 -189 2q-109 0 -191 -2v22q47 0 60.5 11t15.5 42v320q0 25 -15.5 33.5t-59.5 8.5zM200 730l104 -221l-13 -7l-131 205z" />
    <glyph glyph-name="Eth.small" unicode="&#xe011;" horiz-adv-x="583" 
d="M174 248h108v-22h-108v-130q0 -42 18.5 -58t68.5 -16q90 0 140.5 55.5t50.5 151.5q0 103 -61.5 153.5t-143.5 50.5q-52 0 -73 -9v-176zM99 226h-69v22h69v130q0 30 -13 43.5t-54 13.5v22q67 -3 102 -3q7 0 49.5 1.5t63.5 1.5q77 0 134 -20t86 -47t46 -63t21 -59.5
t4 -45.5q0 -24 -6 -50.5t-23.5 -58.5t-44.5 -57t-74 -41.5t-108 -16.5q-18 0 -58 1t-71 1q-28 0 -122 -2v22q36 0 52 10.5t16 41.5v154z" />
    <glyph glyph-name="F.small" unicode="&#xe012;" horiz-adv-x="411" 
d="M40 435v22q79 -3 166 -3q81 0 172 3l3 -99h-20q-6 37 -30.5 57t-77.5 20q-43 0 -77 -2v-182h86q20 0 30 2t19.5 14.5t9.5 38.5h21q-2 -46 -2 -72q0 -50 2 -73h-21q0 62 -55 62h-90v-129q0 -49 12 -61.5t56 -12.5v-22q-58 2 -100 2q-44 0 -104 -2v22q34 0 47.5 8.5
t13.5 37.5v313q0 31 -11 43.5t-50 12.5z" />
    <glyph glyph-name="G.small" unicode="&#xe013;" horiz-adv-x="583" 
d="M497 34v-16q-108 -31 -167 -31q-74 0 -131 22t-89.5 59t-48.5 80.5t-16 91.5q0 33 13.5 69.5t42 73t83 60.5t126.5 24q36 0 92.5 -10t78.5 -10l8 -109l-21 -2q-17 108 -152 108q-77 0 -130 -56.5t-53 -149.5q0 -108 60.5 -167.5t139.5 -59.5q33 0 72 13v90q0 33 -14.5 45
t-48.5 12v22q57 -2 95 -2q47 0 95 2v-22q-34 0 -43 -12t-9 -62v-31.5t3.5 -17t4 -8t9.5 -6.5z" />
    <glyph glyph-name="H.small" unicode="&#xe014;" horiz-adv-x="583" 
d="M31 435v21q68 -2 100 -2q21 0 95 2v-21q-36 0 -48 -8t-12 -37v-139h251v147q0 19 -12.5 28t-49.5 9v21q64 -2 98 -2q54 0 98 2v-21q-35 0 -47 -9t-12 -32v-337q0 -22 12 -29.5t47 -7.5v-22q-48 2 -91 2q-57 0 -105 -2v22q35 1 48.5 8.5t13.5 31.5v161h-251v-147
q0 -33 14 -43.5t46 -10.5v-22q-44 2 -94 2q-17 0 -51.5 -1t-49.5 -1v22q34 0 47 10t13 44v311q0 19 -3.5 29.5t-14 15t-17 5t-25.5 0.5z" />
    <glyph glyph-name="I.small" unicode="&#xe015;" horiz-adv-x="271" 
d="M41 435v22q46 -3 89 -3q47 0 102 3v-22q-33 0 -46.5 -10.5t-13.5 -36.5v-315q0 -34 12.5 -43.5t47.5 -9.5v-22q-90 2 -92 2q-53 0 -100 -2v22q36 0 46.5 10.5t10.5 43.5v302q0 36 -12 47.5t-44 11.5z" />
    <glyph glyph-name="Iacute.small" unicode="&#xe016;" horiz-adv-x="271" 
d="M41 435v22q46 -3 89 -3q47 0 102 3v-22q-33 0 -46.5 -10.5t-13.5 -36.5v-315q0 -34 12.5 -43.5t47.5 -9.5v-22q-90 2 -92 2q-53 0 -100 -2v22q36 0 46.5 10.5t10.5 43.5v302q0 36 -12 47.5t-44 11.5zM171 730l40 -23l-131 -205l-13 7z" />
    <glyph glyph-name="Icircumflex.small" unicode="&#xe017;" horiz-adv-x="271" 
d="M41 435v22q46 -3 89 -3q47 0 102 3v-22q-33 0 -46.5 -10.5t-13.5 -36.5v-315q0 -34 12.5 -43.5t47.5 -9.5v-22q-90 2 -92 2q-53 0 -100 -2v22q36 0 46.5 10.5t10.5 43.5v302q0 36 -12 47.5t-44 11.5zM136 731h7l110 -221l-14 -8l-100 143l-108 -143l-14 8z" />
    <glyph glyph-name="Idieresis.small" unicode="&#xe018;" horiz-adv-x="271" 
d="M41 435v22q46 -3 89 -3q47 0 102 3v-22q-33 0 -46.5 -10.5t-13.5 -36.5v-315q0 -34 12.5 -43.5t47.5 -9.5v-22q-90 2 -92 2q-53 0 -100 -2v22q36 0 46.5 10.5t10.5 43.5v302q0 36 -12 47.5t-44 11.5zM48 631q19 0 31 -12.5t12 -29.5t-12.5 -29.5t-29.5 -12.5t-29.5 12.5
t-12.5 29.5q0 18 12.5 30t28.5 12zM222 631q19 0 31 -12.5t12 -29.5t-12 -29.5t-30 -12.5q-17 0 -29.5 12.5t-12.5 29.5q0 18 12.5 30t28.5 12z" />
    <glyph glyph-name="Igrave.small" unicode="&#xe019;" horiz-adv-x="271" 
d="M41 435v22q46 -3 89 -3q47 0 102 3v-22q-33 0 -46.5 -10.5t-13.5 -36.5v-315q0 -34 12.5 -43.5t47.5 -9.5v-22q-90 2 -92 2q-53 0 -100 -2v22q36 0 46.5 10.5t10.5 43.5v302q0 36 -12 47.5t-44 11.5zM100 730l104 -221l-13 -7l-131 205z" />
    <glyph glyph-name="J.small" unicode="&#xe01a;" horiz-adv-x="267" 
d="M38 435v22q47 -3 92 -3q55 0 109 3v-22q-37 0 -49.5 -11.5t-12.5 -37.5v-394q0 -83 -39 -124.5t-84 -41.5q-12 0 -16.5 2t-4.5 12q0 14 16 14q33 0 43 15.5t10 61.5v452q0 33 -12 42.5t-52 9.5z" />
    <glyph glyph-name="K.small" unicode="&#xe01b;" 
d="M47 435v22q59 -3 87 -3q46 0 98 3v-22q-35 0 -45.5 -10t-10.5 -36v-319q0 -27 13 -38.5t42 -11.5v-22q-24 0 -49.5 1t-42.5 1q-47 0 -92 -2v22q37 0 45.5 9t8.5 43v325q0 21 -10 29.5t-44 8.5zM317 435v22q53 -3 83 -3q43 0 87 3v-22q-45 0 -89 -30.5t-154 -136.5
l171 -201q22 -25 40.5 -36t44.5 -11v-22q-34 2 -66 2q-23 0 -66 -2q-18 30 -45 62l-143 169l162 171q14 17 6 26t-31 9z" />
    <glyph glyph-name="L.small" unicode="&#xe01c;" horiz-adv-x="457" 
d="M40 435v22q52 -3 99 -3q43 0 106 3v-22q-43 0 -56 -10.5t-13 -40.5v-290q0 -42 17 -56t80 -14q66 0 93 17.5t43 63.5h20q-15 -66 -26 -107q-64 2 -163 2q-128 0 -200 -2v22q39 0 50 10.5t11 51.5v306q0 27 -13.5 37t-47.5 10z" />
    <glyph glyph-name="Lslash.small" unicode="&#xe01d;" horiz-adv-x="457" 
d="M176 243v-149q0 -41 17.5 -55.5t79.5 -14.5q66 0 93 17.5t43 63.5h20q-7 -29 -14 -59.5t-11 -47.5q-71 2 -164 2q-128 0 -200 -2v22q39 0 50 10.5t11 51.5v110l-88 -60v26l88 59v171q0 27 -13.5 37t-47.5 10v22q52 -3 99 -3q43 0 106 3v-22q-43 0 -56 -9.5t-13 -41.5
v-116l117 78v-24z" />
    <glyph glyph-name="M.small" unicode="&#xe01e;" horiz-adv-x="698" 
d="M67 435v22q2 0 62 -3q30 0 61 3q59 -136 163 -352q142 319 156 352q45 -3 63 -3q39 0 69 3v-22q-39 0 -49 -9.5t-9 -38.5l10 -281q1 -32 4.5 -49.5t14.5 -25.5t21 -9.5t35 -1.5v-22q-56 2 -106 2q-52 0 -106 -2v22q37 0 50.5 11t12.5 45l-11 306q-121 -258 -174 -389h-10
l-171 360l-16 -247q-4 -53 9.5 -69.5t56.5 -16.5v-22q-42 2 -87 2q-42 0 -83 -2v22q42 0 57.5 14.5t19.5 73.5l17 265q2 38 -9 50t-51 12z" />
    <glyph glyph-name="N.small" unicode="&#xe01f;" horiz-adv-x="583" 
d="M19 435v22q30 -3 70 -3q33 0 65 3l296 -338v236q0 48 -18.5 64t-56.5 16v22q42 -3 86 -3q41 0 79 3v-22q-34 0 -46.5 -12t-12.5 -56v-380h-14l-334 381v-264q0 -84 80 -84v-22q-49 2 -96 2q-52 0 -95 -2v22q40 0 60 18t20 46v291q0 33 -20 46.5t-63 13.5z" />
    <glyph glyph-name="Ntilde.small" unicode="&#xe020;" horiz-adv-x="583" 
d="M19 435v22q30 -3 70 -3q33 0 65 3l296 -338v236q0 48 -18.5 64t-56.5 16v22q42 -3 86 -3q41 0 79 3v-22q-34 0 -46.5 -12t-12.5 -56v-380h-14l-334 381v-264q0 -84 80 -84v-22q-49 2 -96 2q-52 0 -95 -2v22q40 0 60 18t20 46v291q0 33 -20 46.5t-63 13.5zM232 638
q38 0 82 -43q35 -35 60 -35q17 0 27.5 8.5t10.5 17.5q0 6 -6 13q-8 10 -8 20q0 9 5.5 14t12.5 5q11 0 17.5 -9t6.5 -23q0 -30 -29 -52t-64 -22q-41 0 -87 45q-34 33 -58 33q-14 0 -24 -8.5t-10 -19.5q0 -8 8 -16q7 -9 7 -16q0 -17 -17 -17q-23 0 -23 29q0 31 26 53.5
t63 22.5z" />
    <glyph glyph-name="O.small" unicode="&#xe021;" horiz-adv-x="583" 
d="M294 467q105 0 174.5 -64.5t69.5 -173.5q0 -96 -68.5 -169t-174.5 -73q-110 0 -180 63.5t-70 171.5q0 105 70.5 175t178.5 70zM282 443q-66 0 -108.5 -56.5t-42.5 -136.5q0 -110 50 -174.5t117 -64.5q72 0 113 56.5t41 138.5q0 98 -48 167.5t-122 69.5z" />
    <glyph glyph-name="OE.small" unicode="&#xe022;" horiz-adv-x="735" 
d="M422 69v311q0 38 -21.5 50.5t-65.5 12.5q-76 0 -131.5 -55t-55.5 -160q0 -87 51.5 -152t133.5 -65q89 0 89 58zM722 100l-21 -102q-54 2 -97 2q-17 0 -67 -1t-59 -1q-23 0 -83 -5.5t-78 -5.5q-120 0 -188.5 72.5t-68.5 168.5q0 58 28.5 111.5t90 90.5t143.5 37
q36 0 114 -5.5t83 -5.5q9 0 30.5 -1t35.5 -1q56 0 90 2l11 -85h-24q-10 60 -83 60h-82v-183h68q24 0 33.5 15t9.5 51h22q-1 -19 -1 -79q0 -40 1 -77h-22q0 40 -12 50.5t-63 10.5h-36v-134q0 -41 19 -52t84 -10q42 1 62.5 14.5t39.5 62.5h20z" />
    <glyph glyph-name="Oacute.small" unicode="&#xe023;" horiz-adv-x="583" 
d="M294 467q105 0 174.5 -64.5t69.5 -173.5q0 -96 -68.5 -169t-174.5 -73q-110 0 -180 63.5t-70 171.5q0 105 70.5 175t178.5 70zM282 443q-66 0 -108.5 -56.5t-42.5 -136.5q0 -110 50 -174.5t117 -64.5q72 0 113 56.5t41 138.5q0 98 -48 167.5t-122 69.5zM327 730l40 -23
l-131 -205l-13 7z" />
    <glyph glyph-name="Ocircumflex.small" unicode="&#xe024;" horiz-adv-x="583" 
d="M294 467q105 0 174.5 -64.5t69.5 -173.5q0 -96 -68.5 -169t-174.5 -73q-110 0 -180 63.5t-70 171.5q0 105 70.5 175t178.5 70zM282 443q-66 0 -108.5 -56.5t-42.5 -136.5q0 -110 50 -174.5t117 -64.5q72 0 113 56.5t41 138.5q0 98 -48 167.5t-122 69.5zM292 731h7
l110 -221l-14 -8l-100 143l-108 -143l-14 8z" />
    <glyph glyph-name="Odieresis.small" unicode="&#xe025;" horiz-adv-x="583" 
d="M294 467q105 0 174.5 -64.5t69.5 -173.5q0 -96 -68.5 -169t-174.5 -73q-110 0 -180 63.5t-70 171.5q0 105 70.5 175t178.5 70zM282 443q-66 0 -108.5 -56.5t-42.5 -136.5q0 -110 50 -174.5t117 -64.5q72 0 113 56.5t41 138.5q0 98 -48 167.5t-122 69.5zM204 631
q19 0 31 -12.5t12 -29.5t-12.5 -29.5t-29.5 -12.5t-29.5 12.5t-12.5 29.5q0 18 12.5 30t28.5 12zM378 631q19 0 31 -12.5t12 -29.5t-12 -29.5t-30 -12.5q-17 0 -29.5 12.5t-12.5 29.5q0 18 12.5 30t28.5 12z" />
    <glyph glyph-name="Ograve.small" unicode="&#xe026;" horiz-adv-x="583" 
d="M294 467q105 0 174.5 -64.5t69.5 -173.5q0 -96 -68.5 -169t-174.5 -73q-110 0 -180 63.5t-70 171.5q0 105 70.5 175t178.5 70zM282 443q-66 0 -108.5 -56.5t-42.5 -136.5q0 -110 50 -174.5t117 -64.5q72 0 113 56.5t41 138.5q0 98 -48 167.5t-122 69.5zM256 730l104 -221
l-13 -7l-131 205z" />
    <glyph glyph-name="Oslash.small" unicode="&#xe027;" horiz-adv-x="583" 
d="M157 115l255 247q-52 81 -130 81q-64 0 -107.5 -55t-43.5 -145q0 -66 26 -128zM425 336l-253 -246q49 -79 131 -79q68 0 108.5 59t40.5 142q0 75 -27 124zM45 6l57 56q-57 65 -57 165q0 94 66.5 167t185.5 73q97 0 164 -57l60 57l17 -19l-57 -57q57 -61 57 -161
q0 -96 -70.5 -169.5t-170.5 -73.5q-53 0 -91 12.5t-84 42.5l-55 -55z" />
    <glyph glyph-name="Otilde.small" unicode="&#xe028;" horiz-adv-x="583" 
d="M294 467q105 0 174.5 -64.5t69.5 -173.5q0 -96 -68.5 -169t-174.5 -73q-110 0 -180 63.5t-70 171.5q0 105 70.5 175t178.5 70zM282 443q-66 0 -108.5 -56.5t-42.5 -136.5q0 -110 50 -174.5t117 -64.5q72 0 113 56.5t41 138.5q0 98 -48 167.5t-122 69.5zM232 638
q38 0 82 -43q35 -35 60 -35q17 0 27.5 8.5t10.5 17.5q0 6 -6 13q-8 10 -8 20q0 9 5.5 14t12.5 5q11 0 17.5 -9t6.5 -23q0 -30 -29 -52t-64 -22q-41 0 -87 45q-34 33 -58 33q-14 0 -24 -8.5t-10 -19.5q0 -8 8 -16q7 -9 7 -16q0 -17 -17 -17q-23 0 -23 29q0 31 26 53.5
t63 22.5z" />
    <glyph glyph-name="P.small" unicode="&#xe029;" horiz-adv-x="429" 
d="M31 435v22q57 -3 118 -3q6 0 44.5 1.5t45.5 1.5q54 0 91.5 -13.5t54 -35.5t23 -41.5t6.5 -38.5q0 -67 -55.5 -104t-137.5 -33v22q46 -5 76.5 16.5t30.5 75.5q0 68 -37 103t-116 24v-350q0 -38 14 -50t54 -12v-22q-84 2 -105 2q-35 0 -107 -2v22q43 0 56 12.5t13 46.5v307
q0 30 -16 39.5t-53 9.5z" />
    <glyph glyph-name="Q.small" unicode="&#xe02a;" horiz-adv-x="583" 
d="M561 -128l1 -13q-31 -27 -61 -27q-52 0 -130 72q-66 63 -116 82q-37 7 -69 20.5t-66.5 40t-54.5 74t-20 110.5q0 37 14.5 76.5t43 76t78.5 60t114 23.5q122 0 182.5 -71t60.5 -166q0 -94 -59.5 -160t-131.5 -78q38 -21 100 -65q10 -7 24.5 -17.5t19 -14t15 -10.5t13 -7
t13 -4.5t13.5 -2t16 0.5zM282 443q-62 0 -106.5 -55t-44.5 -138q0 -107 49 -173t118 -66q72 0 113 54.5t41 140.5q0 91 -45 164t-125 73z" />
    <glyph glyph-name="R.small" unicode="&#xe02b;" horiz-adv-x="550" 
d="M175 429v-190h47q108 0 108 99q0 45 -30.5 70t-82.5 25q-23 0 -42 -4zM38 435v22q67 -3 79 -3q8 0 52.5 1.5t63.5 1.5q87 0 132 -32t45 -76q0 -41 -20.5 -69t-71.5 -47q70 -107 140 -177q36 -36 80 -36v-22q-35 2 -63 2q-7 0 -15.5 -0.5t-23 -1t-28.5 -0.5
q-91 93 -162 217h-71v-141q0 -37 12.5 -45.5t55.5 -8.5v-22q-74 2 -103 2q-38 0 -104 -2v22q23 0 31.5 0.5t18 5.5t12 15.5t2.5 30.5v318q0 26 -12.5 35.5t-49.5 9.5z" />
    <glyph glyph-name="S.small" unicode="&#xe02c;" horiz-adv-x="357" 
d="M39 105h21q24 -94 106 -94q45 0 71 23.5t26 54.5q0 17 -5.5 30.5t-19.5 25.5t-25.5 19.5t-36.5 22t-39 23.5q-82 52 -82 127q0 18 6 37t21 41.5t49 37t82 14.5q34 0 79 -6l12 -88h-19q-8 42 -31 56t-59 14q-30 0 -55 -21t-25 -57q0 -18 8 -33t23 -27t27 -19t30 -16
q76 -37 102.5 -73t26.5 -79q0 -51 -44 -91t-125 -40q-47 0 -104 20z" />
    <glyph glyph-name="Scaron.small" unicode="&#xe02d;" horiz-adv-x="357" 
d="M39 105h21q24 -94 106 -94q45 0 71 23.5t26 54.5q0 17 -5.5 30.5t-19.5 25.5t-25.5 19.5t-36.5 22t-39 23.5q-82 52 -82 127q0 18 6 37t21 41.5t49 37t82 14.5q34 0 79 -6l12 -88h-19q-8 42 -31 56t-59 14q-30 0 -55 -21t-25 -57q0 -18 8 -33t23 -27t27 -19t30 -16
q76 -37 102.5 -73t26.5 -79q0 -51 -44 -91t-125 -40q-47 0 -104 20zM179 502l-119 221l14 8l108 -143l100 143l14 -8l-110 -221h-7z" />
    <glyph glyph-name="T.small" unicode="&#xe02e;" horiz-adv-x="479" 
d="M31 482h18q0 -10 12.5 -18t23.5 -8h308q32 0 46 25h20l-13 -120h-22q4 31 -10 48.5t-36 17.5h-101v-338q0 -45 13 -57t53 -12v-22q-76 2 -104 2q-42 0 -106 -2v22q44 0 56.5 13.5t12.5 67.5v326h-94q-59 0 -68 -63h-21z" />
    <glyph glyph-name="Thorn.small" unicode="&#xe02f;" horiz-adv-x="429" 
d="M242 456v-21q-44 -1 -58.5 -10.5t-14.5 -40.5v-28h46q104 0 149.5 -38t45.5 -89q0 -57 -50.5 -94t-145.5 -37h-45v-30q0 -30 13.5 -38.5t58.5 -8.5v-23q-106 2 -115 2q-1 0 -101 -2v23q42 0 55.5 10.5t13.5 38.5v314q0 30 -12 40t-57 10v22q63 -2 107 -2q57 0 110 2z
M192 337h-23v-220h23q66 0 104.5 28.5t38.5 81.5q0 47 -36.5 78.5t-106.5 31.5z" />
    <glyph glyph-name="U.small" unicode="&#xe030;" 
d="M32 435v22q51 -3 95 -3q34 0 96 3v-22q-37 0 -48.5 -10t-11.5 -45v-212q0 -71 35 -112t100 -41q123 0 123 146v224q0 29 -15.5 39.5t-49.5 10.5v22q46 -3 75 -3q42 0 82 3v-22q-22 0 -36.5 -13t-14.5 -40v-222q0 -173 -191 -173q-183 0 -183 169v229q0 30 -12.5 40
t-43.5 10z" />
    <glyph glyph-name="Uacute.small" unicode="&#xe031;" 
d="M32 435v22q51 -3 95 -3q34 0 96 3v-22q-37 0 -48.5 -10t-11.5 -45v-212q0 -71 35 -112t100 -41q123 0 123 146v224q0 29 -15.5 39.5t-49.5 10.5v22q46 -3 75 -3q42 0 82 3v-22q-22 0 -36.5 -13t-14.5 -40v-222q0 -173 -191 -173q-183 0 -183 169v229q0 30 -12.5 40
t-43.5 10zM301 730l40 -23l-131 -205l-13 7z" />
    <glyph glyph-name="Ucircumflex.small" unicode="&#xe032;" 
d="M32 435v22q51 -3 95 -3q34 0 96 3v-22q-37 0 -48.5 -10t-11.5 -45v-212q0 -71 35 -112t100 -41q123 0 123 146v224q0 29 -15.5 39.5t-49.5 10.5v22q46 -3 75 -3q42 0 82 3v-22q-22 0 -36.5 -13t-14.5 -40v-222q0 -173 -191 -173q-183 0 -183 169v229q0 30 -12.5 40
t-43.5 10zM266 731h7l110 -221l-14 -8l-100 143l-108 -143l-14 8z" />
    <glyph glyph-name="Udieresis.small" unicode="&#xe033;" 
d="M32 435v22q51 -3 95 -3q34 0 96 3v-22q-37 0 -48.5 -10t-11.5 -45v-212q0 -71 35 -112t100 -41q123 0 123 146v224q0 29 -15.5 39.5t-49.5 10.5v22q46 -3 75 -3q42 0 82 3v-22q-22 0 -36.5 -13t-14.5 -40v-222q0 -173 -191 -173q-183 0 -183 169v229q0 30 -12.5 40
t-43.5 10zM178 631q19 0 31 -12.5t12 -29.5t-12.5 -29.5t-29.5 -12.5t-29.5 12.5t-12.5 29.5q0 18 12.5 30t28.5 12zM352 631q19 0 31 -12.5t12 -29.5t-12 -29.5t-30 -12.5q-17 0 -29.5 12.5t-12.5 29.5q0 18 12.5 30t28.5 12z" />
    <glyph glyph-name="Ugrave.small" unicode="&#xe034;" 
d="M32 435v22q51 -3 95 -3q34 0 96 3v-22q-37 0 -48.5 -10t-11.5 -45v-212q0 -71 35 -112t100 -41q123 0 123 146v224q0 29 -15.5 39.5t-49.5 10.5v22q46 -3 75 -3q42 0 82 3v-22q-22 0 -36.5 -13t-14.5 -40v-222q0 -173 -191 -173q-183 0 -183 169v229q0 30 -12.5 40
t-43.5 10zM230 730l104 -221l-13 -7l-131 205z" />
    <glyph glyph-name="V.small" unicode="&#xe035;" 
d="M21 435v22q46 -3 91 -3t98 3v-22q-37 0 -43.5 -12t8.5 -49l118 -297l105 284q16 47 7 60.5t-52 13.5v22q42 -3 80 -3q30 0 77 3v-22q-15 0 -23 -1.5t-19.5 -11.5t-19.5 -30l-168 -417h-26l-162 406q-14 35 -26.5 44.5t-44.5 9.5z" />
    <glyph glyph-name="W.small" unicode="&#xe036;" horiz-adv-x="750" 
d="M370 368l32 -76l42 90q6 13 7.5 20t-0.5 16t-15 13t-37 4q-36 0 -41.5 -14t12.5 -53zM25 435v22q41 -3 78 -3q34 0 82 3v-22q-44 0 -19 -59l130 -313l66 141l-85 197q-9 21 -19.5 27.5t-31.5 6.5v22q40 -3 81 -3q11 0 43.5 1.5t42.5 1.5q11 0 37 -1.5t40 -1.5q34 0 74 3
v-22q-30 0 -44 -9t-26 -35l-60 -128l83 -198l122 299q16 36 8.5 53.5t-43.5 17.5v22q32 -3 68 -3q34 0 73 3v-22q-26 0 -39.5 -9.5t-30.5 -48.5l-173 -402h-23l-85 200l-95 -200h-25l-172 417q-18 43 -57 43z" />
    <glyph glyph-name="X.small" unicode="&#xe037;" horiz-adv-x="583" 
d="M28 435v22q50 -3 103 -3q45 0 102 3v-22q-43 0 -43 -18q0 -14 32 -52l78 -96l88 111q43 55 -36 55v22q55 -3 93 -3q44 0 92 3v-22q-35 0 -61 -11t-57 -51l-101 -127l149 -185q31 -39 88 -41v-22q-94 2 -106 2q-30 0 -106 -2v22q45 0 45 9q-1 11 -16 30q-4 4 -6 7l-95 121
l-89 -114q-20 -27 -20 -41q0 -12 54 -12v-22q-72 2 -92 2q-38 0 -90 -2v22q20 0 33.5 2t33.5 13t37 31l115 142l-153 189q-30 38 -72 38z" />
    <glyph glyph-name="Y.small" unicode="&#xe038;" 
d="M22 435v22q41 -3 98 -3q38 0 96 3v-22q-39 -1 -39 -13t16 -34l95 -134l93 127q20 28 20 40q0 14 -49 14v22q48 -3 75 -3q39 0 83 3v-22q-38 0 -55 -10t-33 -32l-116 -162v-170q0 -22 13 -31.5t56 -9.5v-22q-58 2 -106 2q-50 0 -110 -2v22q43 0 57.5 7t14.5 34v146
l-133 186q-20 28 -34 35t-42 7z" />
    <glyph glyph-name="Yacute.small" unicode="&#xe039;" 
d="M22 435v22q41 -3 98 -3q38 0 96 3v-22q-39 -1 -39 -13t16 -34l95 -134l93 127q20 28 20 40q0 14 -49 14v22q48 -3 75 -3q39 0 83 3v-22q-38 0 -55 -10t-33 -32l-116 -162v-170q0 -22 13 -31.5t56 -9.5v-22q-58 2 -106 2q-50 0 -110 -2v22q43 0 57.5 7t14.5 34v146
l-133 186q-20 28 -34 35t-42 7zM301 730l40 -23l-131 -205l-13 7z" />
    <glyph glyph-name="Ydieresis.small" unicode="&#xe03a;" 
d="M22 435v22q41 -3 98 -3q38 0 96 3v-22q-39 -1 -39 -13t16 -34l95 -134l93 127q20 28 20 40q0 14 -49 14v22q48 -3 75 -3q39 0 83 3v-22q-38 0 -55 -10t-33 -32l-116 -162v-170q0 -22 13 -31.5t56 -9.5v-22q-58 2 -106 2q-50 0 -110 -2v22q43 0 57.5 7t14.5 34v146
l-133 186q-20 28 -34 35t-42 7zM178 631q19 0 31 -12.5t12 -29.5t-12.5 -29.5t-29.5 -12.5t-29.5 12.5t-12.5 29.5q0 18 12.5 30t28.5 12zM352 631q19 0 31 -12.5t12 -29.5t-12 -29.5t-30 -12.5q-17 0 -29.5 12.5t-12.5 29.5q0 18 12.5 30t28.5 12z" />
    <glyph glyph-name="Z.small" unicode="&#xe03b;" 
d="M61 480h20q4 -24 54 -24h323l-297 -426h215q40 0 62 20.5t40 63.5l19 -5l-27 -111q-105 2 -211 2q-102 0 -212 -2l299 427h-202q-33 0 -48.5 -11t-23.5 -50h-21z" />
    <glyph glyph-name="Zcaron.small" unicode="&#xe03c;" 
d="M61 480h20q4 -24 54 -24h323l-297 -426h215q40 0 62 20.5t40 63.5l19 -5l-27 -111q-105 2 -211 2q-102 0 -212 -2l299 427h-202q-33 0 -48.5 -11t-23.5 -50h-21zM266 502l-119 221l14 8l108 -143l100 143l14 -8l-110 -221h-7z" />
    <glyph glyph-name="zero.oldstyle" unicode="&#xf730;" horiz-adv-x="479" 
d="M240 422q90 0 153.5 -63.5t63.5 -153.5t-63.5 -154t-153.5 -64t-154 64t-64 154t64 153.5t154 63.5zM239 372q-69 0 -118 -49t-49 -118t49 -118.5t118 -49.5t118.5 49.5t49.5 118.5t-49.5 118t-118.5 49z" />
    <glyph glyph-name="one.oldstyle" unicode="&#xf731;" horiz-adv-x="479" 
d="M89 386v24q31 0 82.5 -1t77.5 -1q80 0 153 2v-24h-61q-31 0 -45.5 -10.5t-14.5 -43.5v-260q0 -28 10.5 -39t46.5 -11h64v-24q-43 0 -86 1t-71 1q-73 0 -157 -2v24h70q32 0 41.5 11.5t9.5 41.5v257q0 36 -12 45t-45 9h-63z" />
    <glyph glyph-name="two.oldstyle" unicode="&#xf732;" horiz-adv-x="479" 
d="M75 307l-12 11q71 104 164 104q56 0 84.5 -31t28.5 -70q0 -49 -35 -92t-162 -156h257q6 0 11.5 4.5t8.5 10t8.5 15.5t8.5 14h18l-23 -117h-387v16q127 109 172 163t45 106q0 30 -23 54t-58 24q-42 0 -106 -56z" />
    <glyph glyph-name="three.oldstyle" unicode="&#xf733;" horiz-adv-x="479" 
d="M110 312l-11 12q84 98 169 98q45 0 70 -28t25 -55q0 -28 -9.5 -51t-34.5 -47.5t-42.5 -38t-60.5 -44.5q46 17 74 17q46 0 79 -31t33 -83q0 -88 -86 -176q-41 -42 -94 -67.5t-92 -25.5q-53 0 -53 31q0 20 22 20q8 0 33.5 -7.5t43.5 -7.5q52 0 100.5 57.5t48.5 135.5
q0 56 -32.5 85t-75.5 27t-77 -28l-9 12q6 5 25.5 19t26.5 19.5t23.5 18t23.5 19.5t19.5 18.5t18 20t12.5 19.5t9.5 21.5t2.5 20.5q0 35 -19.5 55.5t-53.5 20.5q-24 0 -55.5 -17.5t-53.5 -39.5z" />
    <glyph glyph-name="four.oldstyle" unicode="&#xf734;" horiz-adv-x="479" 
d="M292 309l-193 -247h193v247zM349 422h15v-360h88v-62h-89v-208h-72v208h-261v17z" />
    <glyph glyph-name="five.oldstyle" unicode="&#xf735;" horiz-adv-x="479" 
d="M178 420h223l-18 -73h-204l-17 -62q198 -115 198 -261q0 -95 -78.5 -163.5t-155.5 -68.5q-50 0 -50 31q0 11 8.5 17t18.5 6q3 0 29 -7.5t42 -7.5q51 0 84.5 44.5t33.5 104.5q0 62 -46 125t-127 108z" />
    <glyph glyph-name="six.oldstyle" unicode="&#xf736;" horiz-adv-x="479" 
d="M466 618l4 -20q-136 -55 -222 -141q-61 -61 -91 -135.5t-30 -141.5q0 -70 29.5 -120.5t83.5 -50.5t83.5 41.5t29.5 93.5q0 59 -30.5 90.5t-73.5 31.5q-33 0 -89 -34v16q59 68 133 68q56 0 97 -40.5t41 -106.5q0 -80 -60.5 -131t-144.5 -51q-73 0 -125.5 55t-52.5 152
q0 134 131 265q96 96 287 159z" />
    <glyph glyph-name="seven.oldstyle" unicode="&#xf737;" horiz-adv-x="479" 
d="M65 408h392l-333 -616l-30 16l290 527h-307l-26 -41h-18z" />
    <glyph glyph-name="eight.oldstyle" unicode="&#xf738;" horiz-adv-x="479" 
d="M251 596q-46 0 -74 -30t-28 -76t41 -89t69 -59q17 9 34.5 24t35 44t17.5 60q0 65 -31.5 95.5t-63.5 30.5zM217 283q-84 -50 -84 -146q0 -53 31 -90.5t71 -37.5q42 0 70 31.5t28 74.5q0 84 -116 168zM259 618q69 0 111 -42.5t42 -85.5q0 -34 -21.5 -65t-44 -48.5
t-68.5 -48.5q134 -95 134 -177q0 -75 -59 -119.5t-122 -44.5q-76 0 -120 42.5t-44 98.5q0 45 29 85.5t101 84.5q-3 3 -23 19.5t-28 24t-24.5 24.5t-24 29.5t-14 31t-6.5 36.5q0 60 48.5 107.5t133.5 47.5z" />
    <glyph glyph-name="nine.oldstyle" unicode="&#xf739;" horiz-adv-x="479" 
d="M13 -208l-4 20q138 56 222 140q61 61 91 135.5t30 141.5q0 70 -29.5 120.5t-83.5 50.5t-83.5 -41.5t-29.5 -93.5q0 -59 30.5 -90.5t73.5 -31.5q33 0 89 34v-16q-59 -68 -133 -68q-56 0 -97 40.5t-41 106.5q0 80 60.5 131t144.5 51q73 0 125.5 -55t52.5 -152
q0 -134 -131 -265q-94 -94 -287 -158z" />
    </font>
</defs>
</svg>
